  0
SECTION
  2
HEADER
  9
$ACADVER
  1
AC1015
  9
$ACADMAINTVER
 70
     6
  9
$DWGCODEPAGE
  3
UNDEFINED
  9
$INSBASE
 10
0.0
 20
0.0
 30
0.0
  9
$EXTMIN
 10
1.000000000000000E+20
 20
1.000000000000000E+20
 30
1.000000000000000E+20
  9
$EXTMAX
 10
-1.000000000000000E+20
 20
-1.000000000000000E+20
 30
-1.000000000000000E+20
  9
$LIMMIN
 10
0.0
 20
0.0
  9
$LIMMAX
 10
12.0
 20
9.0
  9
$ORTHOMODE
 70
     0
  9
$REGENMODE
 70
     1
  9
$FILLMODE
 70
     1
  9
$QTEXTMODE
 70
     0
  9
$MIRRTEXT
 70
     1
  9
$LTSCALE
 40
1.0
  9
$ATTMODE
 70
     1
  9
$TEXTSIZE
 40
0.2
  9
$TRACEWID
 40
0.05
  9
$TEXTSTYLE
  7
Standard
  9
$CLAYER
  8
0
  9
$CELTYPE
  6
ByLayer
  9
$CECOLOR
 62
   256
  9
$CELTSCALE
 40
1.0
  9
$DISPSILH
 70
     0
  9
$DIMSCALE
 40
1.0
  9
$DIMASZ
 40
0.18
  9
$DIMEXO
 40
0.0625
  9
$DIMDLI
 40
0.38
  9
$DIMRND
 40
0.0
  9
$DIMDLE
 40
0.0
  9
$DIMEXE
 40
0.18
  9
$DIMTP
 40
0.0
  9
$DIMTM
 40
0.0
  9
$DIMTXT
 40
0.18
  9
$DIMCEN
 40
0.09
  9
$DIMTSZ
 40
0.0
  9
$DIMTOL
 70
     0
  9
$DIMLIM
 70
     0
  9
$DIMTIH
 70
     1
  9
$DIMTOH
 70
     1
  9
$DIMSE1
 70
     0
  9
$DIMSE2
 70
     0
  9
$DIMTAD
 70
     0
  9
$DIMZIN
 70
     0
  9
$DIMBLK
  1

  9
$DIMASO
 70
     1
  9
$DIMSHO
 70
     1
  9
$DIMPOST
  1

  9
$DIMAPOST
  1

  9
$DIMALT
 70
     0
  9
$DIMALTD
 70
     2
  9
$DIMALTF
 40
25.4
  9
$DIMLFAC
 40
1.0
  9
$DIMTOFL
 70
     0
  9
$DIMTVP
 40
0.0
  9
$DIMTIX
 70
     0
  9
$DIMSOXD
 70
     0
  9
$DIMSAH
 70
     0
  9
$DIMBLK1
  1

  9
$DIMBLK2
  1

  9
$DIMSTYLE
  2
Standard
  9
$DIMCLRD
 70
     0
  9
$DIMCLRE
 70
     0
  9
$DIMCLRT
 70
     0
  9
$DIMTFAC
 40
1.0
  9
$DIMGAP
 40
0.09
  9
$DIMJUST
 70
     0
  9
$DIMSD1
 70
     0
  9
$DIMSD2
 70
     0
  9
$DIMTOLJ
 70
     1
  9
$DIMTZIN
 70
     0
  9
$DIMALTZ
 70
     0
  9
$DIMALTTZ
 70
     0
  9
$DIMUPT
 70
     0
  9
$DIMDEC
 70
     4
  9
$DIMTDEC
 70
     4
  9
$DIMALTU
 70
     2
  9
$DIMALTTD
 70
     2
  9
$DIMTXSTY
  7
Standard
  9
$DIMAUNIT
 70
     0
  9
$DIMADEC
 70
     0
  9
$DIMALTRND
 40
0.0
  9
$DIMAZIN
 70
     0
  9
$DIMDSEP
 70
    46
  9
$DIMATFIT
 70
     3
  9
$DIMFRAC
 70
     0
  9
$DIMLDRBLK
  1

  9
$DIMLUNIT
 70
     2
  9
$DIMLWD
 70
    -2
  9
$DIMLWE
 70
    -2
  9
$DIMTMOVE
 70
     0
  9
$LUNITS
 70
     2
  9
$LUPREC
 70
     4
  9
$SKETCHINC
 40
0.1
  9
$FILLETRAD
 40
0.5
  9
$AUNITS
 70
     0
  9
$AUPREC
 70
     0
  9
$MENU
  1
.
  9
$ELEVATION
 40
0.0
  9
$PELEVATION
 40
0.0
  9
$THICKNESS
 40
0.0
  9
$LIMCHECK
 70
     0
  9
$CHAMFERA
 40
0.5
  9
$CHAMFERB
 40
0.5
  9
$CHAMFERC
 40
1.0
  9
$CHAMFERD
 40
0.0
  9
$SKPOLY
 70
     0
  9
$TDCREATE
 40
2458152.671898136
  9
$TDUCREATE
 40
2458152.880231482
  9
$TDUPDATE
 40
2458152.671898136
  9
$TDUUPDATE
 40
2458152.880231482
  9
$TDINDWG
 40
0.0000000116
  9
$TDUSRTIMER
 40
0.0000000116
  9
$USRTIMER
 70
     1
  9
$ANGBASE
 50
0.0
  9
$ANGDIR
 70
     0
  9
$PDMODE
 70
     0
  9
$PDSIZE
 40
0.0
  9
$PLINEWID
 40
0.0
  9
$SPLFRAME
 70
     0
  9
$SPLINETYPE
 70
     6
  9
$SPLINESEGS
 70
     8
  9
$HANDSEED
  5
42E
  9
$SURFTAB1
 70
     6
  9
$SURFTAB2
 70
     6
  9
$SURFTYPE
 70
     6
  9
$SURFU
 70
     6
  9
$SURFV
 70
     6
  9
$UCSBASE
  2

  9
$UCSNAME
  2

  9
$UCSORG
 10
0.0
 20
0.0
 30
0.0
  9
$UCSXDIR
 10
1.0
 20
0.0
 30
0.0
  9
$UCSYDIR
 10
0.0
 20
1.0
 30
0.0
  9
$UCSORTHOREF
  2

  9
$UCSORTHOVIEW
 70
     0
  9
$UCSORGTOP
 10
0.0
 20
0.0
 30
0.0
  9
$UCSORGBOTTOM
 10
0.0
 20
0.0
 30
0.0
  9
$UCSORGLEFT
 10
0.0
 20
0.0
 30
0.0
  9
$UCSORGRIGHT
 10
0.0
 20
0.0
 30
0.0
  9
$UCSORGFRONT
 10
0.0
 20
0.0
 30
0.0
  9
$UCSORGBACK
 10
0.0
 20
0.0
 30
0.0
  9
$PUCSBASE
  2

  9
$PUCSNAME
  2

  9
$PUCSORG
 10
0.0
 20
0.0
 30
0.0
  9
$PUCSXDIR
 10
1.0
 20
0.0
 30
0.0
  9
$PUCSYDIR
 10
0.0
 20
1.0
 30
0.0
  9
$PUCSORTHOREF
  2

  9
$PUCSORTHOVIEW
 70
     0
  9
$PUCSORGTOP
 10
0.0
 20
0.0
 30
0.0
  9
$PUCSORGBOTTOM
 10
0.0
 20
0.0
 30
0.0
  9
$PUCSORGLEFT
 10
0.0
 20
0.0
 30
0.0
  9
$PUCSORGRIGHT
 10
0.0
 20
0.0
 30
0.0
  9
$PUCSORGFRONT
 10
0.0
 20
0.0
 30
0.0
  9
$PUCSORGBACK
 10
0.0
 20
0.0
 30
0.0
  9
$USERI1
 70
     0
  9
$USERI2
 70
     0
  9
$USERI3
 70
     0
  9
$USERI4
 70
     0
  9
$USERI5
 70
     0
  9
$USERR1
 40
0.0
  9
$USERR2
 40
0.0
  9
$USERR3
 40
0.0
  9
$USERR4
 40
0.0
  9
$USERR5
 40
0.0
  9
$WORLDVIEW
 70
     1
  9
$SHADEDGE
 70
     3
  9
$SHADEDIF
 70
    70
  9
$TILEMODE
 70
     1
  9
$MAXACTVP
 70
    64
  9
$PINSBASE
 10
0.0
 20
0.0
 30
0.0
  9
$PLIMCHECK
 70
     0
  9
$PEXTMIN
 10
1.000000000000000E+20
 20
1.000000000000000E+20
 30
1.000000000000000E+20
  9
$PEXTMAX
 10
-1.000000000000000E+20
 20
-1.000000000000000E+20
 30
-1.000000000000000E+20
  9
$PLIMMIN
 10
0.0
 20
0.0
  9
$PLIMMAX
 10
12.0
 20
9.0
  9
$UNITMODE
 70
     0
  9
$VISRETAIN
 70
     1
  9
$PLINEGEN
 70
     0
  9
$PSLTSCALE
 70
     1
  9
$TREEDEPTH
 70
  3020
  9
$CMLSTYLE
  2
Standard
  9
$CMLJUST
 70
     0
  9
$CMLSCALE
 40
1.0
  9
$PROXYGRAPHICS
 70
     1
  9
$MEASUREMENT
 70
     0
  9
$CELWEIGHT
370
    -1
  9
$ENDCAPS
280
     0
  9
$JOINSTYLE
280
     0
  9
$LWDISPLAY
290
     1
  9
$INSUNITS
 70
     1
  9
$HYPERLINKBASE
  1

  9
$STYLESHEET
  1

  9
$XEDIT
290
     1
  9
$CEPSNTYPE
380
     0
  9
$PSTYLEMODE
290
     1
  9
$FINGERPRINTGUID
  2
{38D15C46-9637-8C6D-0DD6-5603CEB66D8E}
  9
$VERSIONGUID
  2
{FAEB1C32-E019-11D5-929B-00C0DF256EC4}
  9
$EXTNAMES
290
     1
  9
$PSVPSCALE
 40
0.0
  9
$OLESTARTUP
290
     0
  0
ENDSEC
  0
SECTION
  2
CLASSES
  0
CLASS
  1
ACDBDICTIONARYWDFLT
  2
AcDbDictionaryWithDefault
  3
ObjectDBX Classes
 90
        0
280
     0
281
     0
  0
CLASS
  1
VISUALSTYLE
  2
AcDbVisualStyle
  3
ObjectDBX Classes
 90
     4095
280
     0
281
     0
  0
CLASS
  1
MATERIAL
  2
AcDbMaterial
  3
ObjectDBX Classes
 90
     1153
280
     0
281
     0
  0
CLASS
  1
SUN
  2
AcDbSun
  3
SCENEOE
 90
     1024
280
     0
281
     0
  0
CLASS
  1
DICTIONARYVAR
  2
AcDbDictionaryVar
  3
ObjectDBX Classes
 90
        0
280
     0
281
     0
  0
CLASS
  1
ACDBPLACEHOLDER
  2
AcDbPlaceHolder
  3
ObjectDBX Classes
 90
        0
280
     0
281
     0
  0
CLASS
  1
LAYOUT
  2
AcDbLayout
  3
ObjectDBX Classes
 90
        0
280
     0
281
     0
  0
ENDSEC
  0
SECTION
  2
TABLES
  0
TABLE
  2
VPORT
  5
8
330
0
100
AcDbSymbolTable
 70
     1
  0
VPORT
  5
29
330
8
100
AcDbSymbolTableRecord
100
AcDbViewportTableRecord
  2
*Active
 70
     0
 10
0.0
 20
0.0
 11
1.0
 21
1.0
 12
0.0
 22
0.0
 13
0.0
 23
0.0
 14
0.5
 24
0.5
 15
0.5
 25
0.5
 16
0.0
 26
0.0
 36
1.0
 17
4.725599924723307
 27
6.275600009494357
 37
0.0
 40
12.55120001898871
 41
0.7530116510889708
 42
50.0
 43
0.0
 44
0.0
 50
0.0
 51
0.0
 71
     0
 72
   100
 73
     1
 74
     3
 75
     0
 76
     0
 77
     0
 78
     0
281
     0
 65
     1
110
0.0
120
0.0
130
0.0
111
1.0
121
0.0
131
0.0
112
0.0
122
1.0
132
0.0
 79
     0
146
0.0
  0
ENDTAB
  0
TABLE
  2
LTYPE
  5
5
330
0
100
AcDbSymbolTable
 70
     1
  0
LTYPE
  5
14
330
5
100
AcDbSymbolTableRecord
100
AcDbLinetypeTableRecord
  2
ByBlock
 70
     0
  3

 72
    65
 73
     0
 40
0.0
  0
LTYPE
  5
15
330
5
100
AcDbSymbolTableRecord
100
AcDbLinetypeTableRecord
  2
ByLayer
 70
     0
  3

 72
    65
 73
     0
 40
0.0
  0
LTYPE
  5
16
330
5
100
AcDbSymbolTableRecord
100
AcDbLinetypeTableRecord
  2
Continuous
 70
     0
  3
Solid line
 72
    65
 73
     0
 40
0.0
  0
ENDTAB
  0
TABLE
  2
LAYER
  5
2
330
0
100
AcDbSymbolTable
 70
     2
  0
LAYER
  5
10
330
2
100
AcDbSymbolTableRecord
100
AcDbLayerTableRecord
  2
0
 70
     0
 62
     7
  6
Continuous
370
    -3
390
F
  0
LAYER
  5
40
330
2
100
AcDbSymbolTableRecord
100
AcDbLayerTableRecord
  2
Layer 1
 70
     0
 62
     7
  6
Continuous
370
    -3
390
F
  0
ENDTAB
  0
TABLE
  2
STYLE
  5
3
330
0
100
AcDbSymbolTable
 70
     1
  0
STYLE
  5
11
330
3
100
AcDbSymbolTableRecord
100
AcDbTextStyleTableRecord
  2
Standard
 70
     0
 40
0.0
 41
1.0
 50
0.0
 71
     0
 42
0.2
  3
txt
  4

  0
ENDTAB
  0
TABLE
  2
VIEW
  5
6
330
0
100
AcDbSymbolTable
 70
     0
  0
ENDTAB
  0
TABLE
  2
UCS
  5
7
330
0
100
AcDbSymbolTable
 70
     0
  0
ENDTAB
  0
TABLE
  2
APPID
  5
9
330
0
100
AcDbSymbolTable
 70
     1
  0
APPID
  5
12
330
9
100
AcDbSymbolTableRecord
100
AcDbRegAppTableRecord
  2
ACAD
 70
     0
  0
ENDTAB
  0
TABLE
  2
DIMSTYLE
  5
A
330
0
100
AcDbSymbolTable
 70
     1
100
AcDbDimStyleTable
  0
DIMSTYLE
105
27
330
A
100
AcDbSymbolTableRecord
100
AcDbDimStyleTableRecord
  2
Standard
 70
     0
178
     0
340
11
  0
ENDTAB
  0
TABLE
  2
BLOCK_RECORD
  5
1
330
0
100
AcDbSymbolTable
 70
     1
  0
BLOCK_RECORD
  5
1F
330
1
100
AcDbSymbolTableRecord
100
AcDbBlockTableRecord
  2
*Model_Space
340
22
  0
BLOCK_RECORD
  5
1B
330
1
100
AcDbSymbolTableRecord
100
AcDbBlockTableRecord
  2
*Paper_Space
340
1E
  0
BLOCK_RECORD
  5
23
330
1
100
AcDbSymbolTableRecord
100
AcDbBlockTableRecord
  2
*Paper_Space0
340
26
  0
ENDTAB
  0
ENDSEC
  0
SECTION
  2
BLOCKS
  0
BLOCK
  5
20
330
1F
100
AcDbEntity
  8
0
100
AcDbBlockBegin
  2
*Model_Space
 70
     0
 10
0.0
 20
0.0
 30
0.0
  3
*Model_Space
  1

  0
ENDBLK
  5
21
330
1F
100
AcDbEntity
  8
0
100
AcDbBlockEnd
  0
BLOCK
  5
1C
330
1B
100
AcDbEntity
 67
     1
  8
0
100
AcDbBlockBegin
  2
*Paper_Space
 70
     0
 10
0.0
 20
0.0
 30
0.0
  3
*Paper_Space
  1

  0
ENDBLK
  5
1D
330
1B
100
AcDbEntity
 67
     1
  8
0
100
AcDbBlockEnd
  0
BLOCK
  5
24
330
23
100
AcDbEntity
  8
0
100
AcDbBlockBegin
  2
*Paper_Space0
 70
     0
 10
0.0
 20
0.0
 30
0.0
  3
*Paper_Space0
  1

  0
ENDBLK
  5
25
330
23
100
AcDbEntity
  8
0
100
AcDbBlockEnd
  0
ENDSEC
  0
SECTION
  2
ENTITIES
  0
POLYLINE
  5
41
330
1F
100
AcDbEntity
  8
Layer 1
 62
     7
370
     5
100
AcDb2dPolyline
 66
     1
 10
0.0
 20
0.0
 30
0.0
  0
VERTEX
  5
42
330
41
100
AcDbEntity
  8
Layer 1
 62
     7
370
     5
100
AcDbVertex
100
AcDb2dVertex
 10
3.22380002339681
 20
0.8761999871995714
 30
0.0
  0
VERTEX
  5
43
330
41
100
AcDbEntity
  8
Layer 1
 62
     7
370
     5
100
AcDbVertex
100
AcDb2dVertex
 10
3.22380002339681
 20
0.3738000128004286
 30
0.0
  0
SEQEND
  5
44
330
41
100
AcDbEntity
  8
Layer 1
 62
     7
370
     5
  0
POLYLINE
  5
45
330
1F
100
AcDbEntity
  8
Layer 1
 62
     7
370
     5
100
AcDb2dPolyline
 66
     1
 10
0.0
 20
0.0
 30
0.0
  0
VERTEX
  5
46
330
45
100
AcDbEntity
  8
Layer 1
 62
     7
370
     5
100
AcDbVertex
100
AcDb2dVertex
 10
3.22380002339681
 20
0.3738000128004286
 30
0.0
  0
VERTEX
  5
47
330
45
100
AcDbEntity
  8
Layer 1
 62
     7
370
     5
100
AcDbVertex
100
AcDb2dVertex
 10
3.47380002339681
 20
0.3738000128004286
 30
0.0
  0
SEQEND
  5
48
330
45
100
AcDbEntity
  8
Layer 1
 62
     7
370
     5
  0
POLYLINE
  5
49
330
1F
100
AcDbEntity
  8
Layer 1
 62
     7
370
     5
100
AcDb2dPolyline
 66
     1
 10
0.0
 20
0.0
 30
0.0
  0
VERTEX
  5
4A
330
49
100
AcDbEntity
  8
Layer 1
 62
     7
370
     5
100
AcDbVertex
100
AcDb2dVertex
 10
3.47380002339681
 20
0.8761999871995714
 30
0.0
  0
VERTEX
  5
4B
330
49
100
AcDbEntity
  8
Layer 1
 62
     7
370
     5
100
AcDbVertex
100
AcDb2dVertex
 10
3.22380002339681
 20
0.8761999871995714
 30
0.0
  0
SEQEND
  5
4C
330
49
100
AcDbEntity
  8
Layer 1
 62
     7
370
     5
  0
POLYLINE
  5
4D
330
1F
100
AcDbEntity
  8
Layer 1
 62
     7
370
     5
100
AcDb2dPolyline
 66
     1
 10
0.0
 20
0.0
 30
0.0
  0
VERTEX
  5
4E
330
4D
100
AcDbEntity
  8
Layer 1
 62
     7
370
     5
100
AcDbVertex
100
AcDb2dVertex
 10
3.22380002339681
 20
1.876199934217665
 30
0.0
  0
VERTEX
  5
4F
330
4D
100
AcDbEntity
  8
Layer 1
 62
     7
370
     5
100
AcDbVertex
100
AcDb2dVertex
 10
3.22380002339681
 20
1.373799959818522
 30
0.0
  0
SEQEND
  5
50
330
4D
100
AcDbEntity
  8
Layer 1
 62
     7
370
     5
  0
POLYLINE
  5
51
330
1F
100
AcDbEntity
  8
Layer 1
 62
     7
370
     5
100
AcDb2dPolyline
 66
     1
 10
0.0
 20
0.0
 30
0.0
  0
VERTEX
  5
52
330
51
100
AcDbEntity
  8
Layer 1
 62
     7
370
     5
100
AcDbVertex
100
AcDb2dVertex
 10
3.22380002339681
 20
1.373799959818522
 30
0.0
  0
VERTEX
  5
53
330
51
100
AcDbEntity
  8
Layer 1
 62
     7
370
     5
100
AcDbVertex
100
AcDb2dVertex
 10
3.47380002339681
 20
1.373799959818522
 30
0.0
  0
SEQEND
  5
54
330
51
100
AcDbEntity
  8
Layer 1
 62
     7
370
     5
  0
POLYLINE
  5
55
330
1F
100
AcDbEntity
  8
Layer 1
 62
     7
370
     5
100
AcDb2dPolyline
 66
     1
 10
0.0
 20
0.0
 30
0.0
  0
VERTEX
  5
56
330
55
100
AcDbEntity
  8
Layer 1
 62
     7
370
     5
100
AcDbVertex
100
AcDb2dVertex
 10
3.47380002339681
 20
1.876199934217665
 30
0.0
  0
VERTEX
  5
57
330
55
100
AcDbEntity
  8
Layer 1
 62
     7
370
     5
100
AcDbVertex
100
AcDb2dVertex
 10
3.22380002339681
 20
1.876199934217665
 30
0.0
  0
SEQEND
  5
58
330
55
100
AcDbEntity
  8
Layer 1
 62
     7
370
     5
  0
POLYLINE
  5
59
330
1F
100
AcDbEntity
  8
Layer 1
 62
     7
370
     5
100
AcDb2dPolyline
 66
     1
 10
0.0
 20
0.0
 30
0.0
  0
VERTEX
  5
5A
330
59
100
AcDbEntity
  8
Layer 1
 62
     7
370
     5
100
AcDbVertex
100
AcDb2dVertex
 10
3.22380002339681
 20
2.876199934217665
 30
0.0
  0
VERTEX
  5
5B
330
59
100
AcDbEntity
  8
Layer 1
 62
     7
370
     5
100
AcDbVertex
100
AcDb2dVertex
 10
3.22380002339681
 20
2.373800065782335
 30
0.0
  0
SEQEND
  5
5C
330
59
100
AcDbEntity
  8
Layer 1
 62
     7
370
     5
  0
POLYLINE
  5
5D
330
1F
100
AcDbEntity
  8
Layer 1
 62
     7
370
     5
100
AcDb2dPolyline
 66
     1
 10
0.0
 20
0.0
 30
0.0
  0
VERTEX
  5
5E
330
5D
100
AcDbEntity
  8
Layer 1
 62
     7
370
     5
100
AcDbVertex
100
AcDb2dVertex
 10
3.22380002339681
 20
2.373800065782335
 30
0.0
  0
VERTEX
  5
5F
330
5D
100
AcDbEntity
  8
Layer 1
 62
     7
370
     5
100
AcDbVertex
100
AcDb2dVertex
 10
3.47380002339681
 20
2.373800065782335
 30
0.0
  0
SEQEND
  5
60
330
5D
100
AcDbEntity
  8
Layer 1
 62
     7
370
     5
  0
POLYLINE
  5
61
330
1F
100
AcDbEntity
  8
Layer 1
 62
     7
370
     5
100
AcDb2dPolyline
 66
     1
 10
0.0
 20
0.0
 30
0.0
  0
VERTEX
  5
62
330
61
100
AcDbEntity
  8
Layer 1
 62
     7
370
     5
100
AcDbVertex
100
AcDb2dVertex
 10
3.47380002339681
 20
2.876199934217665
 30
0.0
  0
VERTEX
  5
63
330
61
100
AcDbEntity
  8
Layer 1
 62
     7
370
     5
100
AcDbVertex
100
AcDb2dVertex
 10
3.22380002339681
 20
2.876199934217665
 30
0.0
  0
SEQEND
  5
64
330
61
100
AcDbEntity
  8
Layer 1
 62
     7
370
     5
  0
POLYLINE
  5
65
330
1F
100
AcDbEntity
  8
Layer 1
 62
     7
370
     5
100
AcDb2dPolyline
 66
     1
 10
0.0
 20
0.0
 30
0.0
  0
VERTEX
  5
66
330
65
100
AcDbEntity
  8
Layer 1
 62
     7
370
     5
100
AcDbVertex
100
AcDb2dVertex
 10
3.47380002339681
 20
0.3738000128004286
 30
0.0
  0
VERTEX
  5
67
330
65
100
AcDbEntity
  8
Layer 1
 62
     7
370
     5
100
AcDbVertex
100
AcDb2dVertex
 10
3.973799811469184
 20
0.3738000128004286
 30
0.0
  0
SEQEND
  5
68
330
65
100
AcDbEntity
  8
Layer 1
 62
     7
370
     5
  0
POLYLINE
  5
69
330
1F
100
AcDbEntity
  8
Layer 1
 62
     7
370
     5
100
AcDb2dPolyline
 66
     1
 10
0.0
 20
0.0
 30
0.0
  0
VERTEX
  5
6A
330
69
100
AcDbEntity
  8
Layer 1
 62
     7
370
     5
100
AcDbVertex
100
AcDb2dVertex
 10
3.47380002339681
 20
1.373799959818522
 30
0.0
  0
VERTEX
  5
6B
330
69
100
AcDbEntity
  8
Layer 1
 62
     7
370
     5
100
AcDbVertex
100
AcDb2dVertex
 10
3.47380002339681
 20
0.8761999871995714
 30
0.0
  0
SEQEND
  5
6C
330
69
100
AcDbEntity
  8
Layer 1
 62
     7
370
     5
  0
POLYLINE
  5
6D
330
1F
100
AcDbEntity
  8
Layer 1
 62
     7
370
     5
100
AcDb2dPolyline
 66
     1
 10
0.0
 20
0.0
 30
0.0
  0
VERTEX
  5
6E
330
6D
100
AcDbEntity
  8
Layer 1
 62
     7
370
     5
100
AcDbVertex
100
AcDb2dVertex
 10
3.47380002339681
 20
2.373800065782335
 30
0.0
  0
VERTEX
  5
6F
330
6D
100
AcDbEntity
  8
Layer 1
 62
     7
370
     5
100
AcDbVertex
100
AcDb2dVertex
 10
3.47380002339681
 20
1.876199934217665
 30
0.0
  0
SEQEND
  5
70
330
6D
100
AcDbEntity
  8
Layer 1
 62
     7
370
     5
  0
POLYLINE
  5
71
330
1F
100
AcDbEntity
  8
Layer 1
 62
     7
370
     5
100
AcDb2dPolyline
 66
     1
 10
0.0
 20
0.0
 30
0.0
  0
VERTEX
  5
72
330
71
100
AcDbEntity
  8
Layer 1
 62
     7
370
     5
100
AcDbVertex
100
AcDb2dVertex
 10
3.973799811469184
 20
2.876199934217665
 30
0.0
  0
VERTEX
  5
73
330
71
100
AcDbEntity
  8
Layer 1
 62
     7
370
     5
100
AcDbVertex
100
AcDb2dVertex
 10
3.47380002339681
 20
2.876199934217665
 30
0.0
  0
SEQEND
  5
74
330
71
100
AcDbEntity
  8
Layer 1
 62
     7
370
     5
  0
POLYLINE
  5
75
330
1F
100
AcDbEntity
  8
Layer 1
 62
     7
370
     5
100
AcDb2dPolyline
 66
     1
 10
0.0
 20
0.0
 30
0.0
  0
VERTEX
  5
76
330
75
100
AcDbEntity
  8
Layer 1
 62
     7
370
     5
100
AcDbVertex
100
AcDb2dVertex
 10
3.973799811469184
 20
0.3738000128004286
 30
0.0
  0
VERTEX
  5
77
330
75
100
AcDbEntity
  8
Layer 1
 62
     7
370
     5
100
AcDbVertex
100
AcDb2dVertex
 10
3.973799811469184
 20
0.123799999554952
 30
0.0
  0
SEQEND
  5
78
330
75
100
AcDbEntity
  8
Layer 1
 62
     7
370
     5
  0
POLYLINE
  5
79
330
1F
100
AcDbEntity
  8
Layer 1
 62
     7
370
     5
100
AcDb2dPolyline
 66
     1
 10
0.0
 20
0.0
 30
0.0
  0
VERTEX
  5
7A
330
79
100
AcDbEntity
  8
Layer 1
 62
     7
370
     5
100
AcDbVertex
100
AcDb2dVertex
 10
3.973799811469184
 20
0.123799999554952
 30
0.0
  0
VERTEX
  5
7B
330
79
100
AcDbEntity
  8
Layer 1
 62
     7
370
     5
100
AcDbVertex
100
AcDb2dVertex
 10
4.476200103759766
 20
0.123799999554952
 30
0.0
  0
SEQEND
  5
7C
330
79
100
AcDbEntity
  8
Layer 1
 62
     7
370
     5
  0
POLYLINE
  5
7D
330
1F
100
AcDbEntity
  8
Layer 1
 62
     7
370
     5
100
AcDb2dPolyline
 66
     1
 10
0.0
 20
0.0
 30
0.0
  0
VERTEX
  5
7E
330
7D
100
AcDbEntity
  8
Layer 1
 62
     7
370
     5
100
AcDbVertex
100
AcDb2dVertex
 10
3.973799811469184
 20
3.126199934217665
 30
0.0
  0
VERTEX
  5
7F
330
7D
100
AcDbEntity
  8
Layer 1
 62
     7
370
     5
100
AcDbVertex
100
AcDb2dVertex
 10
3.973799811469184
 20
2.876199934217665
 30
0.0
  0
SEQEND
  5
80
330
7D
100
AcDbEntity
  8
Layer 1
 62
     7
370
     5
  0
POLYLINE
  5
81
330
1F
100
AcDbEntity
  8
Layer 1
 62
     7
370
     5
100
AcDb2dPolyline
 66
     1
 10
0.0
 20
0.0
 30
0.0
  0
VERTEX
  5
82
330
81
100
AcDbEntity
  8
Layer 1
 62
     7
370
     5
100
AcDbVertex
100
AcDb2dVertex
 10
4.476200103759766
 20
3.126199934217665
 30
0.0
  0
VERTEX
  5
83
330
81
100
AcDbEntity
  8
Layer 1
 62
     7
370
     5
100
AcDbVertex
100
AcDb2dVertex
 10
3.973799811469184
 20
3.126199934217665
 30
0.0
  0
SEQEND
  5
84
330
81
100
AcDbEntity
  8
Layer 1
 62
     7
370
     5
  0
POLYLINE
  5
85
330
1F
100
AcDbEntity
  8
Layer 1
 62
     7
370
     5
100
AcDb2dPolyline
 66
     1
 10
0.0
 20
0.0
 30
0.0
  0
VERTEX
  5
86
330
85
100
AcDbEntity
  8
Layer 1
 62
     7
370
     5
100
AcDbVertex
100
AcDb2dVertex
 10
4.476200103759766
 20
0.123799999554952
 30
0.0
  0
VERTEX
  5
87
330
85
100
AcDbEntity
  8
Layer 1
 62
     7
370
     5
100
AcDbVertex
100
AcDb2dVertex
 10
4.476200103759766
 20
0.3738000128004286
 30
0.0
  0
SEQEND
  5
88
330
85
100
AcDbEntity
  8
Layer 1
 62
     7
370
     5
  0
POLYLINE
  5
89
330
1F
100
AcDbEntity
  8
Layer 1
 62
     7
370
     5
100
AcDb2dPolyline
 66
     1
 10
0.0
 20
0.0
 30
0.0
  0
VERTEX
  5
8A
330
89
100
AcDbEntity
  8
Layer 1
 62
     7
370
     5
100
AcDbVertex
100
AcDb2dVertex
 10
4.476200103759766
 20
0.3738000128004286
 30
0.0
  0
VERTEX
  5
8B
330
89
100
AcDbEntity
  8
Layer 1
 62
     7
370
     5
100
AcDbVertex
100
AcDb2dVertex
 10
4.973799811469184
 20
0.3738000128004286
 30
0.0
  0
SEQEND
  5
8C
330
89
100
AcDbEntity
  8
Layer 1
 62
     7
370
     5
  0
POLYLINE
  5
8D
330
1F
100
AcDbEntity
  8
Layer 1
 62
     7
370
     5
100
AcDb2dPolyline
 66
     1
 10
0.0
 20
0.0
 30
0.0
  0
VERTEX
  5
8E
330
8D
100
AcDbEntity
  8
Layer 1
 62
     7
370
     5
100
AcDbVertex
100
AcDb2dVertex
 10
4.476200103759766
 20
2.876199934217665
 30
0.0
  0
VERTEX
  5
8F
330
8D
100
AcDbEntity
  8
Layer 1
 62
     7
370
     5
100
AcDbVertex
100
AcDb2dVertex
 10
4.476200103759766
 20
3.126199934217665
 30
0.0
  0
SEQEND
  5
90
330
8D
100
AcDbEntity
  8
Layer 1
 62
     7
370
     5
  0
POLYLINE
  5
91
330
1F
100
AcDbEntity
  8
Layer 1
 62
     7
370
     5
100
AcDb2dPolyline
 66
     1
 10
0.0
 20
0.0
 30
0.0
  0
VERTEX
  5
92
330
91
100
AcDbEntity
  8
Layer 1
 62
     7
370
     5
100
AcDbVertex
100
AcDb2dVertex
 10
4.973799811469184
 20
2.876199934217665
 30
0.0
  0
VERTEX
  5
93
330
91
100
AcDbEntity
  8
Layer 1
 62
     7
370
     5
100
AcDbVertex
100
AcDb2dVertex
 10
4.476200103759766
 20
2.876199934217665
 30
0.0
  0
SEQEND
  5
94
330
91
100
AcDbEntity
  8
Layer 1
 62
     7
370
     5
  0
POLYLINE
  5
95
330
1F
100
AcDbEntity
  8
Layer 1
 62
     7
370
     5
100
AcDb2dPolyline
 66
     1
 10
0.0
 20
0.0
 30
0.0
  0
VERTEX
  5
96
330
95
100
AcDbEntity
  8
Layer 1
 62
     7
370
     5
100
AcDbVertex
100
AcDb2dVertex
 10
4.973799811469184
 20
3.126199934217665
 30
0.0
  0
VERTEX
  5
97
330
95
100
AcDbEntity
  8
Layer 1
 62
     7
370
     5
100
AcDbVertex
100
AcDb2dVertex
 10
4.973799811469184
 20
2.876199934217665
 30
0.0
  0
SEQEND
  5
98
330
95
100
AcDbEntity
  8
Layer 1
 62
     7
370
     5
  0
POLYLINE
  5
99
330
1F
100
AcDbEntity
  8
Layer 1
 62
     7
370
     5
100
AcDb2dPolyline
 66
     1
 10
0.0
 20
0.0
 30
0.0
  0
VERTEX
  5
9A
330
99
100
AcDbEntity
  8
Layer 1
 62
     7
370
     5
100
AcDbVertex
100
AcDb2dVertex
 10
5.476200103759766
 20
3.126199934217665
 30
0.0
  0
VERTEX
  5
9B
330
99
100
AcDbEntity
  8
Layer 1
 62
     7
370
     5
100
AcDbVertex
100
AcDb2dVertex
 10
4.973799811469184
 20
3.126199934217665
 30
0.0
  0
SEQEND
  5
9C
330
99
100
AcDbEntity
  8
Layer 1
 62
     7
370
     5
  0
POLYLINE
  5
9D
330
1F
100
AcDbEntity
  8
Layer 1
 62
     7
370
     5
100
AcDb2dPolyline
 66
     1
 10
0.0
 20
0.0
 30
0.0
  0
VERTEX
  5
9E
330
9D
100
AcDbEntity
  8
Layer 1
 62
     7
370
     5
100
AcDbVertex
100
AcDb2dVertex
 10
4.973799811469184
 20
0.3738000128004286
 30
0.0
  0
VERTEX
  5
9F
330
9D
100
AcDbEntity
  8
Layer 1
 62
     7
370
     5
100
AcDbVertex
100
AcDb2dVertex
 10
4.973799811469184
 20
0.123799999554952
 30
0.0
  0
SEQEND
  5
A0
330
9D
100
AcDbEntity
  8
Layer 1
 62
     7
370
     5
  0
POLYLINE
  5
A1
330
1F
100
AcDbEntity
  8
Layer 1
 62
     7
370
     5
100
AcDb2dPolyline
 66
     1
 10
0.0
 20
0.0
 30
0.0
  0
VERTEX
  5
A2
330
A1
100
AcDbEntity
  8
Layer 1
 62
     7
370
     5
100
AcDbVertex
100
AcDb2dVertex
 10
4.973799811469184
 20
0.123799999554952
 30
0.0
  0
VERTEX
  5
A3
330
A1
100
AcDbEntity
  8
Layer 1
 62
     7
370
     5
100
AcDbVertex
100
AcDb2dVertex
 10
5.476200103759766
 20
0.123799999554952
 30
0.0
  0
SEQEND
  5
A4
330
A1
100
AcDbEntity
  8
Layer 1
 62
     7
370
     5
  0
POLYLINE
  5
A5
330
1F
100
AcDbEntity
  8
Layer 1
 62
     7
370
     5
100
AcDb2dPolyline
 66
     1
 10
0.0
 20
0.0
 30
0.0
  0
VERTEX
  5
A6
330
A5
100
AcDbEntity
  8
Layer 1
 62
     7
370
     5
100
AcDbVertex
100
AcDb2dVertex
 10
5.476200103759766
 20
2.876199934217665
 30
0.0
  0
VERTEX
  5
A7
330
A5
100
AcDbEntity
  8
Layer 1
 62
     7
370
     5
100
AcDbVertex
100
AcDb2dVertex
 10
5.476200103759766
 20
3.126199934217665
 30
0.0
  0
SEQEND
  5
A8
330
A5
100
AcDbEntity
  8
Layer 1
 62
     7
370
     5
  0
POLYLINE
  5
A9
330
1F
100
AcDbEntity
  8
Layer 1
 62
     7
370
     5
100
AcDb2dPolyline
 66
     1
 10
0.0
 20
0.0
 30
0.0
  0
VERTEX
  5
AA
330
A9
100
AcDbEntity
  8
Layer 1
 62
     7
370
     5
100
AcDbVertex
100
AcDb2dVertex
 10
5.976200103759766
 20
2.876199934217665
 30
0.0
  0
VERTEX
  5
AB
330
A9
100
AcDbEntity
  8
Layer 1
 62
     7
370
     5
100
AcDbVertex
100
AcDb2dVertex
 10
5.476200103759766
 20
2.876199934217665
 30
0.0
  0
SEQEND
  5
AC
330
A9
100
AcDbEntity
  8
Layer 1
 62
     7
370
     5
  0
POLYLINE
  5
AD
330
1F
100
AcDbEntity
  8
Layer 1
 62
     7
370
     5
100
AcDb2dPolyline
 66
     1
 10
0.0
 20
0.0
 30
0.0
  0
VERTEX
  5
AE
330
AD
100
AcDbEntity
  8
Layer 1
 62
     7
370
     5
100
AcDbVertex
100
AcDb2dVertex
 10
5.476200103759766
 20
0.123799999554952
 30
0.0
  0
VERTEX
  5
AF
330
AD
100
AcDbEntity
  8
Layer 1
 62
     7
370
     5
100
AcDbVertex
100
AcDb2dVertex
 10
5.476200103759766
 20
0.3738000128004286
 30
0.0
  0
SEQEND
  5
B0
330
AD
100
AcDbEntity
  8
Layer 1
 62
     7
370
     5
  0
POLYLINE
  5
B1
330
1F
100
AcDbEntity
  8
Layer 1
 62
     7
370
     5
100
AcDb2dPolyline
 66
     1
 10
0.0
 20
0.0
 30
0.0
  0
VERTEX
  5
B2
330
B1
100
AcDbEntity
  8
Layer 1
 62
     7
370
     5
100
AcDbVertex
100
AcDb2dVertex
 10
5.476200103759766
 20
0.3738000128004286
 30
0.0
  0
VERTEX
  5
B3
330
B1
100
AcDbEntity
  8
Layer 1
 62
     7
370
     5
100
AcDbVertex
100
AcDb2dVertex
 10
5.976200103759766
 20
0.3738000128004286
 30
0.0
  0
SEQEND
  5
B4
330
B1
100
AcDbEntity
  8
Layer 1
 62
     7
370
     5
  0
POLYLINE
  5
B5
330
1F
100
AcDbEntity
  8
Layer 1
 62
     7
370
     5
100
AcDb2dPolyline
 66
     1
 10
0.0
 20
0.0
 30
0.0
  0
VERTEX
  5
B6
330
B5
100
AcDbEntity
  8
Layer 1
 62
     7
370
     5
100
AcDbVertex
100
AcDb2dVertex
 10
5.976200103759766
 20
0.8761999871995714
 30
0.0
  0
VERTEX
  5
B7
330
B5
100
AcDbEntity
  8
Layer 1
 62
     7
370
     5
100
AcDbVertex
100
AcDb2dVertex
 10
5.976200103759766
 20
1.373799959818522
 30
0.0
  0
SEQEND
  5
B8
330
B5
100
AcDbEntity
  8
Layer 1
 62
     7
370
     5
  0
POLYLINE
  5
B9
330
1F
100
AcDbEntity
  8
Layer 1
 62
     7
370
     5
100
AcDb2dPolyline
 66
     1
 10
0.0
 20
0.0
 30
0.0
  0
VERTEX
  5
BA
330
B9
100
AcDbEntity
  8
Layer 1
 62
     7
370
     5
100
AcDbVertex
100
AcDb2dVertex
 10
6.226200103759766
 20
0.8761999871995714
 30
0.0
  0
VERTEX
  5
BB
330
B9
100
AcDbEntity
  8
Layer 1
 62
     7
370
     5
100
AcDbVertex
100
AcDb2dVertex
 10
5.976200103759766
 20
0.8761999871995714
 30
0.0
  0
SEQEND
  5
BC
330
B9
100
AcDbEntity
  8
Layer 1
 62
     7
370
     5
  0
POLYLINE
  5
BD
330
1F
100
AcDbEntity
  8
Layer 1
 62
     7
370
     5
100
AcDb2dPolyline
 66
     1
 10
0.0
 20
0.0
 30
0.0
  0
VERTEX
  5
BE
330
BD
100
AcDbEntity
  8
Layer 1
 62
     7
370
     5
100
AcDbVertex
100
AcDb2dVertex
 10
5.976200103759766
 20
1.373799959818522
 30
0.0
  0
VERTEX
  5
BF
330
BD
100
AcDbEntity
  8
Layer 1
 62
     7
370
     5
100
AcDbVertex
100
AcDb2dVertex
 10
6.226200103759766
 20
1.373799959818522
 30
0.0
  0
SEQEND
  5
C0
330
BD
100
AcDbEntity
  8
Layer 1
 62
     7
370
     5
  0
POLYLINE
  5
C1
330
1F
100
AcDbEntity
  8
Layer 1
 62
     7
370
     5
100
AcDb2dPolyline
 66
     1
 10
0.0
 20
0.0
 30
0.0
  0
VERTEX
  5
C2
330
C1
100
AcDbEntity
  8
Layer 1
 62
     7
370
     5
100
AcDbVertex
100
AcDb2dVertex
 10
5.976200103759766
 20
1.876199934217665
 30
0.0
  0
VERTEX
  5
C3
330
C1
100
AcDbEntity
  8
Layer 1
 62
     7
370
     5
100
AcDbVertex
100
AcDb2dVertex
 10
5.976200103759766
 20
2.373800065782335
 30
0.0
  0
SEQEND
  5
C4
330
C1
100
AcDbEntity
  8
Layer 1
 62
     7
370
     5
  0
POLYLINE
  5
C5
330
1F
100
AcDbEntity
  8
Layer 1
 62
     7
370
     5
100
AcDb2dPolyline
 66
     1
 10
0.0
 20
0.0
 30
0.0
  0
VERTEX
  5
C6
330
C5
100
AcDbEntity
  8
Layer 1
 62
     7
370
     5
100
AcDbVertex
100
AcDb2dVertex
 10
6.226200103759766
 20
1.876199934217665
 30
0.0
  0
VERTEX
  5
C7
330
C5
100
AcDbEntity
  8
Layer 1
 62
     7
370
     5
100
AcDbVertex
100
AcDb2dVertex
 10
5.976200103759766
 20
1.876199934217665
 30
0.0
  0
SEQEND
  5
C8
330
C5
100
AcDbEntity
  8
Layer 1
 62
     7
370
     5
  0
POLYLINE
  5
C9
330
1F
100
AcDbEntity
  8
Layer 1
 62
     7
370
     5
100
AcDb2dPolyline
 66
     1
 10
0.0
 20
0.0
 30
0.0
  0
VERTEX
  5
CA
330
C9
100
AcDbEntity
  8
Layer 1
 62
     7
370
     5
100
AcDbVertex
100
AcDb2dVertex
 10
5.976200103759766
 20
2.373800065782335
 30
0.0
  0
VERTEX
  5
CB
330
C9
100
AcDbEntity
  8
Layer 1
 62
     7
370
     5
100
AcDbVertex
100
AcDb2dVertex
 10
6.226200103759766
 20
2.373800065782335
 30
0.0
  0
SEQEND
  5
CC
330
C9
100
AcDbEntity
  8
Layer 1
 62
     7
370
     5
  0
POLYLINE
  5
CD
330
1F
100
AcDbEntity
  8
Layer 1
 62
     7
370
     5
100
AcDb2dPolyline
 66
     1
 10
0.0
 20
0.0
 30
0.0
  0
VERTEX
  5
CE
330
CD
100
AcDbEntity
  8
Layer 1
 62
     7
370
     5
100
AcDbVertex
100
AcDb2dVertex
 10
6.226200103759766
 20
2.876199934217665
 30
0.0
  0
VERTEX
  5
CF
330
CD
100
AcDbEntity
  8
Layer 1
 62
     7
370
     5
100
AcDbVertex
100
AcDb2dVertex
 10
5.976200103759766
 20
2.876199934217665
 30
0.0
  0
SEQEND
  5
D0
330
CD
100
AcDbEntity
  8
Layer 1
 62
     7
370
     5
  0
POLYLINE
  5
D1
330
1F
100
AcDbEntity
  8
Layer 1
 62
     7
370
     5
100
AcDb2dPolyline
 66
     1
 10
0.0
 20
0.0
 30
0.0
  0
VERTEX
  5
D2
330
D1
100
AcDbEntity
  8
Layer 1
 62
     7
370
     5
100
AcDbVertex
100
AcDb2dVertex
 10
5.976200103759766
 20
0.3738000128004286
 30
0.0
  0
VERTEX
  5
D3
330
D1
100
AcDbEntity
  8
Layer 1
 62
     7
370
     5
100
AcDbVertex
100
AcDb2dVertex
 10
6.226200103759766
 20
0.3738000128004286
 30
0.0
  0
SEQEND
  5
D4
330
D1
100
AcDbEntity
  8
Layer 1
 62
     7
370
     5
  0
POLYLINE
  5
D5
330
1F
100
AcDbEntity
  8
Layer 1
 62
     7
370
     5
100
AcDb2dPolyline
 66
     1
 10
0.0
 20
0.0
 30
0.0
  0
VERTEX
  5
D6
330
D5
100
AcDbEntity
  8
Layer 1
 62
     7
370
     5
100
AcDbVertex
100
AcDb2dVertex
 10
6.226200103759766
 20
0.3738000128004286
 30
0.0
  0
VERTEX
  5
D7
330
D5
100
AcDbEntity
  8
Layer 1
 62
     7
370
     5
100
AcDbVertex
100
AcDb2dVertex
 10
6.226200103759766
 20
0.8761999871995714
 30
0.0
  0
SEQEND
  5
D8
330
D5
100
AcDbEntity
  8
Layer 1
 62
     7
370
     5
  0
POLYLINE
  5
D9
330
1F
100
AcDbEntity
  8
Layer 1
 62
     7
370
     5
100
AcDb2dPolyline
 66
     1
 10
0.0
 20
0.0
 30
0.0
  0
VERTEX
  5
DA
330
D9
100
AcDbEntity
  8
Layer 1
 62
     7
370
     5
100
AcDbVertex
100
AcDb2dVertex
 10
6.226200103759766
 20
1.373799959818522
 30
0.0
  0
VERTEX
  5
DB
330
D9
100
AcDbEntity
  8
Layer 1
 62
     7
370
     5
100
AcDbVertex
100
AcDb2dVertex
 10
6.226200103759766
 20
1.876199934217665
 30
0.0
  0
SEQEND
  5
DC
330
D9
100
AcDbEntity
  8
Layer 1
 62
     7
370
     5
  0
POLYLINE
  5
DD
330
1F
100
AcDbEntity
  8
Layer 1
 62
     7
370
     5
100
AcDb2dPolyline
 66
     1
 10
0.0
 20
0.0
 30
0.0
  0
VERTEX
  5
DE
330
DD
100
AcDbEntity
  8
Layer 1
 62
     7
370
     5
100
AcDbVertex
100
AcDb2dVertex
 10
6.226200103759766
 20
2.373800065782335
 30
0.0
  0
VERTEX
  5
DF
330
DD
100
AcDbEntity
  8
Layer 1
 62
     7
370
     5
100
AcDbVertex
100
AcDb2dVertex
 10
6.226200103759766
 20
2.876199934217665
 30
0.0
  0
SEQEND
  5
E0
330
DD
100
AcDbEntity
  8
Layer 1
 62
     7
370
     5
  0
POLYLINE
  5
E1
330
1F
100
AcDbEntity
  8
Layer 1
 62
     7
370
     5
100
AcDb2dPolyline
 66
     1
 10
0.0
 20
0.0
 30
0.0
  0
VERTEX
  5
E2
330
E1
100
AcDbEntity
  8
Layer 1
 62
     7
370
     5
100
AcDbVertex
100
AcDb2dVertex
 10
3.22380002339681
 20
3.47380002339681
 30
0.0
  0
VERTEX
  5
E3
330
E1
100
AcDbEntity
  8
Layer 1
 62
     7
370
     5
100
AcDbVertex
100
AcDb2dVertex
 10
3.22380002339681
 20
3.22380002339681
 30
0.0
  0
SEQEND
  5
E4
330
E1
100
AcDbEntity
  8
Layer 1
 62
     7
370
     5
  0
POLYLINE
  5
E5
330
1F
100
AcDbEntity
  8
Layer 1
 62
     7
370
     5
100
AcDb2dPolyline
 66
     1
 10
0.0
 20
0.0
 30
0.0
  0
VERTEX
  5
E6
330
E5
100
AcDbEntity
  8
Layer 1
 62
     7
370
     5
100
AcDbVertex
100
AcDb2dVertex
 10
3.22380002339681
 20
3.22380002339681
 30
0.0
  0
VERTEX
  5
E7
330
E5
100
AcDbEntity
  8
Layer 1
 62
     7
370
     5
100
AcDbVertex
100
AcDb2dVertex
 10
3.47380002339681
 20
3.22380002339681
 30
0.0
  0
SEQEND
  5
E8
330
E5
100
AcDbEntity
  8
Layer 1
 62
     7
370
     5
  0
POLYLINE
  5
E9
330
1F
100
AcDbEntity
  8
Layer 1
 62
     7
370
     5
100
AcDb2dPolyline
 66
     1
 10
0.0
 20
0.0
 30
0.0
  0
VERTEX
  5
EA
330
E9
100
AcDbEntity
  8
Layer 1
 62
     7
370
     5
100
AcDbVertex
100
AcDb2dVertex
 10
3.22380002339681
 20
3.976200103759766
 30
0.0
  0
VERTEX
  5
EB
330
E9
100
AcDbEntity
  8
Layer 1
 62
     7
370
     5
100
AcDbVertex
100
AcDb2dVertex
 10
3.22380002339681
 20
3.47380002339681
 30
0.0
  0
SEQEND
  5
EC
330
E9
100
AcDbEntity
  8
Layer 1
 62
     7
370
     5
  0
POLYLINE
  5
ED
330
1F
100
AcDbEntity
  8
Layer 1
 62
     7
370
     5
100
AcDb2dPolyline
 66
     1
 10
0.0
 20
0.0
 30
0.0
  0
VERTEX
  5
EE
330
ED
100
AcDbEntity
  8
Layer 1
 62
     7
370
     5
100
AcDbVertex
100
AcDb2dVertex
 10
3.47380002339681
 20
3.976200103759766
 30
0.0
  0
VERTEX
  5
EF
330
ED
100
AcDbEntity
  8
Layer 1
 62
     7
370
     5
100
AcDbVertex
100
AcDb2dVertex
 10
3.22380002339681
 20
3.976200103759766
 30
0.0
  0
SEQEND
  5
F0
330
ED
100
AcDbEntity
  8
Layer 1
 62
     7
370
     5
  0
POLYLINE
  5
F1
330
1F
100
AcDbEntity
  8
Layer 1
 62
     7
370
     5
100
AcDb2dPolyline
 66
     1
 10
0.0
 20
0.0
 30
0.0
  0
VERTEX
  5
F2
330
F1
100
AcDbEntity
  8
Layer 1
 62
     7
370
     5
100
AcDbVertex
100
AcDb2dVertex
 10
3.22380002339681
 20
4.976200103759766
 30
0.0
  0
VERTEX
  5
F3
330
F1
100
AcDbEntity
  8
Layer 1
 62
     7
370
     5
100
AcDbVertex
100
AcDb2dVertex
 10
3.22380002339681
 20
4.473799811469184
 30
0.0
  0
SEQEND
  5
F4
330
F1
100
AcDbEntity
  8
Layer 1
 62
     7
370
     5
  0
POLYLINE
  5
F5
330
1F
100
AcDbEntity
  8
Layer 1
 62
     7
370
     5
100
AcDb2dPolyline
 66
     1
 10
0.0
 20
0.0
 30
0.0
  0
VERTEX
  5
F6
330
F5
100
AcDbEntity
  8
Layer 1
 62
     7
370
     5
100
AcDbVertex
100
AcDb2dVertex
 10
3.22380002339681
 20
4.473799811469184
 30
0.0
  0
VERTEX
  5
F7
330
F5
100
AcDbEntity
  8
Layer 1
 62
     7
370
     5
100
AcDbVertex
100
AcDb2dVertex
 10
3.47380002339681
 20
4.473799811469184
 30
0.0
  0
SEQEND
  5
F8
330
F5
100
AcDbEntity
  8
Layer 1
 62
     7
370
     5
  0
POLYLINE
  5
F9
330
1F
100
AcDbEntity
  8
Layer 1
 62
     7
370
     5
100
AcDb2dPolyline
 66
     1
 10
0.0
 20
0.0
 30
0.0
  0
VERTEX
  5
FA
330
F9
100
AcDbEntity
  8
Layer 1
 62
     7
370
     5
100
AcDbVertex
100
AcDb2dVertex
 10
3.47380002339681
 20
4.976200103759766
 30
0.0
  0
VERTEX
  5
FB
330
F9
100
AcDbEntity
  8
Layer 1
 62
     7
370
     5
100
AcDbVertex
100
AcDb2dVertex
 10
3.22380002339681
 20
4.976200103759766
 30
0.0
  0
SEQEND
  5
FC
330
F9
100
AcDbEntity
  8
Layer 1
 62
     7
370
     5
  0
POLYLINE
  5
FD
330
1F
100
AcDbEntity
  8
Layer 1
 62
     7
370
     5
100
AcDb2dPolyline
 66
     1
 10
0.0
 20
0.0
 30
0.0
  0
VERTEX
  5
FE
330
FD
100
AcDbEntity
  8
Layer 1
 62
     7
370
     5
100
AcDbVertex
100
AcDb2dVertex
 10
3.22380002339681
 20
5.473799811469184
 30
0.0
  0
VERTEX
  5
FF
330
FD
100
AcDbEntity
  8
Layer 1
 62
     7
370
     5
100
AcDbVertex
100
AcDb2dVertex
 10
3.22380002339681
 20
5.976200103759766
 30
0.0
  0
SEQEND
  5
100
330
FD
100
AcDbEntity
  8
Layer 1
 62
     7
370
     5
  0
POLYLINE
  5
101
330
1F
100
AcDbEntity
  8
Layer 1
 62
     7
370
     5
100
AcDb2dPolyline
 66
     1
 10
0.0
 20
0.0
 30
0.0
  0
VERTEX
  5
102
330
101
100
AcDbEntity
  8
Layer 1
 62
     7
370
     5
100
AcDbVertex
100
AcDb2dVertex
 10
3.22380002339681
 20
5.473799811469184
 30
0.0
  0
VERTEX
  5
103
330
101
100
AcDbEntity
  8
Layer 1
 62
     7
370
     5
100
AcDbVertex
100
AcDb2dVertex
 10
3.47380002339681
 20
5.473799811469184
 30
0.0
  0
SEQEND
  5
104
330
101
100
AcDbEntity
  8
Layer 1
 62
     7
370
     5
  0
POLYLINE
  5
105
330
1F
100
AcDbEntity
  8
Layer 1
 62
     7
370
     5
100
AcDb2dPolyline
 66
     1
 10
0.0
 20
0.0
 30
0.0
  0
VERTEX
  5
106
330
105
100
AcDbEntity
  8
Layer 1
 62
     7
370
     5
100
AcDbVertex
100
AcDb2dVertex
 10
3.22380002339681
 20
5.976200103759766
 30
0.0
  0
VERTEX
  5
107
330
105
100
AcDbEntity
  8
Layer 1
 62
     7
370
     5
100
AcDbVertex
100
AcDb2dVertex
 10
3.22380002339681
 20
6.226200103759766
 30
0.0
  0
SEQEND
  5
108
330
105
100
AcDbEntity
  8
Layer 1
 62
     7
370
     5
  0
POLYLINE
  5
109
330
1F
100
AcDbEntity
  8
Layer 1
 62
     7
370
     5
100
AcDb2dPolyline
 66
     1
 10
0.0
 20
0.0
 30
0.0
  0
VERTEX
  5
10A
330
109
100
AcDbEntity
  8
Layer 1
 62
     7
370
     5
100
AcDbVertex
100
AcDb2dVertex
 10
3.22380002339681
 20
6.226200103759766
 30
0.0
  0
VERTEX
  5
10B
330
109
100
AcDbEntity
  8
Layer 1
 62
     7
370
     5
100
AcDbVertex
100
AcDb2dVertex
 10
3.47380002339681
 20
6.226200103759766
 30
0.0
  0
SEQEND
  5
10C
330
109
100
AcDbEntity
  8
Layer 1
 62
     7
370
     5
  0
POLYLINE
  5
10D
330
1F
100
AcDbEntity
  8
Layer 1
 62
     7
370
     5
100
AcDb2dPolyline
 66
     1
 10
0.0
 20
0.0
 30
0.0
  0
VERTEX
  5
10E
330
10D
100
AcDbEntity
  8
Layer 1
 62
     7
370
     5
100
AcDbVertex
100
AcDb2dVertex
 10
3.47380002339681
 20
3.22380002339681
 30
0.0
  0
VERTEX
  5
10F
330
10D
100
AcDbEntity
  8
Layer 1
 62
     7
370
     5
100
AcDbVertex
100
AcDb2dVertex
 10
3.976200103759766
 20
3.22380002339681
 30
0.0
  0
SEQEND
  5
110
330
10D
100
AcDbEntity
  8
Layer 1
 62
     7
370
     5
  0
POLYLINE
  5
111
330
1F
100
AcDbEntity
  8
Layer 1
 62
     7
370
     5
100
AcDb2dPolyline
 66
     1
 10
0.0
 20
0.0
 30
0.0
  0
VERTEX
  5
112
330
111
100
AcDbEntity
  8
Layer 1
 62
     7
370
     5
100
AcDbVertex
100
AcDb2dVertex
 10
3.47380002339681
 20
4.473799811469184
 30
0.0
  0
VERTEX
  5
113
330
111
100
AcDbEntity
  8
Layer 1
 62
     7
370
     5
100
AcDbVertex
100
AcDb2dVertex
 10
3.47380002339681
 20
3.976200103759766
 30
0.0
  0
SEQEND
  5
114
330
111
100
AcDbEntity
  8
Layer 1
 62
     7
370
     5
  0
POLYLINE
  5
115
330
1F
100
AcDbEntity
  8
Layer 1
 62
     7
370
     5
100
AcDb2dPolyline
 66
     1
 10
0.0
 20
0.0
 30
0.0
  0
VERTEX
  5
116
330
115
100
AcDbEntity
  8
Layer 1
 62
     7
370
     5
100
AcDbVertex
100
AcDb2dVertex
 10
3.47380002339681
 20
5.473799811469184
 30
0.0
  0
VERTEX
  5
117
330
115
100
AcDbEntity
  8
Layer 1
 62
     7
370
     5
100
AcDbVertex
100
AcDb2dVertex
 10
3.47380002339681
 20
4.976200103759766
 30
0.0
  0
SEQEND
  5
118
330
115
100
AcDbEntity
  8
Layer 1
 62
     7
370
     5
  0
POLYLINE
  5
119
330
1F
100
AcDbEntity
  8
Layer 1
 62
     7
370
     5
100
AcDb2dPolyline
 66
     1
 10
0.0
 20
0.0
 30
0.0
  0
VERTEX
  5
11A
330
119
100
AcDbEntity
  8
Layer 1
 62
     7
370
     5
100
AcDbVertex
100
AcDb2dVertex
 10
3.976200103759766
 20
6.226200103759766
 30
0.0
  0
VERTEX
  5
11B
330
119
100
AcDbEntity
  8
Layer 1
 62
     7
370
     5
100
AcDbVertex
100
AcDb2dVertex
 10
3.47380002339681
 20
6.226200103759766
 30
0.0
  0
SEQEND
  5
11C
330
119
100
AcDbEntity
  8
Layer 1
 62
     7
370
     5
  0
POLYLINE
  5
11D
330
1F
100
AcDbEntity
  8
Layer 1
 62
     7
370
     5
100
AcDb2dPolyline
 66
     1
 10
0.0
 20
0.0
 30
0.0
  0
VERTEX
  5
11E
330
11D
100
AcDbEntity
  8
Layer 1
 62
     7
370
     5
100
AcDbVertex
100
AcDb2dVertex
 10
3.976200103759766
 20
3.22380002339681
 30
0.0
  0
VERTEX
  5
11F
330
11D
100
AcDbEntity
  8
Layer 1
 62
     7
370
     5
100
AcDbVertex
100
AcDb2dVertex
 10
3.976200103759766
 20
3.47380002339681
 30
0.0
  0
SEQEND
  5
120
330
11D
100
AcDbEntity
  8
Layer 1
 62
     7
370
     5
  0
POLYLINE
  5
121
330
1F
100
AcDbEntity
  8
Layer 1
 62
     7
370
     5
100
AcDb2dPolyline
 66
     1
 10
0.0
 20
0.0
 30
0.0
  0
VERTEX
  5
122
330
121
100
AcDbEntity
  8
Layer 1
 62
     7
370
     5
100
AcDbVertex
100
AcDb2dVertex
 10
3.976200103759766
 20
3.47380002339681
 30
0.0
  0
VERTEX
  5
123
330
121
100
AcDbEntity
  8
Layer 1
 62
     7
370
     5
100
AcDbVertex
100
AcDb2dVertex
 10
4.473799811469184
 20
3.47380002339681
 30
0.0
  0
SEQEND
  5
124
330
121
100
AcDbEntity
  8
Layer 1
 62
     7
370
     5
  0
POLYLINE
  5
125
330
1F
100
AcDbEntity
  8
Layer 1
 62
     7
370
     5
100
AcDb2dPolyline
 66
     1
 10
0.0
 20
0.0
 30
0.0
  0
VERTEX
  5
126
330
125
100
AcDbEntity
  8
Layer 1
 62
     7
370
     5
100
AcDbVertex
100
AcDb2dVertex
 10
3.976200103759766
 20
5.976200103759766
 30
0.0
  0
VERTEX
  5
127
330
125
100
AcDbEntity
  8
Layer 1
 62
     7
370
     5
100
AcDbVertex
100
AcDb2dVertex
 10
3.976200103759766
 20
6.226200103759766
 30
0.0
  0
SEQEND
  5
128
330
125
100
AcDbEntity
  8
Layer 1
 62
     7
370
     5
  0
POLYLINE
  5
129
330
1F
100
AcDbEntity
  8
Layer 1
 62
     7
370
     5
100
AcDb2dPolyline
 66
     1
 10
0.0
 20
0.0
 30
0.0
  0
VERTEX
  5
12A
330
129
100
AcDbEntity
  8
Layer 1
 62
     7
370
     5
100
AcDbVertex
100
AcDb2dVertex
 10
4.473799811469184
 20
5.976200103759766
 30
0.0
  0
VERTEX
  5
12B
330
129
100
AcDbEntity
  8
Layer 1
 62
     7
370
     5
100
AcDbVertex
100
AcDb2dVertex
 10
3.976200103759766
 20
5.976200103759766
 30
0.0
  0
SEQEND
  5
12C
330
129
100
AcDbEntity
  8
Layer 1
 62
     7
370
     5
  0
POLYLINE
  5
12D
330
1F
100
AcDbEntity
  8
Layer 1
 62
     7
370
     5
100
AcDb2dPolyline
 66
     1
 10
0.0
 20
0.0
 30
0.0
  0
VERTEX
  5
12E
330
12D
100
AcDbEntity
  8
Layer 1
 62
     7
370
     5
100
AcDbVertex
100
AcDb2dVertex
 10
4.473799811469184
 20
3.47380002339681
 30
0.0
  0
VERTEX
  5
12F
330
12D
100
AcDbEntity
  8
Layer 1
 62
     7
370
     5
100
AcDbVertex
100
AcDb2dVertex
 10
4.473799811469184
 20
3.22380002339681
 30
0.0
  0
SEQEND
  5
130
330
12D
100
AcDbEntity
  8
Layer 1
 62
     7
370
     5
  0
POLYLINE
  5
131
330
1F
100
AcDbEntity
  8
Layer 1
 62
     7
370
     5
100
AcDb2dPolyline
 66
     1
 10
0.0
 20
0.0
 30
0.0
  0
VERTEX
  5
132
330
131
100
AcDbEntity
  8
Layer 1
 62
     7
370
     5
100
AcDbVertex
100
AcDb2dVertex
 10
4.473799811469184
 20
3.22380002339681
 30
0.0
  0
VERTEX
  5
133
330
131
100
AcDbEntity
  8
Layer 1
 62
     7
370
     5
100
AcDbVertex
100
AcDb2dVertex
 10
4.976200103759766
 20
3.22380002339681
 30
0.0
  0
SEQEND
  5
134
330
131
100
AcDbEntity
  8
Layer 1
 62
     7
370
     5
  0
POLYLINE
  5
135
330
1F
100
AcDbEntity
  8
Layer 1
 62
     7
370
     5
100
AcDb2dPolyline
 66
     1
 10
0.0
 20
0.0
 30
0.0
  0
VERTEX
  5
136
330
135
100
AcDbEntity
  8
Layer 1
 62
     7
370
     5
100
AcDbVertex
100
AcDb2dVertex
 10
4.473799811469184
 20
6.226200103759766
 30
0.0
  0
VERTEX
  5
137
330
135
100
AcDbEntity
  8
Layer 1
 62
     7
370
     5
100
AcDbVertex
100
AcDb2dVertex
 10
4.473799811469184
 20
5.976200103759766
 30
0.0
  0
SEQEND
  5
138
330
135
100
AcDbEntity
  8
Layer 1
 62
     7
370
     5
  0
POLYLINE
  5
139
330
1F
100
AcDbEntity
  8
Layer 1
 62
     7
370
     5
100
AcDb2dPolyline
 66
     1
 10
0.0
 20
0.0
 30
0.0
  0
VERTEX
  5
13A
330
139
100
AcDbEntity
  8
Layer 1
 62
     7
370
     5
100
AcDbVertex
100
AcDb2dVertex
 10
4.976200103759766
 20
6.226200103759766
 30
0.0
  0
VERTEX
  5
13B
330
139
100
AcDbEntity
  8
Layer 1
 62
     7
370
     5
100
AcDbVertex
100
AcDb2dVertex
 10
4.473799811469184
 20
6.226200103759766
 30
0.0
  0
SEQEND
  5
13C
330
139
100
AcDbEntity
  8
Layer 1
 62
     7
370
     5
  0
POLYLINE
  5
13D
330
1F
100
AcDbEntity
  8
Layer 1
 62
     7
370
     5
100
AcDb2dPolyline
 66
     1
 10
0.0
 20
0.0
 30
0.0
  0
VERTEX
  5
13E
330
13D
100
AcDbEntity
  8
Layer 1
 62
     7
370
     5
100
AcDbVertex
100
AcDb2dVertex
 10
4.976200103759766
 20
3.22380002339681
 30
0.0
  0
VERTEX
  5
13F
330
13D
100
AcDbEntity
  8
Layer 1
 62
     7
370
     5
100
AcDbVertex
100
AcDb2dVertex
 10
4.976200103759766
 20
3.47380002339681
 30
0.0
  0
SEQEND
  5
140
330
13D
100
AcDbEntity
  8
Layer 1
 62
     7
370
     5
  0
POLYLINE
  5
141
330
1F
100
AcDbEntity
  8
Layer 1
 62
     7
370
     5
100
AcDb2dPolyline
 66
     1
 10
0.0
 20
0.0
 30
0.0
  0
VERTEX
  5
142
330
141
100
AcDbEntity
  8
Layer 1
 62
     7
370
     5
100
AcDbVertex
100
AcDb2dVertex
 10
4.976200103759766
 20
3.47380002339681
 30
0.0
  0
VERTEX
  5
143
330
141
100
AcDbEntity
  8
Layer 1
 62
     7
370
     5
100
AcDbVertex
100
AcDb2dVertex
 10
5.473799811469184
 20
3.47380002339681
 30
0.0
  0
SEQEND
  5
144
330
141
100
AcDbEntity
  8
Layer 1
 62
     7
370
     5
  0
POLYLINE
  5
145
330
1F
100
AcDbEntity
  8
Layer 1
 62
     7
370
     5
100
AcDb2dPolyline
 66
     1
 10
0.0
 20
0.0
 30
0.0
  0
VERTEX
  5
146
330
145
100
AcDbEntity
  8
Layer 1
 62
     7
370
     5
100
AcDbVertex
100
AcDb2dVertex
 10
4.976200103759766
 20
5.976200103759766
 30
0.0
  0
VERTEX
  5
147
330
145
100
AcDbEntity
  8
Layer 1
 62
     7
370
     5
100
AcDbVertex
100
AcDb2dVertex
 10
4.976200103759766
 20
6.226200103759766
 30
0.0
  0
SEQEND
  5
148
330
145
100
AcDbEntity
  8
Layer 1
 62
     7
370
     5
  0
POLYLINE
  5
149
330
1F
100
AcDbEntity
  8
Layer 1
 62
     7
370
     5
100
AcDb2dPolyline
 66
     1
 10
0.0
 20
0.0
 30
0.0
  0
VERTEX
  5
14A
330
149
100
AcDbEntity
  8
Layer 1
 62
     7
370
     5
100
AcDbVertex
100
AcDb2dVertex
 10
5.473799811469184
 20
5.976200103759766
 30
0.0
  0
VERTEX
  5
14B
330
149
100
AcDbEntity
  8
Layer 1
 62
     7
370
     5
100
AcDbVertex
100
AcDb2dVertex
 10
4.976200103759766
 20
5.976200103759766
 30
0.0
  0
SEQEND
  5
14C
330
149
100
AcDbEntity
  8
Layer 1
 62
     7
370
     5
  0
POLYLINE
  5
14D
330
1F
100
AcDbEntity
  8
Layer 1
 62
     7
370
     5
100
AcDb2dPolyline
 66
     1
 10
0.0
 20
0.0
 30
0.0
  0
VERTEX
  5
14E
330
14D
100
AcDbEntity
  8
Layer 1
 62
     7
370
     5
100
AcDbVertex
100
AcDb2dVertex
 10
5.473799811469184
 20
3.47380002339681
 30
0.0
  0
VERTEX
  5
14F
330
14D
100
AcDbEntity
  8
Layer 1
 62
     7
370
     5
100
AcDbVertex
100
AcDb2dVertex
 10
5.473799811469184
 20
3.22380002339681
 30
0.0
  0
SEQEND
  5
150
330
14D
100
AcDbEntity
  8
Layer 1
 62
     7
370
     5
  0
POLYLINE
  5
151
330
1F
100
AcDbEntity
  8
Layer 1
 62
     7
370
     5
100
AcDb2dPolyline
 66
     1
 10
0.0
 20
0.0
 30
0.0
  0
VERTEX
  5
152
330
151
100
AcDbEntity
  8
Layer 1
 62
     7
370
     5
100
AcDbVertex
100
AcDb2dVertex
 10
5.473799811469184
 20
3.22380002339681
 30
0.0
  0
VERTEX
  5
153
330
151
100
AcDbEntity
  8
Layer 1
 62
     7
370
     5
100
AcDbVertex
100
AcDb2dVertex
 10
5.976200103759766
 20
3.22380002339681
 30
0.0
  0
SEQEND
  5
154
330
151
100
AcDbEntity
  8
Layer 1
 62
     7
370
     5
  0
POLYLINE
  5
155
330
1F
100
AcDbEntity
  8
Layer 1
 62
     7
370
     5
100
AcDb2dPolyline
 66
     1
 10
0.0
 20
0.0
 30
0.0
  0
VERTEX
  5
156
330
155
100
AcDbEntity
  8
Layer 1
 62
     7
370
     5
100
AcDbVertex
100
AcDb2dVertex
 10
5.473799811469184
 20
6.226200103759766
 30
0.0
  0
VERTEX
  5
157
330
155
100
AcDbEntity
  8
Layer 1
 62
     7
370
     5
100
AcDbVertex
100
AcDb2dVertex
 10
5.473799811469184
 20
5.976200103759766
 30
0.0
  0
SEQEND
  5
158
330
155
100
AcDbEntity
  8
Layer 1
 62
     7
370
     5
  0
POLYLINE
  5
159
330
1F
100
AcDbEntity
  8
Layer 1
 62
     7
370
     5
100
AcDb2dPolyline
 66
     1
 10
0.0
 20
0.0
 30
0.0
  0
VERTEX
  5
15A
330
159
100
AcDbEntity
  8
Layer 1
 62
     7
370
     5
100
AcDbVertex
100
AcDb2dVertex
 10
5.473799811469184
 20
6.226200103759766
 30
0.0
  0
VERTEX
  5
15B
330
159
100
AcDbEntity
  8
Layer 1
 62
     7
370
     5
100
AcDbVertex
100
AcDb2dVertex
 10
5.976200103759766
 20
6.226200103759766
 30
0.0
  0
SEQEND
  5
15C
330
159
100
AcDbEntity
  8
Layer 1
 62
     7
370
     5
  0
POLYLINE
  5
15D
330
1F
100
AcDbEntity
  8
Layer 1
 62
     7
370
     5
100
AcDb2dPolyline
 66
     1
 10
0.0
 20
0.0
 30
0.0
  0
VERTEX
  5
15E
330
15D
100
AcDbEntity
  8
Layer 1
 62
     7
370
     5
100
AcDbVertex
100
AcDb2dVertex
 10
6.226200103759766
 20
3.22380002339681
 30
0.0
  0
VERTEX
  5
15F
330
15D
100
AcDbEntity
  8
Layer 1
 62
     7
370
     5
100
AcDbVertex
100
AcDb2dVertex
 10
5.976200103759766
 20
3.22380002339681
 30
0.0
  0
SEQEND
  5
160
330
15D
100
AcDbEntity
  8
Layer 1
 62
     7
370
     5
  0
POLYLINE
  5
161
330
1F
100
AcDbEntity
  8
Layer 1
 62
     7
370
     5
100
AcDb2dPolyline
 66
     1
 10
0.0
 20
0.0
 30
0.0
  0
VERTEX
  5
162
330
161
100
AcDbEntity
  8
Layer 1
 62
     7
370
     5
100
AcDbVertex
100
AcDb2dVertex
 10
5.976200103759766
 20
3.976200103759766
 30
0.0
  0
VERTEX
  5
163
330
161
100
AcDbEntity
  8
Layer 1
 62
     7
370
     5
100
AcDbVertex
100
AcDb2dVertex
 10
5.976200103759766
 20
4.473799811469184
 30
0.0
  0
SEQEND
  5
164
330
161
100
AcDbEntity
  8
Layer 1
 62
     7
370
     5
  0
POLYLINE
  5
165
330
1F
100
AcDbEntity
  8
Layer 1
 62
     7
370
     5
100
AcDb2dPolyline
 66
     1
 10
0.0
 20
0.0
 30
0.0
  0
VERTEX
  5
166
330
165
100
AcDbEntity
  8
Layer 1
 62
     7
370
     5
100
AcDbVertex
100
AcDb2dVertex
 10
6.226200103759766
 20
3.976200103759766
 30
0.0
  0
VERTEX
  5
167
330
165
100
AcDbEntity
  8
Layer 1
 62
     7
370
     5
100
AcDbVertex
100
AcDb2dVertex
 10
5.976200103759766
 20
3.976200103759766
 30
0.0
  0
SEQEND
  5
168
330
165
100
AcDbEntity
  8
Layer 1
 62
     7
370
     5
  0
POLYLINE
  5
169
330
1F
100
AcDbEntity
  8
Layer 1
 62
     7
370
     5
100
AcDb2dPolyline
 66
     1
 10
0.0
 20
0.0
 30
0.0
  0
VERTEX
  5
16A
330
169
100
AcDbEntity
  8
Layer 1
 62
     7
370
     5
100
AcDbVertex
100
AcDb2dVertex
 10
5.976200103759766
 20
4.473799811469184
 30
0.0
  0
VERTEX
  5
16B
330
169
100
AcDbEntity
  8
Layer 1
 62
     7
370
     5
100
AcDbVertex
100
AcDb2dVertex
 10
6.226200103759766
 20
4.473799811469184
 30
0.0
  0
SEQEND
  5
16C
330
169
100
AcDbEntity
  8
Layer 1
 62
     7
370
     5
  0
POLYLINE
  5
16D
330
1F
100
AcDbEntity
  8
Layer 1
 62
     7
370
     5
100
AcDb2dPolyline
 66
     1
 10
0.0
 20
0.0
 30
0.0
  0
VERTEX
  5
16E
330
16D
100
AcDbEntity
  8
Layer 1
 62
     7
370
     5
100
AcDbVertex
100
AcDb2dVertex
 10
5.976200103759766
 20
4.976200103759766
 30
0.0
  0
VERTEX
  5
16F
330
16D
100
AcDbEntity
  8
Layer 1
 62
     7
370
     5
100
AcDbVertex
100
AcDb2dVertex
 10
5.976200103759766
 20
5.473799811469184
 30
0.0
  0
SEQEND
  5
170
330
16D
100
AcDbEntity
  8
Layer 1
 62
     7
370
     5
  0
POLYLINE
  5
171
330
1F
100
AcDbEntity
  8
Layer 1
 62
     7
370
     5
100
AcDb2dPolyline
 66
     1
 10
0.0
 20
0.0
 30
0.0
  0
VERTEX
  5
172
330
171
100
AcDbEntity
  8
Layer 1
 62
     7
370
     5
100
AcDbVertex
100
AcDb2dVertex
 10
6.226200103759766
 20
4.976200103759766
 30
0.0
  0
VERTEX
  5
173
330
171
100
AcDbEntity
  8
Layer 1
 62
     7
370
     5
100
AcDbVertex
100
AcDb2dVertex
 10
5.976200103759766
 20
4.976200103759766
 30
0.0
  0
SEQEND
  5
174
330
171
100
AcDbEntity
  8
Layer 1
 62
     7
370
     5
  0
POLYLINE
  5
175
330
1F
100
AcDbEntity
  8
Layer 1
 62
     7
370
     5
100
AcDb2dPolyline
 66
     1
 10
0.0
 20
0.0
 30
0.0
  0
VERTEX
  5
176
330
175
100
AcDbEntity
  8
Layer 1
 62
     7
370
     5
100
AcDbVertex
100
AcDb2dVertex
 10
5.976200103759766
 20
5.473799811469184
 30
0.0
  0
VERTEX
  5
177
330
175
100
AcDbEntity
  8
Layer 1
 62
     7
370
     5
100
AcDbVertex
100
AcDb2dVertex
 10
6.226200103759766
 20
5.473799811469184
 30
0.0
  0
SEQEND
  5
178
330
175
100
AcDbEntity
  8
Layer 1
 62
     7
370
     5
  0
POLYLINE
  5
179
330
1F
100
AcDbEntity
  8
Layer 1
 62
     7
370
     5
100
AcDb2dPolyline
 66
     1
 10
0.0
 20
0.0
 30
0.0
  0
VERTEX
  5
17A
330
179
100
AcDbEntity
  8
Layer 1
 62
     7
370
     5
100
AcDbVertex
100
AcDb2dVertex
 10
5.976200103759766
 20
6.226200103759766
 30
0.0
  0
VERTEX
  5
17B
330
179
100
AcDbEntity
  8
Layer 1
 62
     7
370
     5
100
AcDbVertex
100
AcDb2dVertex
 10
6.226200103759766
 20
6.226200103759766
 30
0.0
  0
SEQEND
  5
17C
330
179
100
AcDbEntity
  8
Layer 1
 62
     7
370
     5
  0
POLYLINE
  5
17D
330
1F
100
AcDbEntity
  8
Layer 1
 62
     7
370
     5
100
AcDb2dPolyline
 66
     1
 10
0.0
 20
0.0
 30
0.0
  0
VERTEX
  5
17E
330
17D
100
AcDbEntity
  8
Layer 1
 62
     7
370
     5
100
AcDbVertex
100
AcDb2dVertex
 10
6.226200103759766
 20
3.22380002339681
 30
0.0
  0
VERTEX
  5
17F
330
17D
100
AcDbEntity
  8
Layer 1
 62
     7
370
     5
100
AcDbVertex
100
AcDb2dVertex
 10
6.226200103759766
 20
3.47380002339681
 30
0.0
  0
SEQEND
  5
180
330
17D
100
AcDbEntity
  8
Layer 1
 62
     7
370
     5
  0
POLYLINE
  5
181
330
1F
100
AcDbEntity
  8
Layer 1
 62
     7
370
     5
100
AcDb2dPolyline
 66
     1
 10
0.0
 20
0.0
 30
0.0
  0
VERTEX
  5
182
330
181
100
AcDbEntity
  8
Layer 1
 62
     7
370
     5
100
AcDbVertex
100
AcDb2dVertex
 10
6.226200103759766
 20
3.47380002339681
 30
0.0
  0
VERTEX
  5
183
330
181
100
AcDbEntity
  8
Layer 1
 62
     7
370
     5
100
AcDbVertex
100
AcDb2dVertex
 10
6.226200103759766
 20
3.976200103759766
 30
0.0
  0
SEQEND
  5
184
330
181
100
AcDbEntity
  8
Layer 1
 62
     7
370
     5
  0
POLYLINE
  5
185
330
1F
100
AcDbEntity
  8
Layer 1
 62
     7
370
     5
100
AcDb2dPolyline
 66
     1
 10
0.0
 20
0.0
 30
0.0
  0
VERTEX
  5
186
330
185
100
AcDbEntity
  8
Layer 1
 62
     7
370
     5
100
AcDbVertex
100
AcDb2dVertex
 10
6.226200103759766
 20
4.473799811469184
 30
0.0
  0
VERTEX
  5
187
330
185
100
AcDbEntity
  8
Layer 1
 62
     7
370
     5
100
AcDbVertex
100
AcDb2dVertex
 10
6.226200103759766
 20
4.976200103759766
 30
0.0
  0
SEQEND
  5
188
330
185
100
AcDbEntity
  8
Layer 1
 62
     7
370
     5
  0
POLYLINE
  5
189
330
1F
100
AcDbEntity
  8
Layer 1
 62
     7
370
     5
100
AcDb2dPolyline
 66
     1
 10
0.0
 20
0.0
 30
0.0
  0
VERTEX
  5
18A
330
189
100
AcDbEntity
  8
Layer 1
 62
     7
370
     5
100
AcDbVertex
100
AcDb2dVertex
 10
6.226200103759766
 20
5.473799811469184
 30
0.0
  0
VERTEX
  5
18B
330
189
100
AcDbEntity
  8
Layer 1
 62
     7
370
     5
100
AcDbVertex
100
AcDb2dVertex
 10
6.226200103759766
 20
5.976200103759766
 30
0.0
  0
SEQEND
  5
18C
330
189
100
AcDbEntity
  8
Layer 1
 62
     7
370
     5
  0
POLYLINE
  5
18D
330
1F
100
AcDbEntity
  8
Layer 1
 62
     7
370
     5
100
AcDb2dPolyline
 66
     1
 10
0.0
 20
0.0
 30
0.0
  0
VERTEX
  5
18E
330
18D
100
AcDbEntity
  8
Layer 1
 62
     7
370
     5
100
AcDbVertex
100
AcDb2dVertex
 10
6.226200103759766
 20
5.976200103759766
 30
0.0
  0
VERTEX
  5
18F
330
18D
100
AcDbEntity
  8
Layer 1
 62
     7
370
     5
100
AcDbVertex
100
AcDb2dVertex
 10
6.226200103759766
 20
6.226200103759766
 30
0.0
  0
SEQEND
  5
190
330
18D
100
AcDbEntity
  8
Layer 1
 62
     7
370
     5
  0
POLYLINE
  5
191
330
1F
100
AcDbEntity
  8
Layer 1
 62
     7
370
     5
100
AcDb2dPolyline
 66
     1
 10
0.0
 20
0.0
 30
0.0
  0
VERTEX
  5
192
330
191
100
AcDbEntity
  8
Layer 1
 62
     7
370
     5
100
AcDbVertex
100
AcDb2dVertex
 10
3.22380002339681
 20
7.076199849446614
 30
0.0
  0
VERTEX
  5
193
330
191
100
AcDbEntity
  8
Layer 1
 62
     7
370
     5
100
AcDbVertex
100
AcDb2dVertex
 10
3.22380002339681
 20
6.573799981011284
 30
0.0
  0
SEQEND
  5
194
330
191
100
AcDbEntity
  8
Layer 1
 62
     7
370
     5
  0
POLYLINE
  5
195
330
1F
100
AcDbEntity
  8
Layer 1
 62
     7
370
     5
100
AcDb2dPolyline
 66
     1
 10
0.0
 20
0.0
 30
0.0
  0
VERTEX
  5
196
330
195
100
AcDbEntity
  8
Layer 1
 62
     7
370
     5
100
AcDbVertex
100
AcDb2dVertex
 10
3.22380002339681
 20
6.573799981011284
 30
0.0
  0
VERTEX
  5
197
330
195
100
AcDbEntity
  8
Layer 1
 62
     7
370
     5
100
AcDbVertex
100
AcDb2dVertex
 10
3.47380002339681
 20
6.573799981011284
 30
0.0
  0
SEQEND
  5
198
330
195
100
AcDbEntity
  8
Layer 1
 62
     7
370
     5
  0
POLYLINE
  5
199
330
1F
100
AcDbEntity
  8
Layer 1
 62
     7
370
     5
100
AcDb2dPolyline
 66
     1
 10
0.0
 20
0.0
 30
0.0
  0
VERTEX
  5
19A
330
199
100
AcDbEntity
  8
Layer 1
 62
     7
370
     5
100
AcDbVertex
100
AcDb2dVertex
 10
3.47380002339681
 20
7.076199849446614
 30
0.0
  0
VERTEX
  5
19B
330
199
100
AcDbEntity
  8
Layer 1
 62
     7
370
     5
100
AcDbVertex
100
AcDb2dVertex
 10
3.22380002339681
 20
7.076199849446614
 30
0.0
  0
SEQEND
  5
19C
330
199
100
AcDbEntity
  8
Layer 1
 62
     7
370
     5
  0
POLYLINE
  5
19D
330
1F
100
AcDbEntity
  8
Layer 1
 62
     7
370
     5
100
AcDb2dPolyline
 66
     1
 10
0.0
 20
0.0
 30
0.0
  0
VERTEX
  5
19E
330
19D
100
AcDbEntity
  8
Layer 1
 62
     7
370
     5
100
AcDbVertex
100
AcDb2dVertex
 10
3.22380002339681
 20
8.076199849446613
 30
0.0
  0
VERTEX
  5
19F
330
19D
100
AcDbEntity
  8
Layer 1
 62
     7
370
     5
100
AcDbVertex
100
AcDb2dVertex
 10
3.22380002339681
 20
7.573799981011284
 30
0.0
  0
SEQEND
  5
1A0
330
19D
100
AcDbEntity
  8
Layer 1
 62
     7
370
     5
  0
POLYLINE
  5
1A1
330
1F
100
AcDbEntity
  8
Layer 1
 62
     7
370
     5
100
AcDb2dPolyline
 66
     1
 10
0.0
 20
0.0
 30
0.0
  0
VERTEX
  5
1A2
330
1A1
100
AcDbEntity
  8
Layer 1
 62
     7
370
     5
100
AcDbVertex
100
AcDb2dVertex
 10
3.22380002339681
 20
7.573799981011284
 30
0.0
  0
VERTEX
  5
1A3
330
1A1
100
AcDbEntity
  8
Layer 1
 62
     7
370
     5
100
AcDbVertex
100
AcDb2dVertex
 10
3.47380002339681
 20
7.573799981011284
 30
0.0
  0
SEQEND
  5
1A4
330
1A1
100
AcDbEntity
  8
Layer 1
 62
     7
370
     5
  0
POLYLINE
  5
1A5
330
1F
100
AcDbEntity
  8
Layer 1
 62
     7
370
     5
100
AcDb2dPolyline
 66
     1
 10
0.0
 20
0.0
 30
0.0
  0
VERTEX
  5
1A6
330
1A5
100
AcDbEntity
  8
Layer 1
 62
     7
370
     5
100
AcDbVertex
100
AcDb2dVertex
 10
3.47380002339681
 20
8.076199849446613
 30
0.0
  0
VERTEX
  5
1A7
330
1A5
100
AcDbEntity
  8
Layer 1
 62
     7
370
     5
100
AcDbVertex
100
AcDb2dVertex
 10
3.22380002339681
 20
8.076199849446613
 30
0.0
  0
SEQEND
  5
1A8
330
1A5
100
AcDbEntity
  8
Layer 1
 62
     7
370
     5
  0
POLYLINE
  5
1A9
330
1F
100
AcDbEntity
  8
Layer 1
 62
     7
370
     5
100
AcDb2dPolyline
 66
     1
 10
0.0
 20
0.0
 30
0.0
  0
VERTEX
  5
1AA
330
1A9
100
AcDbEntity
  8
Layer 1
 62
     7
370
     5
100
AcDbVertex
100
AcDb2dVertex
 10
3.22380002339681
 20
9.076199849446613
 30
0.0
  0
VERTEX
  5
1AB
330
1A9
100
AcDbEntity
  8
Layer 1
 62
     7
370
     5
100
AcDbVertex
100
AcDb2dVertex
 10
3.22380002339681
 20
8.573799981011284
 30
0.0
  0
SEQEND
  5
1AC
330
1A9
100
AcDbEntity
  8
Layer 1
 62
     7
370
     5
  0
POLYLINE
  5
1AD
330
1F
100
AcDbEntity
  8
Layer 1
 62
     7
370
     5
100
AcDb2dPolyline
 66
     1
 10
0.0
 20
0.0
 30
0.0
  0
VERTEX
  5
1AE
330
1AD
100
AcDbEntity
  8
Layer 1
 62
     7
370
     5
100
AcDbVertex
100
AcDb2dVertex
 10
3.22380002339681
 20
8.573799981011284
 30
0.0
  0
VERTEX
  5
1AF
330
1AD
100
AcDbEntity
  8
Layer 1
 62
     7
370
     5
100
AcDbVertex
100
AcDb2dVertex
 10
3.47380002339681
 20
8.573799981011284
 30
0.0
  0
SEQEND
  5
1B0
330
1AD
100
AcDbEntity
  8
Layer 1
 62
     7
370
     5
  0
POLYLINE
  5
1B1
330
1F
100
AcDbEntity
  8
Layer 1
 62
     7
370
     5
100
AcDb2dPolyline
 66
     1
 10
0.0
 20
0.0
 30
0.0
  0
VERTEX
  5
1B2
330
1B1
100
AcDbEntity
  8
Layer 1
 62
     7
370
     5
100
AcDbVertex
100
AcDb2dVertex
 10
3.47380002339681
 20
9.076199849446613
 30
0.0
  0
VERTEX
  5
1B3
330
1B1
100
AcDbEntity
  8
Layer 1
 62
     7
370
     5
100
AcDbVertex
100
AcDb2dVertex
 10
3.22380002339681
 20
9.076199849446613
 30
0.0
  0
SEQEND
  5
1B4
330
1B1
100
AcDbEntity
  8
Layer 1
 62
     7
370
     5
  0
POLYLINE
  5
1B5
330
1F
100
AcDbEntity
  8
Layer 1
 62
     7
370
     5
100
AcDb2dPolyline
 66
     1
 10
0.0
 20
0.0
 30
0.0
  0
VERTEX
  5
1B6
330
1B5
100
AcDbEntity
  8
Layer 1
 62
     7
370
     5
100
AcDbVertex
100
AcDb2dVertex
 10
3.47380002339681
 20
6.573799981011284
 30
0.0
  0
VERTEX
  5
1B7
330
1B5
100
AcDbEntity
  8
Layer 1
 62
     7
370
     5
100
AcDbVertex
100
AcDb2dVertex
 10
3.973799811469184
 20
6.573799981011284
 30
0.0
  0
SEQEND
  5
1B8
330
1B5
100
AcDbEntity
  8
Layer 1
 62
     7
370
     5
  0
POLYLINE
  5
1B9
330
1F
100
AcDbEntity
  8
Layer 1
 62
     7
370
     5
100
AcDb2dPolyline
 66
     1
 10
0.0
 20
0.0
 30
0.0
  0
VERTEX
  5
1BA
330
1B9
100
AcDbEntity
  8
Layer 1
 62
     7
370
     5
100
AcDbVertex
100
AcDb2dVertex
 10
3.47380002339681
 20
7.573799981011284
 30
0.0
  0
VERTEX
  5
1BB
330
1B9
100
AcDbEntity
  8
Layer 1
 62
     7
370
     5
100
AcDbVertex
100
AcDb2dVertex
 10
3.47380002339681
 20
7.076199849446614
 30
0.0
  0
SEQEND
  5
1BC
330
1B9
100
AcDbEntity
  8
Layer 1
 62
     7
370
     5
  0
POLYLINE
  5
1BD
330
1F
100
AcDbEntity
  8
Layer 1
 62
     7
370
     5
100
AcDb2dPolyline
 66
     1
 10
0.0
 20
0.0
 30
0.0
  0
VERTEX
  5
1BE
330
1BD
100
AcDbEntity
  8
Layer 1
 62
     7
370
     5
100
AcDbVertex
100
AcDb2dVertex
 10
3.47380002339681
 20
8.573799981011284
 30
0.0
  0
VERTEX
  5
1BF
330
1BD
100
AcDbEntity
  8
Layer 1
 62
     7
370
     5
100
AcDbVertex
100
AcDb2dVertex
 10
3.47380002339681
 20
8.076199849446613
 30
0.0
  0
SEQEND
  5
1C0
330
1BD
100
AcDbEntity
  8
Layer 1
 62
     7
370
     5
  0
POLYLINE
  5
1C1
330
1F
100
AcDbEntity
  8
Layer 1
 62
     7
370
     5
100
AcDb2dPolyline
 66
     1
 10
0.0
 20
0.0
 30
0.0
  0
VERTEX
  5
1C2
330
1C1
100
AcDbEntity
  8
Layer 1
 62
     7
370
     5
100
AcDbVertex
100
AcDb2dVertex
 10
3.973799811469184
 20
9.076199849446613
 30
0.0
  0
VERTEX
  5
1C3
330
1C1
100
AcDbEntity
  8
Layer 1
 62
     7
370
     5
100
AcDbVertex
100
AcDb2dVertex
 10
3.47380002339681
 20
9.076199849446613
 30
0.0
  0
SEQEND
  5
1C4
330
1C1
100
AcDbEntity
  8
Layer 1
 62
     7
370
     5
  0
POLYLINE
  5
1C5
330
1F
100
AcDbEntity
  8
Layer 1
 62
     7
370
     5
100
AcDb2dPolyline
 66
     1
 10
0.0
 20
0.0
 30
0.0
  0
VERTEX
  5
1C6
330
1C5
100
AcDbEntity
  8
Layer 1
 62
     7
370
     5
100
AcDbVertex
100
AcDb2dVertex
 10
3.973799811469184
 20
6.573799981011284
 30
0.0
  0
VERTEX
  5
1C7
330
1C5
100
AcDbEntity
  8
Layer 1
 62
     7
370
     5
100
AcDbVertex
100
AcDb2dVertex
 10
3.973799811469184
 20
6.323799981011284
 30
0.0
  0
SEQEND
  5
1C8
330
1C5
100
AcDbEntity
  8
Layer 1
 62
     7
370
     5
  0
POLYLINE
  5
1C9
330
1F
100
AcDbEntity
  8
Layer 1
 62
     7
370
     5
100
AcDb2dPolyline
 66
     1
 10
0.0
 20
0.0
 30
0.0
  0
VERTEX
  5
1CA
330
1C9
100
AcDbEntity
  8
Layer 1
 62
     7
370
     5
100
AcDbVertex
100
AcDb2dVertex
 10
3.973799811469184
 20
6.323799981011284
 30
0.0
  0
VERTEX
  5
1CB
330
1C9
100
AcDbEntity
  8
Layer 1
 62
     7
370
     5
100
AcDbVertex
100
AcDb2dVertex
 10
4.476200103759766
 20
6.323799981011284
 30
0.0
  0
SEQEND
  5
1CC
330
1C9
100
AcDbEntity
  8
Layer 1
 62
     7
370
     5
  0
POLYLINE
  5
1CD
330
1F
100
AcDbEntity
  8
Layer 1
 62
     7
370
     5
100
AcDb2dPolyline
 66
     1
 10
0.0
 20
0.0
 30
0.0
  0
VERTEX
  5
1CE
330
1CD
100
AcDbEntity
  8
Layer 1
 62
     7
370
     5
100
AcDbVertex
100
AcDb2dVertex
 10
3.973799811469184
 20
9.326199849446613
 30
0.0
  0
VERTEX
  5
1CF
330
1CD
100
AcDbEntity
  8
Layer 1
 62
     7
370
     5
100
AcDbVertex
100
AcDb2dVertex
 10
3.973799811469184
 20
9.076199849446613
 30
0.0
  0
SEQEND
  5
1D0
330
1CD
100
AcDbEntity
  8
Layer 1
 62
     7
370
     5
  0
POLYLINE
  5
1D1
330
1F
100
AcDbEntity
  8
Layer 1
 62
     7
370
     5
100
AcDb2dPolyline
 66
     1
 10
0.0
 20
0.0
 30
0.0
  0
VERTEX
  5
1D2
330
1D1
100
AcDbEntity
  8
Layer 1
 62
     7
370
     5
100
AcDbVertex
100
AcDb2dVertex
 10
4.476200103759766
 20
9.326199849446613
 30
0.0
  0
VERTEX
  5
1D3
330
1D1
100
AcDbEntity
  8
Layer 1
 62
     7
370
     5
100
AcDbVertex
100
AcDb2dVertex
 10
3.973799811469184
 20
9.326199849446613
 30
0.0
  0
SEQEND
  5
1D4
330
1D1
100
AcDbEntity
  8
Layer 1
 62
     7
370
     5
  0
POLYLINE
  5
1D5
330
1F
100
AcDbEntity
  8
Layer 1
 62
     7
370
     5
100
AcDb2dPolyline
 66
     1
 10
0.0
 20
0.0
 30
0.0
  0
VERTEX
  5
1D6
330
1D5
100
AcDbEntity
  8
Layer 1
 62
     7
370
     5
100
AcDbVertex
100
AcDb2dVertex
 10
4.476200103759766
 20
6.323799981011284
 30
0.0
  0
VERTEX
  5
1D7
330
1D5
100
AcDbEntity
  8
Layer 1
 62
     7
370
     5
100
AcDbVertex
100
AcDb2dVertex
 10
4.476200103759766
 20
6.573799981011284
 30
0.0
  0
SEQEND
  5
1D8
330
1D5
100
AcDbEntity
  8
Layer 1
 62
     7
370
     5
  0
POLYLINE
  5
1D9
330
1F
100
AcDbEntity
  8
Layer 1
 62
     7
370
     5
100
AcDb2dPolyline
 66
     1
 10
0.0
 20
0.0
 30
0.0
  0
VERTEX
  5
1DA
330
1D9
100
AcDbEntity
  8
Layer 1
 62
     7
370
     5
100
AcDbVertex
100
AcDb2dVertex
 10
4.476200103759766
 20
6.573799981011284
 30
0.0
  0
VERTEX
  5
1DB
330
1D9
100
AcDbEntity
  8
Layer 1
 62
     7
370
     5
100
AcDbVertex
100
AcDb2dVertex
 10
4.973799811469184
 20
6.573799981011284
 30
0.0
  0
SEQEND
  5
1DC
330
1D9
100
AcDbEntity
  8
Layer 1
 62
     7
370
     5
  0
POLYLINE
  5
1DD
330
1F
100
AcDbEntity
  8
Layer 1
 62
     7
370
     5
100
AcDb2dPolyline
 66
     1
 10
0.0
 20
0.0
 30
0.0
  0
VERTEX
  5
1DE
330
1DD
100
AcDbEntity
  8
Layer 1
 62
     7
370
     5
100
AcDbVertex
100
AcDb2dVertex
 10
4.476200103759766
 20
9.076199849446613
 30
0.0
  0
VERTEX
  5
1DF
330
1DD
100
AcDbEntity
  8
Layer 1
 62
     7
370
     5
100
AcDbVertex
100
AcDb2dVertex
 10
4.476200103759766
 20
9.326199849446613
 30
0.0
  0
SEQEND
  5
1E0
330
1DD
100
AcDbEntity
  8
Layer 1
 62
     7
370
     5
  0
POLYLINE
  5
1E1
330
1F
100
AcDbEntity
  8
Layer 1
 62
     7
370
     5
100
AcDb2dPolyline
 66
     1
 10
0.0
 20
0.0
 30
0.0
  0
VERTEX
  5
1E2
330
1E1
100
AcDbEntity
  8
Layer 1
 62
     7
370
     5
100
AcDbVertex
100
AcDb2dVertex
 10
4.973799811469184
 20
9.076199849446613
 30
0.0
  0
VERTEX
  5
1E3
330
1E1
100
AcDbEntity
  8
Layer 1
 62
     7
370
     5
100
AcDbVertex
100
AcDb2dVertex
 10
4.476200103759766
 20
9.076199849446613
 30
0.0
  0
SEQEND
  5
1E4
330
1E1
100
AcDbEntity
  8
Layer 1
 62
     7
370
     5
  0
POLYLINE
  5
1E5
330
1F
100
AcDbEntity
  8
Layer 1
 62
     7
370
     5
100
AcDb2dPolyline
 66
     1
 10
0.0
 20
0.0
 30
0.0
  0
VERTEX
  5
1E6
330
1E5
100
AcDbEntity
  8
Layer 1
 62
     7
370
     5
100
AcDbVertex
100
AcDb2dVertex
 10
4.973799811469184
 20
9.326199849446613
 30
0.0
  0
VERTEX
  5
1E7
330
1E5
100
AcDbEntity
  8
Layer 1
 62
     7
370
     5
100
AcDbVertex
100
AcDb2dVertex
 10
4.973799811469184
 20
9.076199849446613
 30
0.0
  0
SEQEND
  5
1E8
330
1E5
100
AcDbEntity
  8
Layer 1
 62
     7
370
     5
  0
POLYLINE
  5
1E9
330
1F
100
AcDbEntity
  8
Layer 1
 62
     7
370
     5
100
AcDb2dPolyline
 66
     1
 10
0.0
 20
0.0
 30
0.0
  0
VERTEX
  5
1EA
330
1E9
100
AcDbEntity
  8
Layer 1
 62
     7
370
     5
100
AcDbVertex
100
AcDb2dVertex
 10
5.476200103759766
 20
9.326199849446613
 30
0.0
  0
VERTEX
  5
1EB
330
1E9
100
AcDbEntity
  8
Layer 1
 62
     7
370
     5
100
AcDbVertex
100
AcDb2dVertex
 10
4.973799811469184
 20
9.326199849446613
 30
0.0
  0
SEQEND
  5
1EC
330
1E9
100
AcDbEntity
  8
Layer 1
 62
     7
370
     5
  0
POLYLINE
  5
1ED
330
1F
100
AcDbEntity
  8
Layer 1
 62
     7
370
     5
100
AcDb2dPolyline
 66
     1
 10
0.0
 20
0.0
 30
0.0
  0
VERTEX
  5
1EE
330
1ED
100
AcDbEntity
  8
Layer 1
 62
     7
370
     5
100
AcDbVertex
100
AcDb2dVertex
 10
4.973799811469184
 20
6.573799981011284
 30
0.0
  0
VERTEX
  5
1EF
330
1ED
100
AcDbEntity
  8
Layer 1
 62
     7
370
     5
100
AcDbVertex
100
AcDb2dVertex
 10
4.973799811469184
 20
6.323799981011284
 30
0.0
  0
SEQEND
  5
1F0
330
1ED
100
AcDbEntity
  8
Layer 1
 62
     7
370
     5
  0
POLYLINE
  5
1F1
330
1F
100
AcDbEntity
  8
Layer 1
 62
     7
370
     5
100
AcDb2dPolyline
 66
     1
 10
0.0
 20
0.0
 30
0.0
  0
VERTEX
  5
1F2
330
1F1
100
AcDbEntity
  8
Layer 1
 62
     7
370
     5
100
AcDbVertex
100
AcDb2dVertex
 10
4.973799811469184
 20
6.323799981011284
 30
0.0
  0
VERTEX
  5
1F3
330
1F1
100
AcDbEntity
  8
Layer 1
 62
     7
370
     5
100
AcDbVertex
100
AcDb2dVertex
 10
5.476200103759766
 20
6.323799981011284
 30
0.0
  0
SEQEND
  5
1F4
330
1F1
100
AcDbEntity
  8
Layer 1
 62
     7
370
     5
  0
POLYLINE
  5
1F5
330
1F
100
AcDbEntity
  8
Layer 1
 62
     7
370
     5
100
AcDb2dPolyline
 66
     1
 10
0.0
 20
0.0
 30
0.0
  0
VERTEX
  5
1F6
330
1F5
100
AcDbEntity
  8
Layer 1
 62
     7
370
     5
100
AcDbVertex
100
AcDb2dVertex
 10
5.476200103759766
 20
9.076199849446613
 30
0.0
  0
VERTEX
  5
1F7
330
1F5
100
AcDbEntity
  8
Layer 1
 62
     7
370
     5
100
AcDbVertex
100
AcDb2dVertex
 10
5.476200103759766
 20
9.326199849446613
 30
0.0
  0
SEQEND
  5
1F8
330
1F5
100
AcDbEntity
  8
Layer 1
 62
     7
370
     5
  0
POLYLINE
  5
1F9
330
1F
100
AcDbEntity
  8
Layer 1
 62
     7
370
     5
100
AcDb2dPolyline
 66
     1
 10
0.0
 20
0.0
 30
0.0
  0
VERTEX
  5
1FA
330
1F9
100
AcDbEntity
  8
Layer 1
 62
     7
370
     5
100
AcDbVertex
100
AcDb2dVertex
 10
5.976200103759766
 20
9.076199849446613
 30
0.0
  0
VERTEX
  5
1FB
330
1F9
100
AcDbEntity
  8
Layer 1
 62
     7
370
     5
100
AcDbVertex
100
AcDb2dVertex
 10
5.476200103759766
 20
9.076199849446613
 30
0.0
  0
SEQEND
  5
1FC
330
1F9
100
AcDbEntity
  8
Layer 1
 62
     7
370
     5
  0
POLYLINE
  5
1FD
330
1F
100
AcDbEntity
  8
Layer 1
 62
     7
370
     5
100
AcDb2dPolyline
 66
     1
 10
0.0
 20
0.0
 30
0.0
  0
VERTEX
  5
1FE
330
1FD
100
AcDbEntity
  8
Layer 1
 62
     7
370
     5
100
AcDbVertex
100
AcDb2dVertex
 10
5.476200103759766
 20
6.323799981011284
 30
0.0
  0
VERTEX
  5
1FF
330
1FD
100
AcDbEntity
  8
Layer 1
 62
     7
370
     5
100
AcDbVertex
100
AcDb2dVertex
 10
5.476200103759766
 20
6.573799981011284
 30
0.0
  0
SEQEND
  5
200
330
1FD
100
AcDbEntity
  8
Layer 1
 62
     7
370
     5
  0
POLYLINE
  5
201
330
1F
100
AcDbEntity
  8
Layer 1
 62
     7
370
     5
100
AcDb2dPolyline
 66
     1
 10
0.0
 20
0.0
 30
0.0
  0
VERTEX
  5
202
330
201
100
AcDbEntity
  8
Layer 1
 62
     7
370
     5
100
AcDbVertex
100
AcDb2dVertex
 10
5.476200103759766
 20
6.573799981011284
 30
0.0
  0
VERTEX
  5
203
330
201
100
AcDbEntity
  8
Layer 1
 62
     7
370
     5
100
AcDbVertex
100
AcDb2dVertex
 10
5.976200103759766
 20
6.573799981011284
 30
0.0
  0
SEQEND
  5
204
330
201
100
AcDbEntity
  8
Layer 1
 62
     7
370
     5
  0
POLYLINE
  5
205
330
1F
100
AcDbEntity
  8
Layer 1
 62
     7
370
     5
100
AcDb2dPolyline
 66
     1
 10
0.0
 20
0.0
 30
0.0
  0
VERTEX
  5
206
330
205
100
AcDbEntity
  8
Layer 1
 62
     7
370
     5
100
AcDbVertex
100
AcDb2dVertex
 10
5.976200103759766
 20
7.076199849446614
 30
0.0
  0
VERTEX
  5
207
330
205
100
AcDbEntity
  8
Layer 1
 62
     7
370
     5
100
AcDbVertex
100
AcDb2dVertex
 10
5.976200103759766
 20
7.573799981011284
 30
0.0
  0
SEQEND
  5
208
330
205
100
AcDbEntity
  8
Layer 1
 62
     7
370
     5
  0
POLYLINE
  5
209
330
1F
100
AcDbEntity
  8
Layer 1
 62
     7
370
     5
100
AcDb2dPolyline
 66
     1
 10
0.0
 20
0.0
 30
0.0
  0
VERTEX
  5
20A
330
209
100
AcDbEntity
  8
Layer 1
 62
     7
370
     5
100
AcDbVertex
100
AcDb2dVertex
 10
6.226200103759766
 20
7.076199849446614
 30
0.0
  0
VERTEX
  5
20B
330
209
100
AcDbEntity
  8
Layer 1
 62
     7
370
     5
100
AcDbVertex
100
AcDb2dVertex
 10
5.976200103759766
 20
7.076199849446614
 30
0.0
  0
SEQEND
  5
20C
330
209
100
AcDbEntity
  8
Layer 1
 62
     7
370
     5
  0
POLYLINE
  5
20D
330
1F
100
AcDbEntity
  8
Layer 1
 62
     7
370
     5
100
AcDb2dPolyline
 66
     1
 10
0.0
 20
0.0
 30
0.0
  0
VERTEX
  5
20E
330
20D
100
AcDbEntity
  8
Layer 1
 62
     7
370
     5
100
AcDbVertex
100
AcDb2dVertex
 10
5.976200103759766
 20
7.573799981011284
 30
0.0
  0
VERTEX
  5
20F
330
20D
100
AcDbEntity
  8
Layer 1
 62
     7
370
     5
100
AcDbVertex
100
AcDb2dVertex
 10
6.226200103759766
 20
7.573799981011284
 30
0.0
  0
SEQEND
  5
210
330
20D
100
AcDbEntity
  8
Layer 1
 62
     7
370
     5
  0
POLYLINE
  5
211
330
1F
100
AcDbEntity
  8
Layer 1
 62
     7
370
     5
100
AcDb2dPolyline
 66
     1
 10
0.0
 20
0.0
 30
0.0
  0
VERTEX
  5
212
330
211
100
AcDbEntity
  8
Layer 1
 62
     7
370
     5
100
AcDbVertex
100
AcDb2dVertex
 10
5.976200103759766
 20
8.076199849446613
 30
0.0
  0
VERTEX
  5
213
330
211
100
AcDbEntity
  8
Layer 1
 62
     7
370
     5
100
AcDbVertex
100
AcDb2dVertex
 10
5.976200103759766
 20
8.573799981011284
 30
0.0
  0
SEQEND
  5
214
330
211
100
AcDbEntity
  8
Layer 1
 62
     7
370
     5
  0
POLYLINE
  5
215
330
1F
100
AcDbEntity
  8
Layer 1
 62
     7
370
     5
100
AcDb2dPolyline
 66
     1
 10
0.0
 20
0.0
 30
0.0
  0
VERTEX
  5
216
330
215
100
AcDbEntity
  8
Layer 1
 62
     7
370
     5
100
AcDbVertex
100
AcDb2dVertex
 10
6.226200103759766
 20
8.076199849446613
 30
0.0
  0
VERTEX
  5
217
330
215
100
AcDbEntity
  8
Layer 1
 62
     7
370
     5
100
AcDbVertex
100
AcDb2dVertex
 10
5.976200103759766
 20
8.076199849446613
 30
0.0
  0
SEQEND
  5
218
330
215
100
AcDbEntity
  8
Layer 1
 62
     7
370
     5
  0
POLYLINE
  5
219
330
1F
100
AcDbEntity
  8
Layer 1
 62
     7
370
     5
100
AcDb2dPolyline
 66
     1
 10
0.0
 20
0.0
 30
0.0
  0
VERTEX
  5
21A
330
219
100
AcDbEntity
  8
Layer 1
 62
     7
370
     5
100
AcDbVertex
100
AcDb2dVertex
 10
5.976200103759766
 20
8.573799981011284
 30
0.0
  0
VERTEX
  5
21B
330
219
100
AcDbEntity
  8
Layer 1
 62
     7
370
     5
100
AcDbVertex
100
AcDb2dVertex
 10
6.226200103759766
 20
8.573799981011284
 30
0.0
  0
SEQEND
  5
21C
330
219
100
AcDbEntity
  8
Layer 1
 62
     7
370
     5
  0
POLYLINE
  5
21D
330
1F
100
AcDbEntity
  8
Layer 1
 62
     7
370
     5
100
AcDb2dPolyline
 66
     1
 10
0.0
 20
0.0
 30
0.0
  0
VERTEX
  5
21E
330
21D
100
AcDbEntity
  8
Layer 1
 62
     7
370
     5
100
AcDbVertex
100
AcDb2dVertex
 10
6.226200103759766
 20
9.076199849446613
 30
0.0
  0
VERTEX
  5
21F
330
21D
100
AcDbEntity
  8
Layer 1
 62
     7
370
     5
100
AcDbVertex
100
AcDb2dVertex
 10
5.976200103759766
 20
9.076199849446613
 30
0.0
  0
SEQEND
  5
220
330
21D
100
AcDbEntity
  8
Layer 1
 62
     7
370
     5
  0
POLYLINE
  5
221
330
1F
100
AcDbEntity
  8
Layer 1
 62
     7
370
     5
100
AcDb2dPolyline
 66
     1
 10
0.0
 20
0.0
 30
0.0
  0
VERTEX
  5
222
330
221
100
AcDbEntity
  8
Layer 1
 62
     7
370
     5
100
AcDbVertex
100
AcDb2dVertex
 10
5.976200103759766
 20
6.573799981011284
 30
0.0
  0
VERTEX
  5
223
330
221
100
AcDbEntity
  8
Layer 1
 62
     7
370
     5
100
AcDbVertex
100
AcDb2dVertex
 10
6.226200103759766
 20
6.573799981011284
 30
0.0
  0
SEQEND
  5
224
330
221
100
AcDbEntity
  8
Layer 1
 62
     7
370
     5
  0
POLYLINE
  5
225
330
1F
100
AcDbEntity
  8
Layer 1
 62
     7
370
     5
100
AcDb2dPolyline
 66
     1
 10
0.0
 20
0.0
 30
0.0
  0
VERTEX
  5
226
330
225
100
AcDbEntity
  8
Layer 1
 62
     7
370
     5
100
AcDbVertex
100
AcDb2dVertex
 10
6.226200103759766
 20
6.573799981011284
 30
0.0
  0
VERTEX
  5
227
330
225
100
AcDbEntity
  8
Layer 1
 62
     7
370
     5
100
AcDbVertex
100
AcDb2dVertex
 10
6.226200103759766
 20
7.076199849446614
 30
0.0
  0
SEQEND
  5
228
330
225
100
AcDbEntity
  8
Layer 1
 62
     7
370
     5
  0
POLYLINE
  5
229
330
1F
100
AcDbEntity
  8
Layer 1
 62
     7
370
     5
100
AcDb2dPolyline
 66
     1
 10
0.0
 20
0.0
 30
0.0
  0
VERTEX
  5
22A
330
229
100
AcDbEntity
  8
Layer 1
 62
     7
370
     5
100
AcDbVertex
100
AcDb2dVertex
 10
6.226200103759766
 20
7.573799981011284
 30
0.0
  0
VERTEX
  5
22B
330
229
100
AcDbEntity
  8
Layer 1
 62
     7
370
     5
100
AcDbVertex
100
AcDb2dVertex
 10
6.226200103759766
 20
8.076199849446613
 30
0.0
  0
SEQEND
  5
22C
330
229
100
AcDbEntity
  8
Layer 1
 62
     7
370
     5
  0
POLYLINE
  5
22D
330
1F
100
AcDbEntity
  8
Layer 1
 62
     7
370
     5
100
AcDb2dPolyline
 66
     1
 10
0.0
 20
0.0
 30
0.0
  0
VERTEX
  5
22E
330
22D
100
AcDbEntity
  8
Layer 1
 62
     7
370
     5
100
AcDbVertex
100
AcDb2dVertex
 10
6.226200103759766
 20
8.573799981011284
 30
0.0
  0
VERTEX
  5
22F
330
22D
100
AcDbEntity
  8
Layer 1
 62
     7
370
     5
100
AcDbVertex
100
AcDb2dVertex
 10
6.226200103759766
 20
9.076199849446613
 30
0.0
  0
SEQEND
  5
230
330
22D
100
AcDbEntity
  8
Layer 1
 62
     7
370
     5
  0
POLYLINE
  5
231
330
1F
100
AcDbEntity
  8
Layer 1
 62
     7
370
     5
100
AcDb2dPolyline
 66
     1
 10
0.0
 20
0.0
 30
0.0
  0
VERTEX
  5
232
330
231
100
AcDbEntity
  8
Layer 1
 62
     7
370
     5
100
AcDbVertex
100
AcDb2dVertex
 10
3.22380002339681
 20
9.673800150553385
 30
0.0
  0
VERTEX
  5
233
330
231
100
AcDbEntity
  8
Layer 1
 62
     7
370
     5
100
AcDbVertex
100
AcDb2dVertex
 10
3.22380002339681
 20
9.423800150553385
 30
0.0
  0
SEQEND
  5
234
330
231
100
AcDbEntity
  8
Layer 1
 62
     7
370
     5
  0
POLYLINE
  5
235
330
1F
100
AcDbEntity
  8
Layer 1
 62
     7
370
     5
100
AcDb2dPolyline
 66
     1
 10
0.0
 20
0.0
 30
0.0
  0
VERTEX
  5
236
330
235
100
AcDbEntity
  8
Layer 1
 62
     7
370
     5
100
AcDbVertex
100
AcDb2dVertex
 10
3.22380002339681
 20
9.423800150553385
 30
0.0
  0
VERTEX
  5
237
330
235
100
AcDbEntity
  8
Layer 1
 62
     7
370
     5
100
AcDbVertex
100
AcDb2dVertex
 10
3.47380002339681
 20
9.423800150553385
 30
0.0
  0
SEQEND
  5
238
330
235
100
AcDbEntity
  8
Layer 1
 62
     7
370
     5
  0
POLYLINE
  5
239
330
1F
100
AcDbEntity
  8
Layer 1
 62
     7
370
     5
100
AcDb2dPolyline
 66
     1
 10
0.0
 20
0.0
 30
0.0
  0
VERTEX
  5
23A
330
239
100
AcDbEntity
  8
Layer 1
 62
     7
370
     5
100
AcDbVertex
100
AcDb2dVertex
 10
3.22380002339681
 20
10.17620001898871
 30
0.0
  0
VERTEX
  5
23B
330
239
100
AcDbEntity
  8
Layer 1
 62
     7
370
     5
100
AcDbVertex
100
AcDb2dVertex
 10
3.22380002339681
 20
9.673800150553385
 30
0.0
  0
SEQEND
  5
23C
330
239
100
AcDbEntity
  8
Layer 1
 62
     7
370
     5
  0
POLYLINE
  5
23D
330
1F
100
AcDbEntity
  8
Layer 1
 62
     7
370
     5
100
AcDb2dPolyline
 66
     1
 10
0.0
 20
0.0
 30
0.0
  0
VERTEX
  5
23E
330
23D
100
AcDbEntity
  8
Layer 1
 62
     7
370
     5
100
AcDbVertex
100
AcDb2dVertex
 10
3.47380002339681
 20
10.17620001898871
 30
0.0
  0
VERTEX
  5
23F
330
23D
100
AcDbEntity
  8
Layer 1
 62
     7
370
     5
100
AcDbVertex
100
AcDb2dVertex
 10
3.22380002339681
 20
10.17620001898871
 30
0.0
  0
SEQEND
  5
240
330
23D
100
AcDbEntity
  8
Layer 1
 62
     7
370
     5
  0
POLYLINE
  5
241
330
1F
100
AcDbEntity
  8
Layer 1
 62
     7
370
     5
100
AcDb2dPolyline
 66
     1
 10
0.0
 20
0.0
 30
0.0
  0
VERTEX
  5
242
330
241
100
AcDbEntity
  8
Layer 1
 62
     7
370
     5
100
AcDbVertex
100
AcDb2dVertex
 10
3.22380002339681
 20
11.17620001898871
 30
0.0
  0
VERTEX
  5
243
330
241
100
AcDbEntity
  8
Layer 1
 62
     7
370
     5
100
AcDbVertex
100
AcDb2dVertex
 10
3.22380002339681
 20
10.67380015055338
 30
0.0
  0
SEQEND
  5
244
330
241
100
AcDbEntity
  8
Layer 1
 62
     7
370
     5
  0
POLYLINE
  5
245
330
1F
100
AcDbEntity
  8
Layer 1
 62
     7
370
     5
100
AcDb2dPolyline
 66
     1
 10
0.0
 20
0.0
 30
0.0
  0
VERTEX
  5
246
330
245
100
AcDbEntity
  8
Layer 1
 62
     7
370
     5
100
AcDbVertex
100
AcDb2dVertex
 10
3.22380002339681
 20
10.67380015055338
 30
0.0
  0
VERTEX
  5
247
330
245
100
AcDbEntity
  8
Layer 1
 62
     7
370
     5
100
AcDbVertex
100
AcDb2dVertex
 10
3.47380002339681
 20
10.67380015055338
 30
0.0
  0
SEQEND
  5
248
330
245
100
AcDbEntity
  8
Layer 1
 62
     7
370
     5
  0
POLYLINE
  5
249
330
1F
100
AcDbEntity
  8
Layer 1
 62
     7
370
     5
100
AcDb2dPolyline
 66
     1
 10
0.0
 20
0.0
 30
0.0
  0
VERTEX
  5
24A
330
249
100
AcDbEntity
  8
Layer 1
 62
     7
370
     5
100
AcDbVertex
100
AcDb2dVertex
 10
3.47380002339681
 20
11.17620001898871
 30
0.0
  0
VERTEX
  5
24B
330
249
100
AcDbEntity
  8
Layer 1
 62
     7
370
     5
100
AcDbVertex
100
AcDb2dVertex
 10
3.22380002339681
 20
11.17620001898871
 30
0.0
  0
SEQEND
  5
24C
330
249
100
AcDbEntity
  8
Layer 1
 62
     7
370
     5
  0
POLYLINE
  5
24D
330
1F
100
AcDbEntity
  8
Layer 1
 62
     7
370
     5
100
AcDb2dPolyline
 66
     1
 10
0.0
 20
0.0
 30
0.0
  0
VERTEX
  5
24E
330
24D
100
AcDbEntity
  8
Layer 1
 62
     7
370
     5
100
AcDbVertex
100
AcDb2dVertex
 10
3.22380002339681
 20
11.67380015055338
 30
0.0
  0
VERTEX
  5
24F
330
24D
100
AcDbEntity
  8
Layer 1
 62
     7
370
     5
100
AcDbVertex
100
AcDb2dVertex
 10
3.22380002339681
 20
12.17620001898871
 30
0.0
  0
SEQEND
  5
250
330
24D
100
AcDbEntity
  8
Layer 1
 62
     7
370
     5
  0
POLYLINE
  5
251
330
1F
100
AcDbEntity
  8
Layer 1
 62
     7
370
     5
100
AcDb2dPolyline
 66
     1
 10
0.0
 20
0.0
 30
0.0
  0
VERTEX
  5
252
330
251
100
AcDbEntity
  8
Layer 1
 62
     7
370
     5
100
AcDbVertex
100
AcDb2dVertex
 10
3.22380002339681
 20
11.67380015055338
 30
0.0
  0
VERTEX
  5
253
330
251
100
AcDbEntity
  8
Layer 1
 62
     7
370
     5
100
AcDbVertex
100
AcDb2dVertex
 10
3.47380002339681
 20
11.67380015055338
 30
0.0
  0
SEQEND
  5
254
330
251
100
AcDbEntity
  8
Layer 1
 62
     7
370
     5
  0
POLYLINE
  5
255
330
1F
100
AcDbEntity
  8
Layer 1
 62
     7
370
     5
100
AcDb2dPolyline
 66
     1
 10
0.0
 20
0.0
 30
0.0
  0
VERTEX
  5
256
330
255
100
AcDbEntity
  8
Layer 1
 62
     7
370
     5
100
AcDbVertex
100
AcDb2dVertex
 10
3.22380002339681
 20
12.17620001898871
 30
0.0
  0
VERTEX
  5
257
330
255
100
AcDbEntity
  8
Layer 1
 62
     7
370
     5
100
AcDbVertex
100
AcDb2dVertex
 10
3.22380002339681
 20
12.42620001898871
 30
0.0
  0
SEQEND
  5
258
330
255
100
AcDbEntity
  8
Layer 1
 62
     7
370
     5
  0
POLYLINE
  5
259
330
1F
100
AcDbEntity
  8
Layer 1
 62
     7
370
     5
100
AcDb2dPolyline
 66
     1
 10
0.0
 20
0.0
 30
0.0
  0
VERTEX
  5
25A
330
259
100
AcDbEntity
  8
Layer 1
 62
     7
370
     5
100
AcDbVertex
100
AcDb2dVertex
 10
3.22380002339681
 20
12.42620001898871
 30
0.0
  0
VERTEX
  5
25B
330
259
100
AcDbEntity
  8
Layer 1
 62
     7
370
     5
100
AcDbVertex
100
AcDb2dVertex
 10
3.47380002339681
 20
12.42620001898871
 30
0.0
  0
SEQEND
  5
25C
330
259
100
AcDbEntity
  8
Layer 1
 62
     7
370
     5
  0
POLYLINE
  5
25D
330
1F
100
AcDbEntity
  8
Layer 1
 62
     7
370
     5
100
AcDb2dPolyline
 66
     1
 10
0.0
 20
0.0
 30
0.0
  0
VERTEX
  5
25E
330
25D
100
AcDbEntity
  8
Layer 1
 62
     7
370
     5
100
AcDbVertex
100
AcDb2dVertex
 10
3.47380002339681
 20
9.423800150553385
 30
0.0
  0
VERTEX
  5
25F
330
25D
100
AcDbEntity
  8
Layer 1
 62
     7
370
     5
100
AcDbVertex
100
AcDb2dVertex
 10
3.976200103759766
 20
9.423800150553385
 30
0.0
  0
SEQEND
  5
260
330
25D
100
AcDbEntity
  8
Layer 1
 62
     7
370
     5
  0
POLYLINE
  5
261
330
1F
100
AcDbEntity
  8
Layer 1
 62
     7
370
     5
100
AcDb2dPolyline
 66
     1
 10
0.0
 20
0.0
 30
0.0
  0
VERTEX
  5
262
330
261
100
AcDbEntity
  8
Layer 1
 62
     7
370
     5
100
AcDbVertex
100
AcDb2dVertex
 10
3.47380002339681
 20
10.67380015055338
 30
0.0
  0
VERTEX
  5
263
330
261
100
AcDbEntity
  8
Layer 1
 62
     7
370
     5
100
AcDbVertex
100
AcDb2dVertex
 10
3.47380002339681
 20
10.17620001898871
 30
0.0
  0
SEQEND
  5
264
330
261
100
AcDbEntity
  8
Layer 1
 62
     7
370
     5
  0
POLYLINE
  5
265
330
1F
100
AcDbEntity
  8
Layer 1
 62
     7
370
     5
100
AcDb2dPolyline
 66
     1
 10
0.0
 20
0.0
 30
0.0
  0
VERTEX
  5
266
330
265
100
AcDbEntity
  8
Layer 1
 62
     7
370
     5
100
AcDbVertex
100
AcDb2dVertex
 10
3.47380002339681
 20
11.67380015055338
 30
0.0
  0
VERTEX
  5
267
330
265
100
AcDbEntity
  8
Layer 1
 62
     7
370
     5
100
AcDbVertex
100
AcDb2dVertex
 10
3.47380002339681
 20
11.17620001898871
 30
0.0
  0
SEQEND
  5
268
330
265
100
AcDbEntity
  8
Layer 1
 62
     7
370
     5
  0
POLYLINE
  5
269
330
1F
100
AcDbEntity
  8
Layer 1
 62
     7
370
     5
100
AcDb2dPolyline
 66
     1
 10
0.0
 20
0.0
 30
0.0
  0
VERTEX
  5
26A
330
269
100
AcDbEntity
  8
Layer 1
 62
     7
370
     5
100
AcDbVertex
100
AcDb2dVertex
 10
3.976200103759766
 20
12.42620001898871
 30
0.0
  0
VERTEX
  5
26B
330
269
100
AcDbEntity
  8
Layer 1
 62
     7
370
     5
100
AcDbVertex
100
AcDb2dVertex
 10
3.47380002339681
 20
12.42620001898871
 30
0.0
  0
SEQEND
  5
26C
330
269
100
AcDbEntity
  8
Layer 1
 62
     7
370
     5
  0
POLYLINE
  5
26D
330
1F
100
AcDbEntity
  8
Layer 1
 62
     7
370
     5
100
AcDb2dPolyline
 66
     1
 10
0.0
 20
0.0
 30
0.0
  0
VERTEX
  5
26E
330
26D
100
AcDbEntity
  8
Layer 1
 62
     7
370
     5
100
AcDbVertex
100
AcDb2dVertex
 10
3.976200103759766
 20
9.423800150553385
 30
0.0
  0
VERTEX
  5
26F
330
26D
100
AcDbEntity
  8
Layer 1
 62
     7
370
     5
100
AcDbVertex
100
AcDb2dVertex
 10
3.976200103759766
 20
9.673800150553385
 30
0.0
  0
SEQEND
  5
270
330
26D
100
AcDbEntity
  8
Layer 1
 62
     7
370
     5
  0
POLYLINE
  5
271
330
1F
100
AcDbEntity
  8
Layer 1
 62
     7
370
     5
100
AcDb2dPolyline
 66
     1
 10
0.0
 20
0.0
 30
0.0
  0
VERTEX
  5
272
330
271
100
AcDbEntity
  8
Layer 1
 62
     7
370
     5
100
AcDbVertex
100
AcDb2dVertex
 10
3.976200103759766
 20
9.673800150553385
 30
0.0
  0
VERTEX
  5
273
330
271
100
AcDbEntity
  8
Layer 1
 62
     7
370
     5
100
AcDbVertex
100
AcDb2dVertex
 10
4.473799811469184
 20
9.673800150553385
 30
0.0
  0
SEQEND
  5
274
330
271
100
AcDbEntity
  8
Layer 1
 62
     7
370
     5
  0
POLYLINE
  5
275
330
1F
100
AcDbEntity
  8
Layer 1
 62
     7
370
     5
100
AcDb2dPolyline
 66
     1
 10
0.0
 20
0.0
 30
0.0
  0
VERTEX
  5
276
330
275
100
AcDbEntity
  8
Layer 1
 62
     7
370
     5
100
AcDbVertex
100
AcDb2dVertex
 10
3.976200103759766
 20
12.17620001898871
 30
0.0
  0
VERTEX
  5
277
330
275
100
AcDbEntity
  8
Layer 1
 62
     7
370
     5
100
AcDbVertex
100
AcDb2dVertex
 10
3.976200103759766
 20
12.42620001898871
 30
0.0
  0
SEQEND
  5
278
330
275
100
AcDbEntity
  8
Layer 1
 62
     7
370
     5
  0
POLYLINE
  5
279
330
1F
100
AcDbEntity
  8
Layer 1
 62
     7
370
     5
100
AcDb2dPolyline
 66
     1
 10
0.0
 20
0.0
 30
0.0
  0
VERTEX
  5
27A
330
279
100
AcDbEntity
  8
Layer 1
 62
     7
370
     5
100
AcDbVertex
100
AcDb2dVertex
 10
4.473799811469184
 20
12.17620001898871
 30
0.0
  0
VERTEX
  5
27B
330
279
100
AcDbEntity
  8
Layer 1
 62
     7
370
     5
100
AcDbVertex
100
AcDb2dVertex
 10
3.976200103759766
 20
12.17620001898871
 30
0.0
  0
SEQEND
  5
27C
330
279
100
AcDbEntity
  8
Layer 1
 62
     7
370
     5
  0
POLYLINE
  5
27D
330
1F
100
AcDbEntity
  8
Layer 1
 62
     7
370
     5
100
AcDb2dPolyline
 66
     1
 10
0.0
 20
0.0
 30
0.0
  0
VERTEX
  5
27E
330
27D
100
AcDbEntity
  8
Layer 1
 62
     7
370
     5
100
AcDbVertex
100
AcDb2dVertex
 10
4.473799811469184
 20
9.673800150553385
 30
0.0
  0
VERTEX
  5
27F
330
27D
100
AcDbEntity
  8
Layer 1
 62
     7
370
     5
100
AcDbVertex
100
AcDb2dVertex
 10
4.473799811469184
 20
9.423800150553385
 30
0.0
  0
SEQEND
  5
280
330
27D
100
AcDbEntity
  8
Layer 1
 62
     7
370
     5
  0
POLYLINE
  5
281
330
1F
100
AcDbEntity
  8
Layer 1
 62
     7
370
     5
100
AcDb2dPolyline
 66
     1
 10
0.0
 20
0.0
 30
0.0
  0
VERTEX
  5
282
330
281
100
AcDbEntity
  8
Layer 1
 62
     7
370
     5
100
AcDbVertex
100
AcDb2dVertex
 10
4.473799811469184
 20
9.423800150553385
 30
0.0
  0
VERTEX
  5
283
330
281
100
AcDbEntity
  8
Layer 1
 62
     7
370
     5
100
AcDbVertex
100
AcDb2dVertex
 10
4.976200103759766
 20
9.423800150553385
 30
0.0
  0
SEQEND
  5
284
330
281
100
AcDbEntity
  8
Layer 1
 62
     7
370
     5
  0
POLYLINE
  5
285
330
1F
100
AcDbEntity
  8
Layer 1
 62
     7
370
     5
100
AcDb2dPolyline
 66
     1
 10
0.0
 20
0.0
 30
0.0
  0
VERTEX
  5
286
330
285
100
AcDbEntity
  8
Layer 1
 62
     7
370
     5
100
AcDbVertex
100
AcDb2dVertex
 10
4.473799811469184
 20
12.42620001898871
 30
0.0
  0
VERTEX
  5
287
330
285
100
AcDbEntity
  8
Layer 1
 62
     7
370
     5
100
AcDbVertex
100
AcDb2dVertex
 10
4.473799811469184
 20
12.17620001898871
 30
0.0
  0
SEQEND
  5
288
330
285
100
AcDbEntity
  8
Layer 1
 62
     7
370
     5
  0
POLYLINE
  5
289
330
1F
100
AcDbEntity
  8
Layer 1
 62
     7
370
     5
100
AcDb2dPolyline
 66
     1
 10
0.0
 20
0.0
 30
0.0
  0
VERTEX
  5
28A
330
289
100
AcDbEntity
  8
Layer 1
 62
     7
370
     5
100
AcDbVertex
100
AcDb2dVertex
 10
4.976200103759766
 20
12.42620001898871
 30
0.0
  0
VERTEX
  5
28B
330
289
100
AcDbEntity
  8
Layer 1
 62
     7
370
     5
100
AcDbVertex
100
AcDb2dVertex
 10
4.473799811469184
 20
12.42620001898871
 30
0.0
  0
SEQEND
  5
28C
330
289
100
AcDbEntity
  8
Layer 1
 62
     7
370
     5
  0
POLYLINE
  5
28D
330
1F
100
AcDbEntity
  8
Layer 1
 62
     7
370
     5
100
AcDb2dPolyline
 66
     1
 10
0.0
 20
0.0
 30
0.0
  0
VERTEX
  5
28E
330
28D
100
AcDbEntity
  8
Layer 1
 62
     7
370
     5
100
AcDbVertex
100
AcDb2dVertex
 10
4.976200103759766
 20
9.423800150553385
 30
0.0
  0
VERTEX
  5
28F
330
28D
100
AcDbEntity
  8
Layer 1
 62
     7
370
     5
100
AcDbVertex
100
AcDb2dVertex
 10
4.976200103759766
 20
9.673800150553385
 30
0.0
  0
SEQEND
  5
290
330
28D
100
AcDbEntity
  8
Layer 1
 62
     7
370
     5
  0
POLYLINE
  5
291
330
1F
100
AcDbEntity
  8
Layer 1
 62
     7
370
     5
100
AcDb2dPolyline
 66
     1
 10
0.0
 20
0.0
 30
0.0
  0
VERTEX
  5
292
330
291
100
AcDbEntity
  8
Layer 1
 62
     7
370
     5
100
AcDbVertex
100
AcDb2dVertex
 10
4.976200103759766
 20
9.673800150553385
 30
0.0
  0
VERTEX
  5
293
330
291
100
AcDbEntity
  8
Layer 1
 62
     7
370
     5
100
AcDbVertex
100
AcDb2dVertex
 10
5.473799811469184
 20
9.673800150553385
 30
0.0
  0
SEQEND
  5
294
330
291
100
AcDbEntity
  8
Layer 1
 62
     7
370
     5
  0
POLYLINE
  5
295
330
1F
100
AcDbEntity
  8
Layer 1
 62
     7
370
     5
100
AcDb2dPolyline
 66
     1
 10
0.0
 20
0.0
 30
0.0
  0
VERTEX
  5
296
330
295
100
AcDbEntity
  8
Layer 1
 62
     7
370
     5
100
AcDbVertex
100
AcDb2dVertex
 10
4.976200103759766
 20
12.17620001898871
 30
0.0
  0
VERTEX
  5
297
330
295
100
AcDbEntity
  8
Layer 1
 62
     7
370
     5
100
AcDbVertex
100
AcDb2dVertex
 10
4.976200103759766
 20
12.42620001898871
 30
0.0
  0
SEQEND
  5
298
330
295
100
AcDbEntity
  8
Layer 1
 62
     7
370
     5
  0
POLYLINE
  5
299
330
1F
100
AcDbEntity
  8
Layer 1
 62
     7
370
     5
100
AcDb2dPolyline
 66
     1
 10
0.0
 20
0.0
 30
0.0
  0
VERTEX
  5
29A
330
299
100
AcDbEntity
  8
Layer 1
 62
     7
370
     5
100
AcDbVertex
100
AcDb2dVertex
 10
5.473799811469184
 20
12.17620001898871
 30
0.0
  0
VERTEX
  5
29B
330
299
100
AcDbEntity
  8
Layer 1
 62
     7
370
     5
100
AcDbVertex
100
AcDb2dVertex
 10
4.976200103759766
 20
12.17620001898871
 30
0.0
  0
SEQEND
  5
29C
330
299
100
AcDbEntity
  8
Layer 1
 62
     7
370
     5
  0
POLYLINE
  5
29D
330
1F
100
AcDbEntity
  8
Layer 1
 62
     7
370
     5
100
AcDb2dPolyline
 66
     1
 10
0.0
 20
0.0
 30
0.0
  0
VERTEX
  5
29E
330
29D
100
AcDbEntity
  8
Layer 1
 62
     7
370
     5
100
AcDbVertex
100
AcDb2dVertex
 10
5.473799811469184
 20
9.673800150553385
 30
0.0
  0
VERTEX
  5
29F
330
29D
100
AcDbEntity
  8
Layer 1
 62
     7
370
     5
100
AcDbVertex
100
AcDb2dVertex
 10
5.473799811469184
 20
9.423800150553385
 30
0.0
  0
SEQEND
  5
2A0
330
29D
100
AcDbEntity
  8
Layer 1
 62
     7
370
     5
  0
POLYLINE
  5
2A1
330
1F
100
AcDbEntity
  8
Layer 1
 62
     7
370
     5
100
AcDb2dPolyline
 66
     1
 10
0.0
 20
0.0
 30
0.0
  0
VERTEX
  5
2A2
330
2A1
100
AcDbEntity
  8
Layer 1
 62
     7
370
     5
100
AcDbVertex
100
AcDb2dVertex
 10
5.473799811469184
 20
9.423800150553385
 30
0.0
  0
VERTEX
  5
2A3
330
2A1
100
AcDbEntity
  8
Layer 1
 62
     7
370
     5
100
AcDbVertex
100
AcDb2dVertex
 10
5.976200103759766
 20
9.423800150553385
 30
0.0
  0
SEQEND
  5
2A4
330
2A1
100
AcDbEntity
  8
Layer 1
 62
     7
370
     5
  0
POLYLINE
  5
2A5
330
1F
100
AcDbEntity
  8
Layer 1
 62
     7
370
     5
100
AcDb2dPolyline
 66
     1
 10
0.0
 20
0.0
 30
0.0
  0
VERTEX
  5
2A6
330
2A5
100
AcDbEntity
  8
Layer 1
 62
     7
370
     5
100
AcDbVertex
100
AcDb2dVertex
 10
5.473799811469184
 20
12.42620001898871
 30
0.0
  0
VERTEX
  5
2A7
330
2A5
100
AcDbEntity
  8
Layer 1
 62
     7
370
     5
100
AcDbVertex
100
AcDb2dVertex
 10
5.473799811469184
 20
12.17620001898871
 30
0.0
  0
SEQEND
  5
2A8
330
2A5
100
AcDbEntity
  8
Layer 1
 62
     7
370
     5
  0
POLYLINE
  5
2A9
330
1F
100
AcDbEntity
  8
Layer 1
 62
     7
370
     5
100
AcDb2dPolyline
 66
     1
 10
0.0
 20
0.0
 30
0.0
  0
VERTEX
  5
2AA
330
2A9
100
AcDbEntity
  8
Layer 1
 62
     7
370
     5
100
AcDbVertex
100
AcDb2dVertex
 10
5.473799811469184
 20
12.42620001898871
 30
0.0
  0
VERTEX
  5
2AB
330
2A9
100
AcDbEntity
  8
Layer 1
 62
     7
370
     5
100
AcDbVertex
100
AcDb2dVertex
 10
5.976200103759766
 20
12.42620001898871
 30
0.0
  0
SEQEND
  5
2AC
330
2A9
100
AcDbEntity
  8
Layer 1
 62
     7
370
     5
  0
POLYLINE
  5
2AD
330
1F
100
AcDbEntity
  8
Layer 1
 62
     7
370
     5
100
AcDb2dPolyline
 66
     1
 10
0.0
 20
0.0
 30
0.0
  0
VERTEX
  5
2AE
330
2AD
100
AcDbEntity
  8
Layer 1
 62
     7
370
     5
100
AcDbVertex
100
AcDb2dVertex
 10
6.226200103759766
 20
9.423800150553385
 30
0.0
  0
VERTEX
  5
2AF
330
2AD
100
AcDbEntity
  8
Layer 1
 62
     7
370
     5
100
AcDbVertex
100
AcDb2dVertex
 10
5.976200103759766
 20
9.423800150553385
 30
0.0
  0
SEQEND
  5
2B0
330
2AD
100
AcDbEntity
  8
Layer 1
 62
     7
370
     5
  0
POLYLINE
  5
2B1
330
1F
100
AcDbEntity
  8
Layer 1
 62
     7
370
     5
100
AcDb2dPolyline
 66
     1
 10
0.0
 20
0.0
 30
0.0
  0
VERTEX
  5
2B2
330
2B1
100
AcDbEntity
  8
Layer 1
 62
     7
370
     5
100
AcDbVertex
100
AcDb2dVertex
 10
5.976200103759766
 20
10.17620001898871
 30
0.0
  0
VERTEX
  5
2B3
330
2B1
100
AcDbEntity
  8
Layer 1
 62
     7
370
     5
100
AcDbVertex
100
AcDb2dVertex
 10
5.976200103759766
 20
10.67380015055338
 30
0.0
  0
SEQEND
  5
2B4
330
2B1
100
AcDbEntity
  8
Layer 1
 62
     7
370
     5
  0
POLYLINE
  5
2B5
330
1F
100
AcDbEntity
  8
Layer 1
 62
     7
370
     5
100
AcDb2dPolyline
 66
     1
 10
0.0
 20
0.0
 30
0.0
  0
VERTEX
  5
2B6
330
2B5
100
AcDbEntity
  8
Layer 1
 62
     7
370
     5
100
AcDbVertex
100
AcDb2dVertex
 10
6.226200103759766
 20
10.17620001898871
 30
0.0
  0
VERTEX
  5
2B7
330
2B5
100
AcDbEntity
  8
Layer 1
 62
     7
370
     5
100
AcDbVertex
100
AcDb2dVertex
 10
5.976200103759766
 20
10.17620001898871
 30
0.0
  0
SEQEND
  5
2B8
330
2B5
100
AcDbEntity
  8
Layer 1
 62
     7
370
     5
  0
POLYLINE
  5
2B9
330
1F
100
AcDbEntity
  8
Layer 1
 62
     7
370
     5
100
AcDb2dPolyline
 66
     1
 10
0.0
 20
0.0
 30
0.0
  0
VERTEX
  5
2BA
330
2B9
100
AcDbEntity
  8
Layer 1
 62
     7
370
     5
100
AcDbVertex
100
AcDb2dVertex
 10
5.976200103759766
 20
10.67380015055338
 30
0.0
  0
VERTEX
  5
2BB
330
2B9
100
AcDbEntity
  8
Layer 1
 62
     7
370
     5
100
AcDbVertex
100
AcDb2dVertex
 10
6.226200103759766
 20
10.67380015055338
 30
0.0
  0
SEQEND
  5
2BC
330
2B9
100
AcDbEntity
  8
Layer 1
 62
     7
370
     5
  0
POLYLINE
  5
2BD
330
1F
100
AcDbEntity
  8
Layer 1
 62
     7
370
     5
100
AcDb2dPolyline
 66
     1
 10
0.0
 20
0.0
 30
0.0
  0
VERTEX
  5
2BE
330
2BD
100
AcDbEntity
  8
Layer 1
 62
     7
370
     5
100
AcDbVertex
100
AcDb2dVertex
 10
5.976200103759766
 20
11.17620001898871
 30
0.0
  0
VERTEX
  5
2BF
330
2BD
100
AcDbEntity
  8
Layer 1
 62
     7
370
     5
100
AcDbVertex
100
AcDb2dVertex
 10
5.976200103759766
 20
11.67380015055338
 30
0.0
  0
SEQEND
  5
2C0
330
2BD
100
AcDbEntity
  8
Layer 1
 62
     7
370
     5
  0
POLYLINE
  5
2C1
330
1F
100
AcDbEntity
  8
Layer 1
 62
     7
370
     5
100
AcDb2dPolyline
 66
     1
 10
0.0
 20
0.0
 30
0.0
  0
VERTEX
  5
2C2
330
2C1
100
AcDbEntity
  8
Layer 1
 62
     7
370
     5
100
AcDbVertex
100
AcDb2dVertex
 10
6.226200103759766
 20
11.17620001898871
 30
0.0
  0
VERTEX
  5
2C3
330
2C1
100
AcDbEntity
  8
Layer 1
 62
     7
370
     5
100
AcDbVertex
100
AcDb2dVertex
 10
5.976200103759766
 20
11.17620001898871
 30
0.0
  0
SEQEND
  5
2C4
330
2C1
100
AcDbEntity
  8
Layer 1
 62
     7
370
     5
  0
POLYLINE
  5
2C5
330
1F
100
AcDbEntity
  8
Layer 1
 62
     7
370
     5
100
AcDb2dPolyline
 66
     1
 10
0.0
 20
0.0
 30
0.0
  0
VERTEX
  5
2C6
330
2C5
100
AcDbEntity
  8
Layer 1
 62
     7
370
     5
100
AcDbVertex
100
AcDb2dVertex
 10
5.976200103759766
 20
11.67380015055338
 30
0.0
  0
VERTEX
  5
2C7
330
2C5
100
AcDbEntity
  8
Layer 1
 62
     7
370
     5
100
AcDbVertex
100
AcDb2dVertex
 10
6.226200103759766
 20
11.67380015055338
 30
0.0
  0
SEQEND
  5
2C8
330
2C5
100
AcDbEntity
  8
Layer 1
 62
     7
370
     5
  0
POLYLINE
  5
2C9
330
1F
100
AcDbEntity
  8
Layer 1
 62
     7
370
     5
100
AcDb2dPolyline
 66
     1
 10
0.0
 20
0.0
 30
0.0
  0
VERTEX
  5
2CA
330
2C9
100
AcDbEntity
  8
Layer 1
 62
     7
370
     5
100
AcDbVertex
100
AcDb2dVertex
 10
5.976200103759766
 20
12.42620001898871
 30
0.0
  0
VERTEX
  5
2CB
330
2C9
100
AcDbEntity
  8
Layer 1
 62
     7
370
     5
100
AcDbVertex
100
AcDb2dVertex
 10
6.226200103759766
 20
12.42620001898871
 30
0.0
  0
SEQEND
  5
2CC
330
2C9
100
AcDbEntity
  8
Layer 1
 62
     7
370
     5
  0
POLYLINE
  5
2CD
330
1F
100
AcDbEntity
  8
Layer 1
 62
     7
370
     5
100
AcDb2dPolyline
 66
     1
 10
0.0
 20
0.0
 30
0.0
  0
VERTEX
  5
2CE
330
2CD
100
AcDbEntity
  8
Layer 1
 62
     7
370
     5
100
AcDbVertex
100
AcDb2dVertex
 10
6.226200103759766
 20
9.423800150553385
 30
0.0
  0
VERTEX
  5
2CF
330
2CD
100
AcDbEntity
  8
Layer 1
 62
     7
370
     5
100
AcDbVertex
100
AcDb2dVertex
 10
6.226200103759766
 20
9.673800150553385
 30
0.0
  0
SEQEND
  5
2D0
330
2CD
100
AcDbEntity
  8
Layer 1
 62
     7
370
     5
  0
POLYLINE
  5
2D1
330
1F
100
AcDbEntity
  8
Layer 1
 62
     7
370
     5
100
AcDb2dPolyline
 66
     1
 10
0.0
 20
0.0
 30
0.0
  0
VERTEX
  5
2D2
330
2D1
100
AcDbEntity
  8
Layer 1
 62
     7
370
     5
100
AcDbVertex
100
AcDb2dVertex
 10
6.226200103759766
 20
9.673800150553385
 30
0.0
  0
VERTEX
  5
2D3
330
2D1
100
AcDbEntity
  8
Layer 1
 62
     7
370
     5
100
AcDbVertex
100
AcDb2dVertex
 10
6.226200103759766
 20
10.17620001898871
 30
0.0
  0
SEQEND
  5
2D4
330
2D1
100
AcDbEntity
  8
Layer 1
 62
     7
370
     5
  0
POLYLINE
  5
2D5
330
1F
100
AcDbEntity
  8
Layer 1
 62
     7
370
     5
100
AcDb2dPolyline
 66
     1
 10
0.0
 20
0.0
 30
0.0
  0
VERTEX
  5
2D6
330
2D5
100
AcDbEntity
  8
Layer 1
 62
     7
370
     5
100
AcDbVertex
100
AcDb2dVertex
 10
6.226200103759766
 20
10.67380015055338
 30
0.0
  0
VERTEX
  5
2D7
330
2D5
100
AcDbEntity
  8
Layer 1
 62
     7
370
     5
100
AcDbVertex
100
AcDb2dVertex
 10
6.226200103759766
 20
11.17620001898871
 30
0.0
  0
SEQEND
  5
2D8
330
2D5
100
AcDbEntity
  8
Layer 1
 62
     7
370
     5
  0
POLYLINE
  5
2D9
330
1F
100
AcDbEntity
  8
Layer 1
 62
     7
370
     5
100
AcDb2dPolyline
 66
     1
 10
0.0
 20
0.0
 30
0.0
  0
VERTEX
  5
2DA
330
2D9
100
AcDbEntity
  8
Layer 1
 62
     7
370
     5
100
AcDbVertex
100
AcDb2dVertex
 10
6.226200103759766
 20
11.67380015055338
 30
0.0
  0
VERTEX
  5
2DB
330
2D9
100
AcDbEntity
  8
Layer 1
 62
     7
370
     5
100
AcDbVertex
100
AcDb2dVertex
 10
6.226200103759766
 20
12.17620001898871
 30
0.0
  0
SEQEND
  5
2DC
330
2D9
100
AcDbEntity
  8
Layer 1
 62
     7
370
     5
  0
POLYLINE
  5
2DD
330
1F
100
AcDbEntity
  8
Layer 1
 62
     7
370
     5
100
AcDb2dPolyline
 66
     1
 10
0.0
 20
0.0
 30
0.0
  0
VERTEX
  5
2DE
330
2DD
100
AcDbEntity
  8
Layer 1
 62
     7
370
     5
100
AcDbVertex
100
AcDb2dVertex
 10
6.226200103759766
 20
12.17620001898871
 30
0.0
  0
VERTEX
  5
2DF
330
2DD
100
AcDbEntity
  8
Layer 1
 62
     7
370
     5
100
AcDbVertex
100
AcDb2dVertex
 10
6.226200103759766
 20
12.42620001898871
 30
0.0
  0
SEQEND
  5
2E0
330
2DD
100
AcDbEntity
  8
Layer 1
 62
     7
370
     5
  0
POLYLINE
  5
2E1
330
1F
100
AcDbEntity
  8
Layer 1
 62
     7
370
     5
100
AcDb2dPolyline
 66
     1
 10
0.0
 20
0.0
 30
0.0
  0
VERTEX
  5
2E2
330
2E1
100
AcDbEntity
  8
Layer 1
 62
     7
370
     5
100
AcDbVertex
100
AcDb2dVertex
 10
0.123799999554952
 20
4.476200103759766
 30
0.0
  0
VERTEX
  5
2E3
330
2E1
100
AcDbEntity
  8
Layer 1
 62
     7
370
     5
100
AcDbVertex
100
AcDb2dVertex
 10
0.123799999554952
 20
3.973799811469184
 30
0.0
  0
SEQEND
  5
2E4
330
2E1
100
AcDbEntity
  8
Layer 1
 62
     7
370
     5
  0
POLYLINE
  5
2E5
330
1F
100
AcDbEntity
  8
Layer 1
 62
     7
370
     5
100
AcDb2dPolyline
 66
     1
 10
0.0
 20
0.0
 30
0.0
  0
VERTEX
  5
2E6
330
2E5
100
AcDbEntity
  8
Layer 1
 62
     7
370
     5
100
AcDbVertex
100
AcDb2dVertex
 10
0.123799999554952
 20
3.973799811469184
 30
0.0
  0
VERTEX
  5
2E7
330
2E5
100
AcDbEntity
  8
Layer 1
 62
     7
370
     5
100
AcDbVertex
100
AcDb2dVertex
 10
0.3738000128004286
 20
3.973799811469184
 30
0.0
  0
SEQEND
  5
2E8
330
2E5
100
AcDbEntity
  8
Layer 1
 62
     7
370
     5
  0
POLYLINE
  5
2E9
330
1F
100
AcDbEntity
  8
Layer 1
 62
     7
370
     5
100
AcDb2dPolyline
 66
     1
 10
0.0
 20
0.0
 30
0.0
  0
VERTEX
  5
2EA
330
2E9
100
AcDbEntity
  8
Layer 1
 62
     7
370
     5
100
AcDbVertex
100
AcDb2dVertex
 10
0.3738000128004286
 20
4.476200103759766
 30
0.0
  0
VERTEX
  5
2EB
330
2E9
100
AcDbEntity
  8
Layer 1
 62
     7
370
     5
100
AcDbVertex
100
AcDb2dVertex
 10
0.123799999554952
 20
4.476200103759766
 30
0.0
  0
SEQEND
  5
2EC
330
2E9
100
AcDbEntity
  8
Layer 1
 62
     7
370
     5
  0
POLYLINE
  5
2ED
330
1F
100
AcDbEntity
  8
Layer 1
 62
     7
370
     5
100
AcDb2dPolyline
 66
     1
 10
0.0
 20
0.0
 30
0.0
  0
VERTEX
  5
2EE
330
2ED
100
AcDbEntity
  8
Layer 1
 62
     7
370
     5
100
AcDbVertex
100
AcDb2dVertex
 10
0.123799999554952
 20
5.476200103759766
 30
0.0
  0
VERTEX
  5
2EF
330
2ED
100
AcDbEntity
  8
Layer 1
 62
     7
370
     5
100
AcDbVertex
100
AcDb2dVertex
 10
0.123799999554952
 20
4.973799811469184
 30
0.0
  0
SEQEND
  5
2F0
330
2ED
100
AcDbEntity
  8
Layer 1
 62
     7
370
     5
  0
POLYLINE
  5
2F1
330
1F
100
AcDbEntity
  8
Layer 1
 62
     7
370
     5
100
AcDb2dPolyline
 66
     1
 10
0.0
 20
0.0
 30
0.0
  0
VERTEX
  5
2F2
330
2F1
100
AcDbEntity
  8
Layer 1
 62
     7
370
     5
100
AcDbVertex
100
AcDb2dVertex
 10
0.123799999554952
 20
4.973799811469184
 30
0.0
  0
VERTEX
  5
2F3
330
2F1
100
AcDbEntity
  8
Layer 1
 62
     7
370
     5
100
AcDbVertex
100
AcDb2dVertex
 10
0.3738000128004286
 20
4.973799811469184
 30
0.0
  0
SEQEND
  5
2F4
330
2F1
100
AcDbEntity
  8
Layer 1
 62
     7
370
     5
  0
POLYLINE
  5
2F5
330
1F
100
AcDbEntity
  8
Layer 1
 62
     7
370
     5
100
AcDb2dPolyline
 66
     1
 10
0.0
 20
0.0
 30
0.0
  0
VERTEX
  5
2F6
330
2F5
100
AcDbEntity
  8
Layer 1
 62
     7
370
     5
100
AcDbVertex
100
AcDb2dVertex
 10
0.3738000128004286
 20
5.476200103759766
 30
0.0
  0
VERTEX
  5
2F7
330
2F5
100
AcDbEntity
  8
Layer 1
 62
     7
370
     5
100
AcDbVertex
100
AcDb2dVertex
 10
0.123799999554952
 20
5.476200103759766
 30
0.0
  0
SEQEND
  5
2F8
330
2F5
100
AcDbEntity
  8
Layer 1
 62
     7
370
     5
  0
POLYLINE
  5
2F9
330
1F
100
AcDbEntity
  8
Layer 1
 62
     7
370
     5
100
AcDb2dPolyline
 66
     1
 10
0.0
 20
0.0
 30
0.0
  0
VERTEX
  5
2FA
330
2F9
100
AcDbEntity
  8
Layer 1
 62
     7
370
     5
100
AcDbVertex
100
AcDb2dVertex
 10
0.3738000128004286
 20
3.973799811469184
 30
0.0
  0
VERTEX
  5
2FB
330
2F9
100
AcDbEntity
  8
Layer 1
 62
     7
370
     5
100
AcDbVertex
100
AcDb2dVertex
 10
0.3738000128004286
 20
3.47380002339681
 30
0.0
  0
SEQEND
  5
2FC
330
2F9
100
AcDbEntity
  8
Layer 1
 62
     7
370
     5
  0
POLYLINE
  5
2FD
330
1F
100
AcDbEntity
  8
Layer 1
 62
     7
370
     5
100
AcDb2dPolyline
 66
     1
 10
0.0
 20
0.0
 30
0.0
  0
VERTEX
  5
2FE
330
2FD
100
AcDbEntity
  8
Layer 1
 62
     7
370
     5
100
AcDbVertex
100
AcDb2dVertex
 10
0.3738000128004286
 20
3.47380002339681
 30
0.0
  0
VERTEX
  5
2FF
330
2FD
100
AcDbEntity
  8
Layer 1
 62
     7
370
     5
100
AcDbVertex
100
AcDb2dVertex
 10
0.8738000128004285
 20
3.47380002339681
 30
0.0
  0
SEQEND
  5
300
330
2FD
100
AcDbEntity
  8
Layer 1
 62
     7
370
     5
  0
POLYLINE
  5
301
330
1F
100
AcDbEntity
  8
Layer 1
 62
     7
370
     5
100
AcDb2dPolyline
 66
     1
 10
0.0
 20
0.0
 30
0.0
  0
VERTEX
  5
302
330
301
100
AcDbEntity
  8
Layer 1
 62
     7
370
     5
100
AcDbVertex
100
AcDb2dVertex
 10
0.3738000128004286
 20
4.973799811469184
 30
0.0
  0
VERTEX
  5
303
330
301
100
AcDbEntity
  8
Layer 1
 62
     7
370
     5
100
AcDbVertex
100
AcDb2dVertex
 10
0.3738000128004286
 20
4.476200103759766
 30
0.0
  0
SEQEND
  5
304
330
301
100
AcDbEntity
  8
Layer 1
 62
     7
370
     5
  0
POLYLINE
  5
305
330
1F
100
AcDbEntity
  8
Layer 1
 62
     7
370
     5
100
AcDb2dPolyline
 66
     1
 10
0.0
 20
0.0
 30
0.0
  0
VERTEX
  5
306
330
305
100
AcDbEntity
  8
Layer 1
 62
     7
370
     5
100
AcDbVertex
100
AcDb2dVertex
 10
0.3738000128004286
 20
5.976200103759766
 30
0.0
  0
VERTEX
  5
307
330
305
100
AcDbEntity
  8
Layer 1
 62
     7
370
     5
100
AcDbVertex
100
AcDb2dVertex
 10
0.3738000128004286
 20
5.476200103759766
 30
0.0
  0
SEQEND
  5
308
330
305
100
AcDbEntity
  8
Layer 1
 62
     7
370
     5
  0
POLYLINE
  5
309
330
1F
100
AcDbEntity
  8
Layer 1
 62
     7
370
     5
100
AcDb2dPolyline
 66
     1
 10
0.0
 20
0.0
 30
0.0
  0
VERTEX
  5
30A
330
309
100
AcDbEntity
  8
Layer 1
 62
     7
370
     5
100
AcDbVertex
100
AcDb2dVertex
 10
0.8738000128004285
 20
5.976200103759766
 30
0.0
  0
VERTEX
  5
30B
330
309
100
AcDbEntity
  8
Layer 1
 62
     7
370
     5
100
AcDbVertex
100
AcDb2dVertex
 10
0.3738000128004286
 20
5.976200103759766
 30
0.0
  0
SEQEND
  5
30C
330
309
100
AcDbEntity
  8
Layer 1
 62
     7
370
     5
  0
POLYLINE
  5
30D
330
1F
100
AcDbEntity
  8
Layer 1
 62
     7
370
     5
100
AcDb2dPolyline
 66
     1
 10
0.0
 20
0.0
 30
0.0
  0
VERTEX
  5
30E
330
30D
100
AcDbEntity
  8
Layer 1
 62
     7
370
     5
100
AcDbVertex
100
AcDb2dVertex
 10
0.8738000128004285
 20
3.47380002339681
 30
0.0
  0
VERTEX
  5
30F
330
30D
100
AcDbEntity
  8
Layer 1
 62
     7
370
     5
100
AcDbVertex
100
AcDb2dVertex
 10
0.8738000128004285
 20
3.22380002339681
 30
0.0
  0
SEQEND
  5
310
330
30D
100
AcDbEntity
  8
Layer 1
 62
     7
370
     5
  0
POLYLINE
  5
311
330
1F
100
AcDbEntity
  8
Layer 1
 62
     7
370
     5
100
AcDb2dPolyline
 66
     1
 10
0.0
 20
0.0
 30
0.0
  0
VERTEX
  5
312
330
311
100
AcDbEntity
  8
Layer 1
 62
     7
370
     5
100
AcDbVertex
100
AcDb2dVertex
 10
0.8738000128004285
 20
3.22380002339681
 30
0.0
  0
VERTEX
  5
313
330
311
100
AcDbEntity
  8
Layer 1
 62
     7
370
     5
100
AcDbVertex
100
AcDb2dVertex
 10
1.376200040181478
 20
3.22380002339681
 30
0.0
  0
SEQEND
  5
314
330
311
100
AcDbEntity
  8
Layer 1
 62
     7
370
     5
  0
POLYLINE
  5
315
330
1F
100
AcDbEntity
  8
Layer 1
 62
     7
370
     5
100
AcDb2dPolyline
 66
     1
 10
0.0
 20
0.0
 30
0.0
  0
VERTEX
  5
316
330
315
100
AcDbEntity
  8
Layer 1
 62
     7
370
     5
100
AcDbVertex
100
AcDb2dVertex
 10
0.8738000128004285
 20
6.226200103759766
 30
0.0
  0
VERTEX
  5
317
330
315
100
AcDbEntity
  8
Layer 1
 62
     7
370
     5
100
AcDbVertex
100
AcDb2dVertex
 10
0.8738000128004285
 20
5.976200103759766
 30
0.0
  0
SEQEND
  5
318
330
315
100
AcDbEntity
  8
Layer 1
 62
     7
370
     5
  0
POLYLINE
  5
319
330
1F
100
AcDbEntity
  8
Layer 1
 62
     7
370
     5
100
AcDb2dPolyline
 66
     1
 10
0.0
 20
0.0
 30
0.0
  0
VERTEX
  5
31A
330
319
100
AcDbEntity
  8
Layer 1
 62
     7
370
     5
100
AcDbVertex
100
AcDb2dVertex
 10
1.376200040181478
 20
6.226200103759766
 30
0.0
  0
VERTEX
  5
31B
330
319
100
AcDbEntity
  8
Layer 1
 62
     7
370
     5
100
AcDbVertex
100
AcDb2dVertex
 10
0.8738000128004285
 20
6.226200103759766
 30
0.0
  0
SEQEND
  5
31C
330
319
100
AcDbEntity
  8
Layer 1
 62
     7
370
     5
  0
POLYLINE
  5
31D
330
1F
100
AcDbEntity
  8
Layer 1
 62
     7
370
     5
100
AcDb2dPolyline
 66
     1
 10
0.0
 20
0.0
 30
0.0
  0
VERTEX
  5
31E
330
31D
100
AcDbEntity
  8
Layer 1
 62
     7
370
     5
100
AcDbVertex
100
AcDb2dVertex
 10
1.376200040181478
 20
3.22380002339681
 30
0.0
  0
VERTEX
  5
31F
330
31D
100
AcDbEntity
  8
Layer 1
 62
     7
370
     5
100
AcDbVertex
100
AcDb2dVertex
 10
1.376200040181478
 20
3.47380002339681
 30
0.0
  0
SEQEND
  5
320
330
31D
100
AcDbEntity
  8
Layer 1
 62
     7
370
     5
  0
POLYLINE
  5
321
330
1F
100
AcDbEntity
  8
Layer 1
 62
     7
370
     5
100
AcDb2dPolyline
 66
     1
 10
0.0
 20
0.0
 30
0.0
  0
VERTEX
  5
322
330
321
100
AcDbEntity
  8
Layer 1
 62
     7
370
     5
100
AcDbVertex
100
AcDb2dVertex
 10
1.376200040181478
 20
3.47380002339681
 30
0.0
  0
VERTEX
  5
323
330
321
100
AcDbEntity
  8
Layer 1
 62
     7
370
     5
100
AcDbVertex
100
AcDb2dVertex
 10
1.873800065782335
 20
3.47380002339681
 30
0.0
  0
SEQEND
  5
324
330
321
100
AcDbEntity
  8
Layer 1
 62
     7
370
     5
  0
POLYLINE
  5
325
330
1F
100
AcDbEntity
  8
Layer 1
 62
     7
370
     5
100
AcDb2dPolyline
 66
     1
 10
0.0
 20
0.0
 30
0.0
  0
VERTEX
  5
326
330
325
100
AcDbEntity
  8
Layer 1
 62
     7
370
     5
100
AcDbVertex
100
AcDb2dVertex
 10
1.376200040181478
 20
5.976200103759766
 30
0.0
  0
VERTEX
  5
327
330
325
100
AcDbEntity
  8
Layer 1
 62
     7
370
     5
100
AcDbVertex
100
AcDb2dVertex
 10
1.376200040181478
 20
6.226200103759766
 30
0.0
  0
SEQEND
  5
328
330
325
100
AcDbEntity
  8
Layer 1
 62
     7
370
     5
  0
POLYLINE
  5
329
330
1F
100
AcDbEntity
  8
Layer 1
 62
     7
370
     5
100
AcDb2dPolyline
 66
     1
 10
0.0
 20
0.0
 30
0.0
  0
VERTEX
  5
32A
330
329
100
AcDbEntity
  8
Layer 1
 62
     7
370
     5
100
AcDbVertex
100
AcDb2dVertex
 10
1.873800065782335
 20
5.976200103759766
 30
0.0
  0
VERTEX
  5
32B
330
329
100
AcDbEntity
  8
Layer 1
 62
     7
370
     5
100
AcDbVertex
100
AcDb2dVertex
 10
1.376200040181478
 20
5.976200103759766
 30
0.0
  0
SEQEND
  5
32C
330
329
100
AcDbEntity
  8
Layer 1
 62
     7
370
     5
  0
POLYLINE
  5
32D
330
1F
100
AcDbEntity
  8
Layer 1
 62
     7
370
     5
100
AcDb2dPolyline
 66
     1
 10
0.0
 20
0.0
 30
0.0
  0
VERTEX
  5
32E
330
32D
100
AcDbEntity
  8
Layer 1
 62
     7
370
     5
100
AcDbVertex
100
AcDb2dVertex
 10
1.873800065782335
 20
3.47380002339681
 30
0.0
  0
VERTEX
  5
32F
330
32D
100
AcDbEntity
  8
Layer 1
 62
     7
370
     5
100
AcDbVertex
100
AcDb2dVertex
 10
1.873800065782335
 20
3.22380002339681
 30
0.0
  0
SEQEND
  5
330
330
32D
100
AcDbEntity
  8
Layer 1
 62
     7
370
     5
  0
POLYLINE
  5
331
330
1F
100
AcDbEntity
  8
Layer 1
 62
     7
370
     5
100
AcDb2dPolyline
 66
     1
 10
0.0
 20
0.0
 30
0.0
  0
VERTEX
  5
332
330
331
100
AcDbEntity
  8
Layer 1
 62
     7
370
     5
100
AcDbVertex
100
AcDb2dVertex
 10
1.873800065782335
 20
3.22380002339681
 30
0.0
  0
VERTEX
  5
333
330
331
100
AcDbEntity
  8
Layer 1
 62
     7
370
     5
100
AcDbVertex
100
AcDb2dVertex
 10
2.376199934217665
 20
3.22380002339681
 30
0.0
  0
SEQEND
  5
334
330
331
100
AcDbEntity
  8
Layer 1
 62
     7
370
     5
  0
POLYLINE
  5
335
330
1F
100
AcDbEntity
  8
Layer 1
 62
     7
370
     5
100
AcDb2dPolyline
 66
     1
 10
0.0
 20
0.0
 30
0.0
  0
VERTEX
  5
336
330
335
100
AcDbEntity
  8
Layer 1
 62
     7
370
     5
100
AcDbVertex
100
AcDb2dVertex
 10
1.873800065782335
 20
6.226200103759766
 30
0.0
  0
VERTEX
  5
337
330
335
100
AcDbEntity
  8
Layer 1
 62
     7
370
     5
100
AcDbVertex
100
AcDb2dVertex
 10
1.873800065782335
 20
5.976200103759766
 30
0.0
  0
SEQEND
  5
338
330
335
100
AcDbEntity
  8
Layer 1
 62
     7
370
     5
  0
POLYLINE
  5
339
330
1F
100
AcDbEntity
  8
Layer 1
 62
     7
370
     5
100
AcDb2dPolyline
 66
     1
 10
0.0
 20
0.0
 30
0.0
  0
VERTEX
  5
33A
330
339
100
AcDbEntity
  8
Layer 1
 62
     7
370
     5
100
AcDbVertex
100
AcDb2dVertex
 10
2.376199934217665
 20
6.226200103759766
 30
0.0
  0
VERTEX
  5
33B
330
339
100
AcDbEntity
  8
Layer 1
 62
     7
370
     5
100
AcDbVertex
100
AcDb2dVertex
 10
1.873800065782335
 20
6.226200103759766
 30
0.0
  0
SEQEND
  5
33C
330
339
100
AcDbEntity
  8
Layer 1
 62
     7
370
     5
  0
POLYLINE
  5
33D
330
1F
100
AcDbEntity
  8
Layer 1
 62
     7
370
     5
100
AcDb2dPolyline
 66
     1
 10
0.0
 20
0.0
 30
0.0
  0
VERTEX
  5
33E
330
33D
100
AcDbEntity
  8
Layer 1
 62
     7
370
     5
100
AcDbVertex
100
AcDb2dVertex
 10
2.376199934217665
 20
3.22380002339681
 30
0.0
  0
VERTEX
  5
33F
330
33D
100
AcDbEntity
  8
Layer 1
 62
     7
370
     5
100
AcDbVertex
100
AcDb2dVertex
 10
2.376199934217665
 20
3.47380002339681
 30
0.0
  0
SEQEND
  5
340
330
33D
100
AcDbEntity
  8
Layer 1
 62
     7
370
     5
  0
POLYLINE
  5
341
330
1F
100
AcDbEntity
  8
Layer 1
 62
     7
370
     5
100
AcDb2dPolyline
 66
     1
 10
0.0
 20
0.0
 30
0.0
  0
VERTEX
  5
342
330
341
100
AcDbEntity
  8
Layer 1
 62
     7
370
     5
100
AcDbVertex
100
AcDb2dVertex
 10
2.376199934217665
 20
3.47380002339681
 30
0.0
  0
VERTEX
  5
343
330
341
100
AcDbEntity
  8
Layer 1
 62
     7
370
     5
100
AcDbVertex
100
AcDb2dVertex
 10
2.876199934217665
 20
3.47380002339681
 30
0.0
  0
SEQEND
  5
344
330
341
100
AcDbEntity
  8
Layer 1
 62
     7
370
     5
  0
POLYLINE
  5
345
330
1F
100
AcDbEntity
  8
Layer 1
 62
     7
370
     5
100
AcDb2dPolyline
 66
     1
 10
0.0
 20
0.0
 30
0.0
  0
VERTEX
  5
346
330
345
100
AcDbEntity
  8
Layer 1
 62
     7
370
     5
100
AcDbVertex
100
AcDb2dVertex
 10
2.376199934217665
 20
5.976200103759766
 30
0.0
  0
VERTEX
  5
347
330
345
100
AcDbEntity
  8
Layer 1
 62
     7
370
     5
100
AcDbVertex
100
AcDb2dVertex
 10
2.376199934217665
 20
6.226200103759766
 30
0.0
  0
SEQEND
  5
348
330
345
100
AcDbEntity
  8
Layer 1
 62
     7
370
     5
  0
POLYLINE
  5
349
330
1F
100
AcDbEntity
  8
Layer 1
 62
     7
370
     5
100
AcDb2dPolyline
 66
     1
 10
0.0
 20
0.0
 30
0.0
  0
VERTEX
  5
34A
330
349
100
AcDbEntity
  8
Layer 1
 62
     7
370
     5
100
AcDbVertex
100
AcDb2dVertex
 10
2.876199934217665
 20
5.976200103759766
 30
0.0
  0
VERTEX
  5
34B
330
349
100
AcDbEntity
  8
Layer 1
 62
     7
370
     5
100
AcDbVertex
100
AcDb2dVertex
 10
2.376199934217665
 20
5.976200103759766
 30
0.0
  0
SEQEND
  5
34C
330
349
100
AcDbEntity
  8
Layer 1
 62
     7
370
     5
  0
POLYLINE
  5
34D
330
1F
100
AcDbEntity
  8
Layer 1
 62
     7
370
     5
100
AcDb2dPolyline
 66
     1
 10
0.0
 20
0.0
 30
0.0
  0
VERTEX
  5
34E
330
34D
100
AcDbEntity
  8
Layer 1
 62
     7
370
     5
100
AcDbVertex
100
AcDb2dVertex
 10
2.876199934217665
 20
3.47380002339681
 30
0.0
  0
VERTEX
  5
34F
330
34D
100
AcDbEntity
  8
Layer 1
 62
     7
370
     5
100
AcDbVertex
100
AcDb2dVertex
 10
2.876199934217665
 20
3.973799811469184
 30
0.0
  0
SEQEND
  5
350
330
34D
100
AcDbEntity
  8
Layer 1
 62
     7
370
     5
  0
POLYLINE
  5
351
330
1F
100
AcDbEntity
  8
Layer 1
 62
     7
370
     5
100
AcDb2dPolyline
 66
     1
 10
0.0
 20
0.0
 30
0.0
  0
VERTEX
  5
352
330
351
100
AcDbEntity
  8
Layer 1
 62
     7
370
     5
100
AcDbVertex
100
AcDb2dVertex
 10
2.876199934217665
 20
3.973799811469184
 30
0.0
  0
VERTEX
  5
353
330
351
100
AcDbEntity
  8
Layer 1
 62
     7
370
     5
100
AcDbVertex
100
AcDb2dVertex
 10
3.126199934217665
 20
3.973799811469184
 30
0.0
  0
SEQEND
  5
354
330
351
100
AcDbEntity
  8
Layer 1
 62
     7
370
     5
  0
POLYLINE
  5
355
330
1F
100
AcDbEntity
  8
Layer 1
 62
     7
370
     5
100
AcDb2dPolyline
 66
     1
 10
0.0
 20
0.0
 30
0.0
  0
VERTEX
  5
356
330
355
100
AcDbEntity
  8
Layer 1
 62
     7
370
     5
100
AcDbVertex
100
AcDb2dVertex
 10
2.876199934217665
 20
4.476200103759766
 30
0.0
  0
VERTEX
  5
357
330
355
100
AcDbEntity
  8
Layer 1
 62
     7
370
     5
100
AcDbVertex
100
AcDb2dVertex
 10
2.876199934217665
 20
4.973799811469184
 30
0.0
  0
SEQEND
  5
358
330
355
100
AcDbEntity
  8
Layer 1
 62
     7
370
     5
  0
POLYLINE
  5
359
330
1F
100
AcDbEntity
  8
Layer 1
 62
     7
370
     5
100
AcDb2dPolyline
 66
     1
 10
0.0
 20
0.0
 30
0.0
  0
VERTEX
  5
35A
330
359
100
AcDbEntity
  8
Layer 1
 62
     7
370
     5
100
AcDbVertex
100
AcDb2dVertex
 10
3.126199934217665
 20
4.476200103759766
 30
0.0
  0
VERTEX
  5
35B
330
359
100
AcDbEntity
  8
Layer 1
 62
     7
370
     5
100
AcDbVertex
100
AcDb2dVertex
 10
2.876199934217665
 20
4.476200103759766
 30
0.0
  0
SEQEND
  5
35C
330
359
100
AcDbEntity
  8
Layer 1
 62
     7
370
     5
  0
POLYLINE
  5
35D
330
1F
100
AcDbEntity
  8
Layer 1
 62
     7
370
     5
100
AcDb2dPolyline
 66
     1
 10
0.0
 20
0.0
 30
0.0
  0
VERTEX
  5
35E
330
35D
100
AcDbEntity
  8
Layer 1
 62
     7
370
     5
100
AcDbVertex
100
AcDb2dVertex
 10
2.876199934217665
 20
4.973799811469184
 30
0.0
  0
VERTEX
  5
35F
330
35D
100
AcDbEntity
  8
Layer 1
 62
     7
370
     5
100
AcDbVertex
100
AcDb2dVertex
 10
3.126199934217665
 20
4.973799811469184
 30
0.0
  0
SEQEND
  5
360
330
35D
100
AcDbEntity
  8
Layer 1
 62
     7
370
     5
  0
POLYLINE
  5
361
330
1F
100
AcDbEntity
  8
Layer 1
 62
     7
370
     5
100
AcDb2dPolyline
 66
     1
 10
0.0
 20
0.0
 30
0.0
  0
VERTEX
  5
362
330
361
100
AcDbEntity
  8
Layer 1
 62
     7
370
     5
100
AcDbVertex
100
AcDb2dVertex
 10
2.876199934217665
 20
5.476200103759766
 30
0.0
  0
VERTEX
  5
363
330
361
100
AcDbEntity
  8
Layer 1
 62
     7
370
     5
100
AcDbVertex
100
AcDb2dVertex
 10
2.876199934217665
 20
5.976200103759766
 30
0.0
  0
SEQEND
  5
364
330
361
100
AcDbEntity
  8
Layer 1
 62
     7
370
     5
  0
POLYLINE
  5
365
330
1F
100
AcDbEntity
  8
Layer 1
 62
     7
370
     5
100
AcDb2dPolyline
 66
     1
 10
0.0
 20
0.0
 30
0.0
  0
VERTEX
  5
366
330
365
100
AcDbEntity
  8
Layer 1
 62
     7
370
     5
100
AcDbVertex
100
AcDb2dVertex
 10
3.126199934217665
 20
5.476200103759766
 30
0.0
  0
VERTEX
  5
367
330
365
100
AcDbEntity
  8
Layer 1
 62
     7
370
     5
100
AcDbVertex
100
AcDb2dVertex
 10
2.876199934217665
 20
5.476200103759766
 30
0.0
  0
SEQEND
  5
368
330
365
100
AcDbEntity
  8
Layer 1
 62
     7
370
     5
  0
POLYLINE
  5
369
330
1F
100
AcDbEntity
  8
Layer 1
 62
     7
370
     5
100
AcDb2dPolyline
 66
     1
 10
0.0
 20
0.0
 30
0.0
  0
VERTEX
  5
36A
330
369
100
AcDbEntity
  8
Layer 1
 62
     7
370
     5
100
AcDbVertex
100
AcDb2dVertex
 10
3.126199934217665
 20
3.973799811469184
 30
0.0
  0
VERTEX
  5
36B
330
369
100
AcDbEntity
  8
Layer 1
 62
     7
370
     5
100
AcDbVertex
100
AcDb2dVertex
 10
3.126199934217665
 20
4.476200103759766
 30
0.0
  0
SEQEND
  5
36C
330
369
100
AcDbEntity
  8
Layer 1
 62
     7
370
     5
  0
POLYLINE
  5
36D
330
1F
100
AcDbEntity
  8
Layer 1
 62
     7
370
     5
100
AcDb2dPolyline
 66
     1
 10
0.0
 20
0.0
 30
0.0
  0
VERTEX
  5
36E
330
36D
100
AcDbEntity
  8
Layer 1
 62
     7
370
     5
100
AcDbVertex
100
AcDb2dVertex
 10
3.126199934217665
 20
4.973799811469184
 30
0.0
  0
VERTEX
  5
36F
330
36D
100
AcDbEntity
  8
Layer 1
 62
     7
370
     5
100
AcDbVertex
100
AcDb2dVertex
 10
3.126199934217665
 20
5.476200103759766
 30
0.0
  0
SEQEND
  5
370
330
36D
100
AcDbEntity
  8
Layer 1
 62
     7
370
     5
  0
POLYLINE
  5
371
330
1F
100
AcDbEntity
  8
Layer 1
 62
     7
370
     5
100
AcDb2dPolyline
 66
     1
 10
0.0
 20
0.0
 30
0.0
  0
VERTEX
  5
372
330
371
100
AcDbEntity
  8
Layer 1
 62
     7
370
     5
100
AcDbVertex
100
AcDb2dVertex
 10
6.323799981011284
 20
4.476200103759766
 30
0.0
  0
VERTEX
  5
373
330
371
100
AcDbEntity
  8
Layer 1
 62
     7
370
     5
100
AcDbVertex
100
AcDb2dVertex
 10
6.323799981011284
 20
3.973799811469184
 30
0.0
  0
SEQEND
  5
374
330
371
100
AcDbEntity
  8
Layer 1
 62
     7
370
     5
  0
POLYLINE
  5
375
330
1F
100
AcDbEntity
  8
Layer 1
 62
     7
370
     5
100
AcDb2dPolyline
 66
     1
 10
0.0
 20
0.0
 30
0.0
  0
VERTEX
  5
376
330
375
100
AcDbEntity
  8
Layer 1
 62
     7
370
     5
100
AcDbVertex
100
AcDb2dVertex
 10
6.323799981011284
 20
3.973799811469184
 30
0.0
  0
VERTEX
  5
377
330
375
100
AcDbEntity
  8
Layer 1
 62
     7
370
     5
100
AcDbVertex
100
AcDb2dVertex
 10
6.573799981011284
 20
3.973799811469184
 30
0.0
  0
SEQEND
  5
378
330
375
100
AcDbEntity
  8
Layer 1
 62
     7
370
     5
  0
POLYLINE
  5
379
330
1F
100
AcDbEntity
  8
Layer 1
 62
     7
370
     5
100
AcDb2dPolyline
 66
     1
 10
0.0
 20
0.0
 30
0.0
  0
VERTEX
  5
37A
330
379
100
AcDbEntity
  8
Layer 1
 62
     7
370
     5
100
AcDbVertex
100
AcDb2dVertex
 10
6.573799981011284
 20
4.476200103759766
 30
0.0
  0
VERTEX
  5
37B
330
379
100
AcDbEntity
  8
Layer 1
 62
     7
370
     5
100
AcDbVertex
100
AcDb2dVertex
 10
6.323799981011284
 20
4.476200103759766
 30
0.0
  0
SEQEND
  5
37C
330
379
100
AcDbEntity
  8
Layer 1
 62
     7
370
     5
  0
POLYLINE
  5
37D
330
1F
100
AcDbEntity
  8
Layer 1
 62
     7
370
     5
100
AcDb2dPolyline
 66
     1
 10
0.0
 20
0.0
 30
0.0
  0
VERTEX
  5
37E
330
37D
100
AcDbEntity
  8
Layer 1
 62
     7
370
     5
100
AcDbVertex
100
AcDb2dVertex
 10
6.323799981011284
 20
5.476200103759766
 30
0.0
  0
VERTEX
  5
37F
330
37D
100
AcDbEntity
  8
Layer 1
 62
     7
370
     5
100
AcDbVertex
100
AcDb2dVertex
 10
6.323799981011284
 20
4.973799811469184
 30
0.0
  0
SEQEND
  5
380
330
37D
100
AcDbEntity
  8
Layer 1
 62
     7
370
     5
  0
POLYLINE
  5
381
330
1F
100
AcDbEntity
  8
Layer 1
 62
     7
370
     5
100
AcDb2dPolyline
 66
     1
 10
0.0
 20
0.0
 30
0.0
  0
VERTEX
  5
382
330
381
100
AcDbEntity
  8
Layer 1
 62
     7
370
     5
100
AcDbVertex
100
AcDb2dVertex
 10
6.323799981011284
 20
4.973799811469184
 30
0.0
  0
VERTEX
  5
383
330
381
100
AcDbEntity
  8
Layer 1
 62
     7
370
     5
100
AcDbVertex
100
AcDb2dVertex
 10
6.573799981011284
 20
4.973799811469184
 30
0.0
  0
SEQEND
  5
384
330
381
100
AcDbEntity
  8
Layer 1
 62
     7
370
     5
  0
POLYLINE
  5
385
330
1F
100
AcDbEntity
  8
Layer 1
 62
     7
370
     5
100
AcDb2dPolyline
 66
     1
 10
0.0
 20
0.0
 30
0.0
  0
VERTEX
  5
386
330
385
100
AcDbEntity
  8
Layer 1
 62
     7
370
     5
100
AcDbVertex
100
AcDb2dVertex
 10
6.573799981011284
 20
5.476200103759766
 30
0.0
  0
VERTEX
  5
387
330
385
100
AcDbEntity
  8
Layer 1
 62
     7
370
     5
100
AcDbVertex
100
AcDb2dVertex
 10
6.323799981011284
 20
5.476200103759766
 30
0.0
  0
SEQEND
  5
388
330
385
100
AcDbEntity
  8
Layer 1
 62
     7
370
     5
  0
POLYLINE
  5
389
330
1F
100
AcDbEntity
  8
Layer 1
 62
     7
370
     5
100
AcDb2dPolyline
 66
     1
 10
0.0
 20
0.0
 30
0.0
  0
VERTEX
  5
38A
330
389
100
AcDbEntity
  8
Layer 1
 62
     7
370
     5
100
AcDbVertex
100
AcDb2dVertex
 10
6.573799981011284
 20
3.973799811469184
 30
0.0
  0
VERTEX
  5
38B
330
389
100
AcDbEntity
  8
Layer 1
 62
     7
370
     5
100
AcDbVertex
100
AcDb2dVertex
 10
6.573799981011284
 20
3.47380002339681
 30
0.0
  0
SEQEND
  5
38C
330
389
100
AcDbEntity
  8
Layer 1
 62
     7
370
     5
  0
POLYLINE
  5
38D
330
1F
100
AcDbEntity
  8
Layer 1
 62
     7
370
     5
100
AcDb2dPolyline
 66
     1
 10
0.0
 20
0.0
 30
0.0
  0
VERTEX
  5
38E
330
38D
100
AcDbEntity
  8
Layer 1
 62
     7
370
     5
100
AcDbVertex
100
AcDb2dVertex
 10
6.573799981011284
 20
3.47380002339681
 30
0.0
  0
VERTEX
  5
38F
330
38D
100
AcDbEntity
  8
Layer 1
 62
     7
370
     5
100
AcDbVertex
100
AcDb2dVertex
 10
7.073799981011284
 20
3.47380002339681
 30
0.0
  0
SEQEND
  5
390
330
38D
100
AcDbEntity
  8
Layer 1
 62
     7
370
     5
  0
POLYLINE
  5
391
330
1F
100
AcDbEntity
  8
Layer 1
 62
     7
370
     5
100
AcDb2dPolyline
 66
     1
 10
0.0
 20
0.0
 30
0.0
  0
VERTEX
  5
392
330
391
100
AcDbEntity
  8
Layer 1
 62
     7
370
     5
100
AcDbVertex
100
AcDb2dVertex
 10
6.573799981011284
 20
4.973799811469184
 30
0.0
  0
VERTEX
  5
393
330
391
100
AcDbEntity
  8
Layer 1
 62
     7
370
     5
100
AcDbVertex
100
AcDb2dVertex
 10
6.573799981011284
 20
4.476200103759766
 30
0.0
  0
SEQEND
  5
394
330
391
100
AcDbEntity
  8
Layer 1
 62
     7
370
     5
  0
POLYLINE
  5
395
330
1F
100
AcDbEntity
  8
Layer 1
 62
     7
370
     5
100
AcDb2dPolyline
 66
     1
 10
0.0
 20
0.0
 30
0.0
  0
VERTEX
  5
396
330
395
100
AcDbEntity
  8
Layer 1
 62
     7
370
     5
100
AcDbVertex
100
AcDb2dVertex
 10
6.573799981011284
 20
5.976200103759766
 30
0.0
  0
VERTEX
  5
397
330
395
100
AcDbEntity
  8
Layer 1
 62
     7
370
     5
100
AcDbVertex
100
AcDb2dVertex
 10
6.573799981011284
 20
5.476200103759766
 30
0.0
  0
SEQEND
  5
398
330
395
100
AcDbEntity
  8
Layer 1
 62
     7
370
     5
  0
POLYLINE
  5
399
330
1F
100
AcDbEntity
  8
Layer 1
 62
     7
370
     5
100
AcDb2dPolyline
 66
     1
 10
0.0
 20
0.0
 30
0.0
  0
VERTEX
  5
39A
330
399
100
AcDbEntity
  8
Layer 1
 62
     7
370
     5
100
AcDbVertex
100
AcDb2dVertex
 10
7.073799981011284
 20
5.976200103759766
 30
0.0
  0
VERTEX
  5
39B
330
399
100
AcDbEntity
  8
Layer 1
 62
     7
370
     5
100
AcDbVertex
100
AcDb2dVertex
 10
6.573799981011284
 20
5.976200103759766
 30
0.0
  0
SEQEND
  5
39C
330
399
100
AcDbEntity
  8
Layer 1
 62
     7
370
     5
  0
POLYLINE
  5
39D
330
1F
100
AcDbEntity
  8
Layer 1
 62
     7
370
     5
100
AcDb2dPolyline
 66
     1
 10
0.0
 20
0.0
 30
0.0
  0
VERTEX
  5
39E
330
39D
100
AcDbEntity
  8
Layer 1
 62
     7
370
     5
100
AcDbVertex
100
AcDb2dVertex
 10
7.073799981011284
 20
3.47380002339681
 30
0.0
  0
VERTEX
  5
39F
330
39D
100
AcDbEntity
  8
Layer 1
 62
     7
370
     5
100
AcDbVertex
100
AcDb2dVertex
 10
7.073799981011284
 20
3.22380002339681
 30
0.0
  0
SEQEND
  5
3A0
330
39D
100
AcDbEntity
  8
Layer 1
 62
     7
370
     5
  0
POLYLINE
  5
3A1
330
1F
100
AcDbEntity
  8
Layer 1
 62
     7
370
     5
100
AcDb2dPolyline
 66
     1
 10
0.0
 20
0.0
 30
0.0
  0
VERTEX
  5
3A2
330
3A1
100
AcDbEntity
  8
Layer 1
 62
     7
370
     5
100
AcDbVertex
100
AcDb2dVertex
 10
7.073799981011284
 20
3.22380002339681
 30
0.0
  0
VERTEX
  5
3A3
330
3A1
100
AcDbEntity
  8
Layer 1
 62
     7
370
     5
100
AcDbVertex
100
AcDb2dVertex
 10
7.576199849446614
 20
3.22380002339681
 30
0.0
  0
SEQEND
  5
3A4
330
3A1
100
AcDbEntity
  8
Layer 1
 62
     7
370
     5
  0
POLYLINE
  5
3A5
330
1F
100
AcDbEntity
  8
Layer 1
 62
     7
370
     5
100
AcDb2dPolyline
 66
     1
 10
0.0
 20
0.0
 30
0.0
  0
VERTEX
  5
3A6
330
3A5
100
AcDbEntity
  8
Layer 1
 62
     7
370
     5
100
AcDbVertex
100
AcDb2dVertex
 10
7.073799981011284
 20
6.226200103759766
 30
0.0
  0
VERTEX
  5
3A7
330
3A5
100
AcDbEntity
  8
Layer 1
 62
     7
370
     5
100
AcDbVertex
100
AcDb2dVertex
 10
7.073799981011284
 20
5.976200103759766
 30
0.0
  0
SEQEND
  5
3A8
330
3A5
100
AcDbEntity
  8
Layer 1
 62
     7
370
     5
  0
POLYLINE
  5
3A9
330
1F
100
AcDbEntity
  8
Layer 1
 62
     7
370
     5
100
AcDb2dPolyline
 66
     1
 10
0.0
 20
0.0
 30
0.0
  0
VERTEX
  5
3AA
330
3A9
100
AcDbEntity
  8
Layer 1
 62
     7
370
     5
100
AcDbVertex
100
AcDb2dVertex
 10
7.576199849446614
 20
6.226200103759766
 30
0.0
  0
VERTEX
  5
3AB
330
3A9
100
AcDbEntity
  8
Layer 1
 62
     7
370
     5
100
AcDbVertex
100
AcDb2dVertex
 10
7.073799981011284
 20
6.226200103759766
 30
0.0
  0
SEQEND
  5
3AC
330
3A9
100
AcDbEntity
  8
Layer 1
 62
     7
370
     5
  0
POLYLINE
  5
3AD
330
1F
100
AcDbEntity
  8
Layer 1
 62
     7
370
     5
100
AcDb2dPolyline
 66
     1
 10
0.0
 20
0.0
 30
0.0
  0
VERTEX
  5
3AE
330
3AD
100
AcDbEntity
  8
Layer 1
 62
     7
370
     5
100
AcDbVertex
100
AcDb2dVertex
 10
7.576199849446614
 20
3.22380002339681
 30
0.0
  0
VERTEX
  5
3AF
330
3AD
100
AcDbEntity
  8
Layer 1
 62
     7
370
     5
100
AcDbVertex
100
AcDb2dVertex
 10
7.576199849446614
 20
3.47380002339681
 30
0.0
  0
SEQEND
  5
3B0
330
3AD
100
AcDbEntity
  8
Layer 1
 62
     7
370
     5
  0
POLYLINE
  5
3B1
330
1F
100
AcDbEntity
  8
Layer 1
 62
     7
370
     5
100
AcDb2dPolyline
 66
     1
 10
0.0
 20
0.0
 30
0.0
  0
VERTEX
  5
3B2
330
3B1
100
AcDbEntity
  8
Layer 1
 62
     7
370
     5
100
AcDbVertex
100
AcDb2dVertex
 10
7.576199849446614
 20
3.47380002339681
 30
0.0
  0
VERTEX
  5
3B3
330
3B1
100
AcDbEntity
  8
Layer 1
 62
     7
370
     5
100
AcDbVertex
100
AcDb2dVertex
 10
8.073799981011284
 20
3.47380002339681
 30
0.0
  0
SEQEND
  5
3B4
330
3B1
100
AcDbEntity
  8
Layer 1
 62
     7
370
     5
  0
POLYLINE
  5
3B5
330
1F
100
AcDbEntity
  8
Layer 1
 62
     7
370
     5
100
AcDb2dPolyline
 66
     1
 10
0.0
 20
0.0
 30
0.0
  0
VERTEX
  5
3B6
330
3B5
100
AcDbEntity
  8
Layer 1
 62
     7
370
     5
100
AcDbVertex
100
AcDb2dVertex
 10
7.576199849446614
 20
5.976200103759766
 30
0.0
  0
VERTEX
  5
3B7
330
3B5
100
AcDbEntity
  8
Layer 1
 62
     7
370
     5
100
AcDbVertex
100
AcDb2dVertex
 10
7.576199849446614
 20
6.226200103759766
 30
0.0
  0
SEQEND
  5
3B8
330
3B5
100
AcDbEntity
  8
Layer 1
 62
     7
370
     5
  0
POLYLINE
  5
3B9
330
1F
100
AcDbEntity
  8
Layer 1
 62
     7
370
     5
100
AcDb2dPolyline
 66
     1
 10
0.0
 20
0.0
 30
0.0
  0
VERTEX
  5
3BA
330
3B9
100
AcDbEntity
  8
Layer 1
 62
     7
370
     5
100
AcDbVertex
100
AcDb2dVertex
 10
8.073799981011284
 20
5.976200103759766
 30
0.0
  0
VERTEX
  5
3BB
330
3B9
100
AcDbEntity
  8
Layer 1
 62
     7
370
     5
100
AcDbVertex
100
AcDb2dVertex
 10
7.576199849446614
 20
5.976200103759766
 30
0.0
  0
SEQEND
  5
3BC
330
3B9
100
AcDbEntity
  8
Layer 1
 62
     7
370
     5
  0
POLYLINE
  5
3BD
330
1F
100
AcDbEntity
  8
Layer 1
 62
     7
370
     5
100
AcDb2dPolyline
 66
     1
 10
0.0
 20
0.0
 30
0.0
  0
VERTEX
  5
3BE
330
3BD
100
AcDbEntity
  8
Layer 1
 62
     7
370
     5
100
AcDbVertex
100
AcDb2dVertex
 10
8.073799981011284
 20
3.47380002339681
 30
0.0
  0
VERTEX
  5
3BF
330
3BD
100
AcDbEntity
  8
Layer 1
 62
     7
370
     5
100
AcDbVertex
100
AcDb2dVertex
 10
8.073799981011284
 20
3.22380002339681
 30
0.0
  0
SEQEND
  5
3C0
330
3BD
100
AcDbEntity
  8
Layer 1
 62
     7
370
     5
  0
POLYLINE
  5
3C1
330
1F
100
AcDbEntity
  8
Layer 1
 62
     7
370
     5
100
AcDb2dPolyline
 66
     1
 10
0.0
 20
0.0
 30
0.0
  0
VERTEX
  5
3C2
330
3C1
100
AcDbEntity
  8
Layer 1
 62
     7
370
     5
100
AcDbVertex
100
AcDb2dVertex
 10
8.073799981011284
 20
3.22380002339681
 30
0.0
  0
VERTEX
  5
3C3
330
3C1
100
AcDbEntity
  8
Layer 1
 62
     7
370
     5
100
AcDbVertex
100
AcDb2dVertex
 10
8.576199849446613
 20
3.22380002339681
 30
0.0
  0
SEQEND
  5
3C4
330
3C1
100
AcDbEntity
  8
Layer 1
 62
     7
370
     5
  0
POLYLINE
  5
3C5
330
1F
100
AcDbEntity
  8
Layer 1
 62
     7
370
     5
100
AcDb2dPolyline
 66
     1
 10
0.0
 20
0.0
 30
0.0
  0
VERTEX
  5
3C6
330
3C5
100
AcDbEntity
  8
Layer 1
 62
     7
370
     5
100
AcDbVertex
100
AcDb2dVertex
 10
8.073799981011284
 20
6.226200103759766
 30
0.0
  0
VERTEX
  5
3C7
330
3C5
100
AcDbEntity
  8
Layer 1
 62
     7
370
     5
100
AcDbVertex
100
AcDb2dVertex
 10
8.073799981011284
 20
5.976200103759766
 30
0.0
  0
SEQEND
  5
3C8
330
3C5
100
AcDbEntity
  8
Layer 1
 62
     7
370
     5
  0
POLYLINE
  5
3C9
330
1F
100
AcDbEntity
  8
Layer 1
 62
     7
370
     5
100
AcDb2dPolyline
 66
     1
 10
0.0
 20
0.0
 30
0.0
  0
VERTEX
  5
3CA
330
3C9
100
AcDbEntity
  8
Layer 1
 62
     7
370
     5
100
AcDbVertex
100
AcDb2dVertex
 10
8.576199849446613
 20
6.226200103759766
 30
0.0
  0
VERTEX
  5
3CB
330
3C9
100
AcDbEntity
  8
Layer 1
 62
     7
370
     5
100
AcDbVertex
100
AcDb2dVertex
 10
8.073799981011284
 20
6.226200103759766
 30
0.0
  0
SEQEND
  5
3CC
330
3C9
100
AcDbEntity
  8
Layer 1
 62
     7
370
     5
  0
POLYLINE
  5
3CD
330
1F
100
AcDbEntity
  8
Layer 1
 62
     7
370
     5
100
AcDb2dPolyline
 66
     1
 10
0.0
 20
0.0
 30
0.0
  0
VERTEX
  5
3CE
330
3CD
100
AcDbEntity
  8
Layer 1
 62
     7
370
     5
100
AcDbVertex
100
AcDb2dVertex
 10
8.576199849446613
 20
3.22380002339681
 30
0.0
  0
VERTEX
  5
3CF
330
3CD
100
AcDbEntity
  8
Layer 1
 62
     7
370
     5
100
AcDbVertex
100
AcDb2dVertex
 10
8.576199849446613
 20
3.47380002339681
 30
0.0
  0
SEQEND
  5
3D0
330
3CD
100
AcDbEntity
  8
Layer 1
 62
     7
370
     5
  0
POLYLINE
  5
3D1
330
1F
100
AcDbEntity
  8
Layer 1
 62
     7
370
     5
100
AcDb2dPolyline
 66
     1
 10
0.0
 20
0.0
 30
0.0
  0
VERTEX
  5
3D2
330
3D1
100
AcDbEntity
  8
Layer 1
 62
     7
370
     5
100
AcDbVertex
100
AcDb2dVertex
 10
8.576199849446613
 20
3.47380002339681
 30
0.0
  0
VERTEX
  5
3D3
330
3D1
100
AcDbEntity
  8
Layer 1
 62
     7
370
     5
100
AcDbVertex
100
AcDb2dVertex
 10
9.076199849446613
 20
3.47380002339681
 30
0.0
  0
SEQEND
  5
3D4
330
3D1
100
AcDbEntity
  8
Layer 1
 62
     7
370
     5
  0
POLYLINE
  5
3D5
330
1F
100
AcDbEntity
  8
Layer 1
 62
     7
370
     5
100
AcDb2dPolyline
 66
     1
 10
0.0
 20
0.0
 30
0.0
  0
VERTEX
  5
3D6
330
3D5
100
AcDbEntity
  8
Layer 1
 62
     7
370
     5
100
AcDbVertex
100
AcDb2dVertex
 10
8.576199849446613
 20
5.976200103759766
 30
0.0
  0
VERTEX
  5
3D7
330
3D5
100
AcDbEntity
  8
Layer 1
 62
     7
370
     5
100
AcDbVertex
100
AcDb2dVertex
 10
8.576199849446613
 20
6.226200103759766
 30
0.0
  0
SEQEND
  5
3D8
330
3D5
100
AcDbEntity
  8
Layer 1
 62
     7
370
     5
  0
POLYLINE
  5
3D9
330
1F
100
AcDbEntity
  8
Layer 1
 62
     7
370
     5
100
AcDb2dPolyline
 66
     1
 10
0.0
 20
0.0
 30
0.0
  0
VERTEX
  5
3DA
330
3D9
100
AcDbEntity
  8
Layer 1
 62
     7
370
     5
100
AcDbVertex
100
AcDb2dVertex
 10
9.076199849446613
 20
5.976200103759766
 30
0.0
  0
VERTEX
  5
3DB
330
3D9
100
AcDbEntity
  8
Layer 1
 62
     7
370
     5
100
AcDbVertex
100
AcDb2dVertex
 10
8.576199849446613
 20
5.976200103759766
 30
0.0
  0
SEQEND
  5
3DC
330
3D9
100
AcDbEntity
  8
Layer 1
 62
     7
370
     5
  0
POLYLINE
  5
3DD
330
1F
100
AcDbEntity
  8
Layer 1
 62
     7
370
     5
100
AcDb2dPolyline
 66
     1
 10
0.0
 20
0.0
 30
0.0
  0
VERTEX
  5
3DE
330
3DD
100
AcDbEntity
  8
Layer 1
 62
     7
370
     5
100
AcDbVertex
100
AcDb2dVertex
 10
9.076199849446613
 20
3.47380002339681
 30
0.0
  0
VERTEX
  5
3DF
330
3DD
100
AcDbEntity
  8
Layer 1
 62
     7
370
     5
100
AcDbVertex
100
AcDb2dVertex
 10
9.076199849446613
 20
3.973799811469184
 30
0.0
  0
SEQEND
  5
3E0
330
3DD
100
AcDbEntity
  8
Layer 1
 62
     7
370
     5
  0
POLYLINE
  5
3E1
330
1F
100
AcDbEntity
  8
Layer 1
 62
     7
370
     5
100
AcDb2dPolyline
 66
     1
 10
0.0
 20
0.0
 30
0.0
  0
VERTEX
  5
3E2
330
3E1
100
AcDbEntity
  8
Layer 1
 62
     7
370
     5
100
AcDbVertex
100
AcDb2dVertex
 10
9.076199849446613
 20
3.973799811469184
 30
0.0
  0
VERTEX
  5
3E3
330
3E1
100
AcDbEntity
  8
Layer 1
 62
     7
370
     5
100
AcDbVertex
100
AcDb2dVertex
 10
9.326199849446613
 20
3.973799811469184
 30
0.0
  0
SEQEND
  5
3E4
330
3E1
100
AcDbEntity
  8
Layer 1
 62
     7
370
     5
  0
POLYLINE
  5
3E5
330
1F
100
AcDbEntity
  8
Layer 1
 62
     7
370
     5
100
AcDb2dPolyline
 66
     1
 10
0.0
 20
0.0
 30
0.0
  0
VERTEX
  5
3E6
330
3E5
100
AcDbEntity
  8
Layer 1
 62
     7
370
     5
100
AcDbVertex
100
AcDb2dVertex
 10
9.076199849446613
 20
4.476200103759766
 30
0.0
  0
VERTEX
  5
3E7
330
3E5
100
AcDbEntity
  8
Layer 1
 62
     7
370
     5
100
AcDbVertex
100
AcDb2dVertex
 10
9.076199849446613
 20
4.973799811469184
 30
0.0
  0
SEQEND
  5
3E8
330
3E5
100
AcDbEntity
  8
Layer 1
 62
     7
370
     5
  0
POLYLINE
  5
3E9
330
1F
100
AcDbEntity
  8
Layer 1
 62
     7
370
     5
100
AcDb2dPolyline
 66
     1
 10
0.0
 20
0.0
 30
0.0
  0
VERTEX
  5
3EA
330
3E9
100
AcDbEntity
  8
Layer 1
 62
     7
370
     5
100
AcDbVertex
100
AcDb2dVertex
 10
9.326199849446613
 20
4.476200103759766
 30
0.0
  0
VERTEX
  5
3EB
330
3E9
100
AcDbEntity
  8
Layer 1
 62
     7
370
     5
100
AcDbVertex
100
AcDb2dVertex
 10
9.076199849446613
 20
4.476200103759766
 30
0.0
  0
SEQEND
  5
3EC
330
3E9
100
AcDbEntity
  8
Layer 1
 62
     7
370
     5
  0
POLYLINE
  5
3ED
330
1F
100
AcDbEntity
  8
Layer 1
 62
     7
370
     5
100
AcDb2dPolyline
 66
     1
 10
0.0
 20
0.0
 30
0.0
  0
VERTEX
  5
3EE
330
3ED
100
AcDbEntity
  8
Layer 1
 62
     7
370
     5
100
AcDbVertex
100
AcDb2dVertex
 10
9.076199849446613
 20
4.973799811469184
 30
0.0
  0
VERTEX
  5
3EF
330
3ED
100
AcDbEntity
  8
Layer 1
 62
     7
370
     5
100
AcDbVertex
100
AcDb2dVertex
 10
9.326199849446613
 20
4.973799811469184
 30
0.0
  0
SEQEND
  5
3F0
330
3ED
100
AcDbEntity
  8
Layer 1
 62
     7
370
     5
  0
POLYLINE
  5
3F1
330
1F
100
AcDbEntity
  8
Layer 1
 62
     7
370
     5
100
AcDb2dPolyline
 66
     1
 10
0.0
 20
0.0
 30
0.0
  0
VERTEX
  5
3F2
330
3F1
100
AcDbEntity
  8
Layer 1
 62
     7
370
     5
100
AcDbVertex
100
AcDb2dVertex
 10
9.076199849446613
 20
5.476200103759766
 30
0.0
  0
VERTEX
  5
3F3
330
3F1
100
AcDbEntity
  8
Layer 1
 62
     7
370
     5
100
AcDbVertex
100
AcDb2dVertex
 10
9.076199849446613
 20
5.976200103759766
 30
0.0
  0
SEQEND
  5
3F4
330
3F1
100
AcDbEntity
  8
Layer 1
 62
     7
370
     5
  0
POLYLINE
  5
3F5
330
1F
100
AcDbEntity
  8
Layer 1
 62
     7
370
     5
100
AcDb2dPolyline
 66
     1
 10
0.0
 20
0.0
 30
0.0
  0
VERTEX
  5
3F6
330
3F5
100
AcDbEntity
  8
Layer 1
 62
     7
370
     5
100
AcDbVertex
100
AcDb2dVertex
 10
9.326199849446613
 20
5.476200103759766
 30
0.0
  0
VERTEX
  5
3F7
330
3F5
100
AcDbEntity
  8
Layer 1
 62
     7
370
     5
100
AcDbVertex
100
AcDb2dVertex
 10
9.076199849446613
 20
5.476200103759766
 30
0.0
  0
SEQEND
  5
3F8
330
3F5
100
AcDbEntity
  8
Layer 1
 62
     7
370
     5
  0
POLYLINE
  5
3F9
330
1F
100
AcDbEntity
  8
Layer 1
 62
     7
370
     5
100
AcDb2dPolyline
 66
     1
 10
0.0
 20
0.0
 30
0.0
  0
VERTEX
  5
3FA
330
3F9
100
AcDbEntity
  8
Layer 1
 62
     7
370
     5
100
AcDbVertex
100
AcDb2dVertex
 10
9.326199849446613
 20
3.973799811469184
 30
0.0
  0
VERTEX
  5
3FB
330
3F9
100
AcDbEntity
  8
Layer 1
 62
     7
370
     5
100
AcDbVertex
100
AcDb2dVertex
 10
9.326199849446613
 20
4.476200103759766
 30
0.0
  0
SEQEND
  5
3FC
330
3F9
100
AcDbEntity
  8
Layer 1
 62
     7
370
     5
  0
POLYLINE
  5
3FD
330
1F
100
AcDbEntity
  8
Layer 1
 62
     7
370
     5
100
AcDb2dPolyline
 66
     1
 10
0.0
 20
0.0
 30
0.0
  0
VERTEX
  5
3FE
330
3FD
100
AcDbEntity
  8
Layer 1
 62
     7
370
     5
100
AcDbVertex
100
AcDb2dVertex
 10
9.326199849446613
 20
4.973799811469184
 30
0.0
  0
VERTEX
  5
3FF
330
3FD
100
AcDbEntity
  8
Layer 1
 62
     7
370
     5
100
AcDbVertex
100
AcDb2dVertex
 10
9.326199849446613
 20
5.476200103759766
 30
0.0
  0
SEQEND
  5
400
330
3FD
100
AcDbEntity
  8
Layer 1
 62
     7
370
     5
  0
SPLINE
  5
401
330
1F
100
AcDbEntity
  8
Layer 1
 62
     7
370
     5
100
AcDbSpline
210
0.0
220
0.0
230
1.0
 70
    11
 71
     3
 72
    17
 73
    13
 74
     0
 42
0.0000000001
 43
0.0000000001
 12
1.0
 22
0.0
 32
0.0
 13
1.0
 23
0.0
 33
0.0
 40
0.0
 40
0.0
 40
0.0
 40
0.0
 40
1.0
 40
1.0
 40
1.0
 40
2.0
 40
2.0
 40
2.0
 40
3.0
 40
3.0
 40
3.0
 40
4.0
 40
4.0
 40
4.0
 40
4.0
 10
5.525599924723287
 20
10.92500008477105
 30
0.0
 10
5.525599924723287
 20
10.48317228493105
 30
0.0
 10
5.167427724563317
 20
10.12500008477106
 30
0.0
 10
4.725599924723307
 20
10.12500008477106
 30
0.0
 10
4.283772124883297
 20
10.12500008477106
 30
0.0
 10
3.925599924723302
 20
10.48317228493105
 30
0.0
 10
3.925599924723302
 20
10.92500008477105
 30
0.0
 10
3.925599924723302
 20
11.36682788461106
 30
0.0
 10
4.283772124883297
 20
11.72500008477106
 30
0.0
 10
4.725599924723307
 20
11.72500008477106
 30
0.0
 10
5.167427724563317
 20
11.72500008477106
 30
0.0
 10
5.525599924723287
 20
11.36682788461106
 30
0.0
 10
5.525599924723287
 20
10.92500008477105
 30
0.0
  0
SPLINE
  5
402
330
1F
100
AcDbEntity
  8
Layer 1
 62
     7
370
     5
100
AcDbSpline
210
0.0
220
0.0
230
1.0
 70
    11
 71
     3
 72
    17
 73
    13
 74
     0
 42
0.0000000001
 43
0.0000000001
 12
1.0
 22
0.0
 32
0.0
 13
1.0
 23
0.0
 33
0.0
 40
0.0
 40
0.0
 40
0.0
 40
0.0
 40
1.0
 40
1.0
 40
1.0
 40
2.0
 40
2.0
 40
2.0
 40
3.0
 40
3.0
 40
3.0
 40
4.0
 40
4.0
 40
4.0
 40
4.0
 10
4.775000063578292
 20
6.82499991522895
 30
0.0
 10
4.775000063578292
 20
6.797385677738955
 30
0.0
 10
4.752614301068282
 20
6.774999915228957
 30
0.0
 10
4.725000063578287
 20
6.774999915228957
 30
0.0
 10
4.69738582608828
 20
6.774999915228957
 30
0.0
 10
4.675000063578282
 20
6.797385677738955
 30
0.0
 10
4.675000063578282
 20
6.82499991522895
 30
0.0
 10
4.675000063578282
 20
6.852614152718957
 30
0.0
 10
4.69738582608828
 20
6.874999915228955
 30
0.0
 10
4.725000063578287
 20
6.874999915228955
 30
0.0
 10
4.752614301068282
 20
6.874999915228955
 30
0.0
 10
4.775000063578292
 20
6.852614152718957
 30
0.0
 10
4.775000063578292
 20
6.82499991522895
 30
0.0
  0
ENDSEC
  0
SECTION
  2
OBJECTS
  0
DICTIONARY
  5
C
330
0
100
AcDbDictionary
281
     1
  3
ACAD_GROUP
350
D
  3
ACAD_LAYOUT
350
1A
  3
ACAD_MATERIAL
350
3B
  3
ACAD_MLEADERSTYLE
350
405
  3
ACAD_MLINESTYLE
350
17
  3
ACAD_PLOTSETTINGS
350
19
  3
ACAD_PLOTSTYLENAME
350
E
  3
ACAD_VISUALSTYLE
350
2A
  3
AcDbVariableDictionary
350
403
  0
DICTIONARY
  5
D
102
{ACAD_REACTORS
330
C
102
}
330
C
100
AcDbDictionary
281
     1
  0
DICTIONARY
  5
1A
102
{ACAD_REACTORS
330
C
102
}
330
C
100
AcDbDictionary
281
     1
  3
Layout1
350
1E
  3
Layout2
350
26
  3
Model
350
22
  0
DICTIONARY
  5
3B
102
{ACAD_REACTORS
330
C
102
}
330
C
100
AcDbDictionary
281
     1
  3
ByBlock
350
3D
  3
ByLayer
350
3C
  3
Global
350
3E
  0
DICTIONARY
  5
405
102
{ACAD_REACTORS
330
C
102
}
330
C
100
AcDbDictionary
281
     1
  0
DICTIONARY
  5
17
102
{ACAD_REACTORS
330
C
102
}
330
C
100
AcDbDictionary
281
     1
  3
Standard
350
18
  0
DICTIONARY
  5
19
102
{ACAD_REACTORS
330
C
102
}
330
C
100
AcDbDictionary
281
     1
  0
ACDBDICTIONARYWDFLT
  5
E
102
{ACAD_REACTORS
330
C
102
}
330
C
100
AcDbDictionary
281
     1
  3
Normal
350
F
100
AcDbDictionaryWithDefault
340
F
  0
DICTIONARY
  5
2A
102
{ACAD_REACTORS
330
C
102
}
330
C
100
AcDbDictionary
281
     1
  3
2dWireframe
350
2F
  3
3D Hidden
350
31
  3
3dWireframe
350
30
  3
Basic
350
32
  3
Brighten
350
36
  3
ColorChange
350
3A
  3
Conceptual
350
34
  3
Dim
350
35
  3
Facepattern
350
39
  3
Flat
350
2B
  3
FlatWithEdges
350
2C
  3
Gouraud
350
2D
  3
GouraudWithEdges
350
2E
  3
Linepattern
350
38
  3
Realistic
350
33
  3
Thicken
350
37
  0
DICTIONARY
  5
403
102
{ACAD_REACTORS
330
C
102
}
330
C
100
AcDbDictionary
281
     1
  3
DIMASSOC
350
406
  3
HIDETEXT
350
407
  0
LAYOUT
  5
1E
102
{ACAD_REACTORS
330
1A
102
}
330
1A
100
AcDbPlotSettings
  1

  2
none_device
  4

  6

 40
0.0
 41
0.0
 42
0.0
 43
0.0
 44
0.0
 45
0.0
 46
0.0
 47
0.0
 48
0.0
 49
0.0
140
0.0
141
0.0
142
1.0
143
1.0
 70
   688
 72
     0
 73
     0
 74
     5
  7

 75
    16
147
1.0
148
0.0
149
0.0
100
AcDbLayout
  1
Layout1
 70
     1
 71
     1
 10
0.0
 20
0.0
 11
12.0
 21
9.0
 12
0.0
 22
0.0
 32
0.0
 14
1.000000000000000E+20
 24
1.000000000000000E+20
 34
1.000000000000000E+20
 15
-1.000000000000000E+20
 25
-1.000000000000000E+20
 35
-1.000000000000000E+20
146
0.0
 13
0.0
 23
0.0
 33
0.0
 16
1.0
 26
0.0
 36
0.0
 17
0.0
 27
1.0
 37
0.0
 76
     0
330
1B
  0
LAYOUT
  5
26
102
{ACAD_REACTORS
330
1A
102
}
330
1A
100
AcDbPlotSettings
  1

  2
none_device
  4

  6

 40
0.0
 41
0.0
 42
0.0
 43
0.0
 44
0.0
 45
0.0
 46
0.0
 47
0.0
 48
0.0
 49
0.0
140
0.0
141
0.0
142
1.0
143
1.0
 70
   688
 72
     0
 73
     0
 74
     5
  7

 75
    16
147
1.0
148
0.0
149
0.0
100
AcDbLayout
  1
Layout2
 70
     1
 71
     2
 10
0.0
 20
0.0
 11
0.0
 21
0.0
 12
0.0
 22
0.0
 32
0.0
 14
0.0
 24
0.0
 34
0.0
 15
0.0
 25
0.0
 35
0.0
146
0.0
 13
0.0
 23
0.0
 33
0.0
 16
1.0
 26
0.0
 36
0.0
 17
0.0
 27
1.0
 37
0.0
 76
     0
330
23
  0
LAYOUT
  5
22
102
{ACAD_REACTORS
330
1A
102
}
330
1A
100
AcDbPlotSettings
  1

  2
none_device
  4

  6

 40
0.0
 41
0.0
 42
0.0
 43
0.0
 44
0.0
 45
0.0
 46
0.0
 47
0.0
 48
0.0
 49
0.0
140
0.0
141
0.0
142
1.0
143
1.0
 70
  1712
 72
     0
 73
     0
 74
     0
  7

 75
     0
147
1.0
148
0.0
149
0.0
100
AcDbLayout
  1
Model
 70
     1
 71
     0
 10
0.0
 20
0.0
 11
12.0
 21
9.0
 12
0.0
 22
0.0
 32
0.0
 14
1.000000000000000E+20
 24
1.000000000000000E+20
 34
1.000000000000000E+20
 15
-1.000000000000000E+20
 25
-1.000000000000000E+20
 35
-1.000000000000000E+20
146
0.0
 13
0.0
 23
0.0
 33
0.0
 16
1.0
 26
0.0
 36
0.0
 17
0.0
 27
1.0
 37
0.0
 76
     0
330
1F
331
29
  0
MATERIAL
  5
3D
102
{ACAD_REACTORS
330
3B
102
}
102
{ACAD_XDICTIONARY
360
42A
102
}
330
3B
100
AcDbMaterial
  1
ByBlock
  0
MATERIAL
  5
3C
102
{ACAD_REACTORS
330
3B
102
}
102
{ACAD_XDICTIONARY
360
428
102
}
330
3B
100
AcDbMaterial
  1
ByLayer
  0
MATERIAL
  5
3E
102
{ACAD_REACTORS
330
3B
102
}
102
{ACAD_XDICTIONARY
360
42C
102
}
330
3B
100
AcDbMaterial
  1
Global
  0
MLINESTYLE
  5
18
102
{ACAD_REACTORS
330
17
102
}
330
17
100
AcDbMlineStyle
  2
Standard
 70
     0
  3

 62
   256
 51
90.0
 52
90.0
 71
     2
 49
0.5
 62
   256
  6
BYLAYER
 49
-0.5
 62
   256
  6
BYLAYER
  0
ACDBPLACEHOLDER
  5
F
102
{ACAD_REACTORS
330
E
102
}
330
E
  0
VISUALSTYLE
  5
2F
102
{ACAD_REACTORS
330
2A
102
}
102
{ACAD_XDICTIONARY
360
410
102
}
330
2A
100
AcDbVisualStyle
  2
2dWireframe
 70
     4
 71
     0
 72
     2
 73
     0
 90
        0
 40
-0.6
 41
-30.0
 62
     5
 63
     7
 74
     1
 91
        4
 64
     7
 65
   257
 75
     1
175
     1
 42
1.0
 92
        0
 66
   257
 43
1.0
 76
     1
 77
     6
 78
     2
 67
     7
 79
     5
170
     0
171
     0
290
     0
174
     0
 93
        1
 44
0.0
173
     0
291
     0
 45
0.0
1001
ACAD
1000
AcDbSavedByObjectVersion
1070
     0
  0
VISUALSTYLE
  5
31
102
{ACAD_REACTORS
330
2A
102
}
102
{ACAD_XDICTIONARY
360
414
102
}
330
2A
100
AcDbVisualStyle
  2
3D Hidden
 70
     6
 71
     1
 72
     2
 73
     2
 90
        0
 40
-0.6
 41
-30.0
 62
     5
 63
     7
 74
     2
 91
        2
 64
     7
 65
   257
 75
     2
175
     1
 42
40.0
 92
        0
 66
   257
 43
1.0
 76
     1
 77
     6
 78
     2
 67
     7
 79
     3
170
     0
171
     0
290
     0
174
     0
 93
        1
 44
0.0
173
     0
291
     0
 45
0.0
1001
ACAD
1000
AcDbSavedByObjectVersion
1070
     0
  0
VISUALSTYLE
  5
30
102
{ACAD_REACTORS
330
2A
102
}
102
{ACAD_XDICTIONARY
360
412
102
}
330
2A
100
AcDbVisualStyle
  2
3dWireframe
 70
     5
 71
     0
 72
     2
 73
     0
 90
        0
 40
-0.6
 41
-30.0
 62
     5
 63
     7
 74
     1
 91
        4
 64
     7
 65
   257
 75
     1
175
     1
 42
1.0
 92
        0
 66
   257
 43
1.0
 76
     1
 77
     6
 78
     2
 67
     7
 79
     5
170
     0
171
     0
290
     0
174
     0
 93
        1
 44
0.0
173
     0
291
     0
 45
0.0
1001
ACAD
1000
AcDbSavedByObjectVersion
1070
     0
  0
VISUALSTYLE
  5
32
102
{ACAD_REACTORS
330
2A
102
}
102
{ACAD_XDICTIONARY
360
416
102
}
330
2A
100
AcDbVisualStyle
  2
Basic
 70
     7
 71
     1
 72
     0
 73
     1
 90
        0
 40
-0.6
 41
-30.0
 62
     5
 63
     7
 74
     0
 91
        4
 64
     7
 65
   257
 75
     1
175
     1
 42
1.0
 92
        8
 66
     7
 43
1.0
 76
     1
 77
     6
 78
     2
 67
     7
 79
     5
170
     0
171
     0
290
     0
174
     0
 93
        1
 44
0.0
173
     0
291
     1
 45
0.0
1001
ACAD
1000
AcDbSavedByObjectVersion
1070
     0
  0
VISUALSTYLE
  5
36
102
{ACAD_REACTORS
330
2A
102
}
102
{ACAD_XDICTIONARY
360
41E
102
}
330
2A
100
AcDbVisualStyle
  2
Brighten
 70
    12
 71
     2
 72
     2
 73
     0
 90
        0
 40
-0.6
 41
-30.0
 62
     5
 63
     7
 74
     1
 91
        4
 64
     7
 65
   257
 75
     1
175
     1
 42
1.0
 92
        8
 66
     7
 43
1.0
 76
     1
 77
     6
 78
     2
 67
     7
 79
     5
170
     0
171
     0
290
     0
174
     0
 93
        1
 44
50.0
173
     0
291
     1
 45
0.0
1001
ACAD
1000
AcDbSavedByObjectVersion
1070
     0
  0
VISUALSTYLE
  5
3A
102
{ACAD_REACTORS
330
2A
102
}
102
{ACAD_XDICTIONARY
360
426
102
}
330
2A
100
AcDbVisualStyle
  2
ColorChange
 70
    16
 71
     2
 72
     2
 73
     3
 90
        0
 40
-0.6
 41
-30.0
 62
     5
 63
     8
 74
     1
 91
        4
 64
     7
 65
   257
 75
     1
175
     1
 42
1.0
 92
        8
 66
     8
 43
1.0
 76
     1
 77
     6
 78
     2
 67
     7
 79
     5
170
     0
171
     0
290
     0
174
     0
 93
        1
 44
0.0
173
     0
291
     1
 45
0.0
1001
ACAD
1000
AcDbSavedByObjectVersion
1070
     0
  0
VISUALSTYLE
  5
34
102
{ACAD_REACTORS
330
2A
102
}
102
{ACAD_XDICTIONARY
360
41A
102
}
330
2A
100
AcDbVisualStyle
  2
Conceptual
 70
     9
 71
     3
 72
     2
 73
     0
 90
        0
 40
-0.6
 41
-30.0
 62
     5
 63
     7
 74
     2
 91
        2
 64
     7
 65
   257
 75
     1
175
     1
 42
40.0
 92
        8
 66
     7
 43
1.0
 76
     1
 77
     6
 78
     2
 67
     7
 79
     3
170
     0
171
     0
290
     0
174
     0
 93
        1
 44
0.0
173
     0
291
     0
 45
0.0
1001
ACAD
1000
AcDbSavedByObjectVersion
1070
     0
  0
VISUALSTYLE
  5
35
102
{ACAD_REACTORS
330
2A
102
}
102
{ACAD_XDICTIONARY
360
41C
102
}
330
2A
100
AcDbVisualStyle
  2
Dim
 70
    11
 71
     2
 72
     2
 73
     0
 90
        0
 40
-0.6
 41
-30.0
 62
     5
 63
     7
 74
     1
 91
        4
 64
     7
 65
   257
 75
     1
175
     1
 42
1.0
 92
        8
 66
     7
 43
1.0
 76
     1
 77
     6
 78
     2
 67
     7
 79
     5
170
     0
171
     0
290
     0
174
     0
 93
        1
 44
-50.0
173
     0
291
     1
 45
0.0
1001
ACAD
1000
AcDbSavedByObjectVersion
1070
     0
  0
VISUALSTYLE
  5
39
102
{ACAD_REACTORS
330
2A
102
}
102
{ACAD_XDICTIONARY
360
424
102
}
330
2A
100
AcDbVisualStyle
  2
Facepattern
 70
    15
 71
     2
 72
     2
 73
     0
 90
        0
 40
-0.6
 41
-30.0
 62
     5
 63
     7
 74
     1
 91
        4
 64
     7
 65
   257
 75
     1
175
     1
 42
1.0
 92
        8
 66
     7
 43
1.0
 76
     1
 77
     6
 78
     2
 67
     7
 79
     5
170
     0
171
     0
290
     0
174
     0
 93
        1
 44
0.0
173
     0
291
     1
 45
0.0
1001
ACAD
1000
AcDbSavedByObjectVersion
1070
     0
  0
VISUALSTYLE
  5
2B
102
{ACAD_REACTORS
330
2A
102
}
102
{ACAD_XDICTIONARY
360
408
102
}
330
2A
100
AcDbVisualStyle
  2
Flat
 70
     0
 71
     2
 72
     1
 73
     1
 90
        2
 40
-0.6
 41
30.0
 62
     5
 63
     7
 74
     0
 91
        4
 64
     7
 65
   257
 75
     1
175
     1
 42
1.0
 92
        8
 66
     7
 43
1.0
 76
     1
 77
     6
 78
     2
 67
     7
 79
     5
170
     0
171
     0
290
     0
174
     0
 93
       13
 44
0.0
173
     0
291
     1
 45
0.0
1001
ACAD
1000
AcDbSavedByObjectVersion
1070
     0
  0
VISUALSTYLE
  5
2C
102
{ACAD_REACTORS
330
2A
102
}
102
{ACAD_XDICTIONARY
360
40A
102
}
330
2A
100
AcDbVisualStyle
  2
FlatWithEdges
 70
     1
 71
     2
 72
     1
 73
     1
 90
        2
 40
-0.6
 41
30.0
 62
     5
 63
     7
 74
     1
 91
        4
 64
     7
 65
   257
 75
     1
175
     1
 42
1.0
 92
        0
 66
   257
 43
1.0
 76
     1
 77
     6
 78
     2
 67
     7
 79
     5
170
     0
171
     0
290
     0
174
     0
 93
       13
 44
0.0
173
     0
291
     1
 45
0.0
1001
ACAD
1000
AcDbSavedByObjectVersion
1070
     0
  0
VISUALSTYLE
  5
2D
102
{ACAD_REACTORS
330
2A
102
}
102
{ACAD_XDICTIONARY
360
40C
102
}
330
2A
100
AcDbVisualStyle
  2
Gouraud
 70
     2
 71
     2
 72
     2
 73
     1
 90
        2
 40
-0.6
 41
30.0
 62
     5
 63
     7
 74
     0
 91
        4
 64
     7
 65
   257
 75
     1
175
     1
 42
1.0
 92
        0
 66
     7
 43
1.0
 76
     1
 77
     6
 78
     2
 67
     7
 79
     5
170
     0
171
     0
290
     0
174
     0
 93
       13
 44
0.0
173
     0
291
     1
 45
0.0
1001
ACAD
1000
AcDbSavedByObjectVersion
1070
     0
  0
VISUALSTYLE
  5
2E
102
{ACAD_REACTORS
330
2A
102
}
102
{ACAD_XDICTIONARY
360
40E
102
}
330
2A
100
AcDbVisualStyle
  2
GouraudWithEdges
 70
     3
 71
     2
 72
     2
 73
     1
 90
        2
 40
-0.6
 41
30.0
 62
     5
 63
     7
 74
     1
 91
        4
 64
     7
 65
   257
 75
     1
175
     1
 42
1.0
 92
        0
 66
   257
 43
1.0
 76
     1
 77
     6
 78
     2
 67
     7
 79
     5
170
     0
171
     0
290
     0
174
     0
 93
       13
 44
0.0
173
     0
291
     1
 45
0.0
1001
ACAD
1000
AcDbSavedByObjectVersion
1070
     0
  0
VISUALSTYLE
  5
38
102
{ACAD_REACTORS
330
2A
102
}
102
{ACAD_XDICTIONARY
360
422
102
}
330
2A
100
AcDbVisualStyle
  2
Linepattern
 70
    14
 71
     2
 72
     2
 73
     0
 90
        0
 40
-0.6
 41
-30.0
 62
     5
 63
     7
 74
     1
 91
        4
 64
     7
 65
   257
 75
     7
175
     7
 42
1.0
 92
        8
 66
     7
 43
1.0
 76
     1
 77
     6
 78
     2
 67
     7
 79
     5
170
     0
171
     0
290
     0
174
     0
 93
        1
 44
0.0
173
     0
291
     1
 45
0.0
1001
ACAD
1000
AcDbSavedByObjectVersion
1070
     0
  0
VISUALSTYLE
  5
33
102
{ACAD_REACTORS
330
2A
102
}
102
{ACAD_XDICTIONARY
360
418
102
}
330
2A
100
AcDbVisualStyle
  2
Realistic
 70
     8
 71
     2
 72
     2
 73
     0
 90
        0
 40
-0.6
 41
-30.0
 62
     5
 63
     7
 74
     1
 91
        0
 64
     7
 65
   257
 75
     1
175
     1
 42
1.0
 92
        8
 66
     8
 43
1.0
 76
     1
 77
     6
 78
     2
 67
     7
 79
     5
170
     0
171
     0
290
     0
174
     0
 93
       13
 44
0.0
173
     0
291
     0
 45
0.0
1001
ACAD
1000
AcDbSavedByObjectVersion
1070
     0
  0
VISUALSTYLE
  5
37
102
{ACAD_REACTORS
330
2A
102
}
102
{ACAD_XDICTIONARY
360
420
102
}
330
2A
100
AcDbVisualStyle
  2
Thicken
 70
    13
 71
     2
 72
     2
 73
     0
 90
        0
 40
-0.6
 41
-30.0
 62
     5
 63
     7
 74
     1
 91
        4
 64
     7
 65
   257
 75
     1
175
     1
 42
1.0
 92
       12
 66
     7
 43
1.0
 76
     1
 77
     6
 78
     2
 67
     7
 79
     5
170
     0
171
     0
290
     0
174
     0
 93
        1
 44
0.0
173
     0
291
     1
 45
0.0
1001
ACAD
1000
AcDbSavedByObjectVersion
1070
     0
  0
DICTIONARYVAR
  5
406
102
{ACAD_REACTORS
330
403
102
}
330
403
100
DictionaryVariables
280
     0
  1
2
  0
DICTIONARYVAR
  5
407
102
{ACAD_REACTORS
330
403
102
}
330
403
100
DictionaryVariables
280
     0
  1
1
  0
DICTIONARY
  5
42A
330
3D
100
AcDbDictionary
280
     1
281
     1
  3
ACAD_XREC_ROUNDTRIP
360
42B
  0
DICTIONARY
  5
428
330
3C
100
AcDbDictionary
280
     1
281
     1
  3
ACAD_XREC_ROUNDTRIP
360
429
  0
DICTIONARY
  5
42C
330
3E
100
AcDbDictionary
280
     1
281
     1
  3
ACAD_XREC_ROUNDTRIP
360
42D
  0
DICTIONARY
  5
410
330
2F
100
AcDbDictionary
280
     1
281
     1
  3
ACAD_XREC_ROUNDTRIP
360
411
  0
DICTIONARY
  5
414
330
31
100
AcDbDictionary
280
     1
281
     1
  3
ACAD_XREC_ROUNDTRIP
360
415
  0
DICTIONARY
  5
412
330
30
100
AcDbDictionary
280
     1
281
     1
  3
ACAD_XREC_ROUNDTRIP
360
413
  0
DICTIONARY
  5
416
330
32
100
AcDbDictionary
280
     1
281
     1
  3
ACAD_XREC_ROUNDTRIP
360
417
  0
DICTIONARY
  5
41E
330
36
100
AcDbDictionary
280
     1
281
     1
  3
ACAD_XREC_ROUNDTRIP
360
41F
  0
DICTIONARY
  5
426
330
3A
100
AcDbDictionary
280
     1
281
     1
  3
ACAD_XREC_ROUNDTRIP
360
427
  0
DICTIONARY
  5
41A
330
34
100
AcDbDictionary
280
     1
281
     1
  3
ACAD_XREC_ROUNDTRIP
360
41B
  0
DICTIONARY
  5
41C
330
35
100
AcDbDictionary
280
     1
281
     1
  3
ACAD_XREC_ROUNDTRIP
360
41D
  0
DICTIONARY
  5
424
330
39
100
AcDbDictionary
280
     1
281
     1
  3
ACAD_XREC_ROUNDTRIP
360
425
  0
DICTIONARY
  5
408
330
2B
100
AcDbDictionary
280
     1
281
     1
  3
ACAD_XREC_ROUNDTRIP
360
409
  0
DICTIONARY
  5
40A
330
2C
100
AcDbDictionary
280
     1
281
     1
  3
ACAD_XREC_ROUNDTRIP
360
40B
  0
DICTIONARY
  5
40C
330
2D
100
AcDbDictionary
280
     1
281
     1
  3
ACAD_XREC_ROUNDTRIP
360
40D
  0
DICTIONARY
  5
40E
330
2E
100
AcDbDictionary
280
     1
281
     1
  3
ACAD_XREC_ROUNDTRIP
360
40F
  0
DICTIONARY
  5
422
330
38
100
AcDbDictionary
280
     1
281
     1
  3
ACAD_XREC_ROUNDTRIP
360
423
  0
DICTIONARY
  5
418
330
33
100
AcDbDictionary
280
     1
281
     1
  3
ACAD_XREC_ROUNDTRIP
360
419
  0
DICTIONARY
  5
420
330
37
100
AcDbDictionary
280
     1
281
     1
  3
ACAD_XREC_ROUNDTRIP
360
421
  0
XRECORD
  5
42B
102
{ACAD_REACTORS
330
42A
102
}
330
42A
100
AcDbXrecord
280
     1
102
MATERIAL
148
0.0
149
0.0
149
0.0
 93
        0
 94
      127
282
     0
 72
     1
 77
     1
171
     1
175
     1
179
     1
273
     0
  0
XRECORD
  5
429
102
{ACAD_REACTORS
330
428
102
}
330
428
100
AcDbXrecord
280
     1
102
MATERIAL
148
0.0
149
0.0
149
0.0
 93
        0
 94
      127
282
     0
 72
     1
 77
     1
171
     1
175
     1
179
     1
273
     0
  0
XRECORD
  5
42D
102
{ACAD_REACTORS
330
42C
102
}
330
42C
100
AcDbXrecord
280
     1
102
MATERIAL
148
0.0
149
0.0
149
0.0
 93
        0
 94
      127
282
     0
 72
     1
 77
     1
171
     1
175
     1
179
     1
273
     0
  0
XRECORD
  5
411
102
{ACAD_REACTORS
330
410
102
}
330
410
100
AcDbXrecord
280
     1
102
RTVSPropertyOp0
 70
     1
102
RTVSPropertyOp1
 70
     1
102
RTVSPropertyOp2
 70
     1
102
RTVSPropertyOp3
 70
     1
102
RTVSPropertyOp4
 70
     1
102
RTVSPropertyOp5
 70
     1
102
RTVSPropertyOp6
 70
     1
102
RTVSPropertyOp7
 70
     1
102
RTVSPropertyOp8
 70
     1
102
RTVSPropertyOp9
 70
     1
102
RTVSPropertyOp10
 70
     1
102
RTVSPropertyOp11
 70
     1
102
RTVSPropertyOp12
 70
     1
102
RTVSPropertyOp13
 70
     1
102
RTVSPropertyOp14
 70
     1
102
RTVSPropertyOp15
 70
     1
102
RTVSPropertyOp16
 70
     1
102
RTVSPropertyOp17
 70
     1
102
RTVSPropertyOp18
 70
     1
102
RTVSPropertyOp19
 70
     1
102
RTVSPropertyOp20
 70
     1
102
RTVSPropertyOp21
 70
     1
102
RTVSPropertyOp22
 70
     1
102
RTVSPropertyOp23
 70
     1
102
RTVSPropertyOp24
 70
     1
102
RTVSPropertyOp25
 70
     1
102
RTVSPropertyOp26
 70
     1
102
RTVSPropertyOp27
 70
     1
102
RTVSPropertyOp28
 70
     1
102
RTVSPropertyOp29
 70
     1
102
RTVSPropertyOp30
 70
     1
102
RTVSPropertyOp31
 70
     1
102
RTVSPropertyOp32
 70
     1
  0
XRECORD
  5
415
102
{ACAD_REACTORS
330
414
102
}
330
414
100
AcDbXrecord
280
     1
102
RTVSPropertyOp0
 70
     1
102
RTVSPropertyOp1
 70
     1
102
RTVSPropertyOp2
 70
     1
102
RTVSPropertyOp3
 70
     1
102
RTVSPropertyOp4
 70
     1
102
RTVSPropertyOp5
 70
     1
102
RTVSPropertyOp6
 70
     1
102
RTVSPropertyOp7
 70
     1
102
RTVSPropertyOp8
 70
     1
102
RTVSPropertyOp9
 70
     1
102
RTVSPropertyOp10
 70
     1
102
RTVSPropertyOp11
 70
     1
102
RTVSPropertyOp12
 70
     1
102
RTVSPropertyOp13
 70
     1
102
RTVSPropertyOp14
 70
     1
102
RTVSPropertyOp15
 70
     1
102
RTVSPropertyOp16
 70
     1
102
RTVSPropertyOp17
 70
     1
102
RTVSPropertyOp18
 70
     1
102
RTVSPropertyOp19
 70
     1
102
RTVSPropertyOp20
 70
     1
102
RTVSPropertyOp21
 70
     1
102
RTVSPropertyOp22
 70
     1
102
RTVSPropertyOp23
 70
     1
102
RTVSPropertyOp24
 70
     1
102
RTVSPropertyOp25
 70
     1
102
RTVSPropertyOp26
 70
     1
102
RTVSPropertyOp27
 70
     1
102
RTVSPropertyOp28
 70
     1
102
RTVSPropertyOp29
 70
     1
102
RTVSPropertyOp30
 70
     1
102
RTVSPropertyOp31
 70
     1
102
RTVSPropertyOp32
 70
     1
  0
XRECORD
  5
413
102
{ACAD_REACTORS
330
412
102
}
330
412
100
AcDbXrecord
280
     1
102
RTVSPropertyOp0
 70
     1
102
RTVSPropertyOp1
 70
     1
102
RTVSPropertyOp2
 70
     1
102
RTVSPropertyOp3
 70
     1
102
RTVSPropertyOp4
 70
     1
102
RTVSPropertyOp5
 70
     1
102
RTVSPropertyOp6
 70
     1
102
RTVSPropertyOp7
 70
     1
102
RTVSPropertyOp8
 70
     1
102
RTVSPropertyOp9
 70
     1
102
RTVSPropertyOp10
 70
     1
102
RTVSPropertyOp11
 70
     1
102
RTVSPropertyOp12
 70
     1
102
RTVSPropertyOp13
 70
     1
102
RTVSPropertyOp14
 70
     1
102
RTVSPropertyOp15
 70
     1
102
RTVSPropertyOp16
 70
     1
102
RTVSPropertyOp17
 70
     1
102
RTVSPropertyOp18
 70
     1
102
RTVSPropertyOp19
 70
     1
102
RTVSPropertyOp20
 70
     1
102
RTVSPropertyOp21
 70
     1
102
RTVSPropertyOp22
 70
     1
102
RTVSPropertyOp23
 70
     1
102
RTVSPropertyOp24
 70
     1
102
RTVSPropertyOp25
 70
     1
102
RTVSPropertyOp26
 70
     1
102
RTVSPropertyOp27
 70
     1
102
RTVSPropertyOp28
 70
     1
102
RTVSPropertyOp29
 70
     1
102
RTVSPropertyOp30
 70
     1
102
RTVSPropertyOp31
 70
     1
102
RTVSPropertyOp32
 70
     1
  0
XRECORD
  5
417
102
{ACAD_REACTORS
330
416
102
}
330
416
100
AcDbXrecord
280
     1
102
RTVSPropertyOp0
 70
     1
102
RTVSPropertyOp1
 70
     1
102
RTVSPropertyOp2
 70
     1
102
RTVSPropertyOp3
 70
     1
102
RTVSPropertyOp4
 70
     1
102
RTVSPropertyOp5
 70
     1
102
RTVSPropertyOp6
 70
     1
102
RTVSPropertyOp7
 70
     1
102
RTVSPropertyOp8
 70
     1
102
RTVSPropertyOp9
 70
     1
102
RTVSPropertyOp10
 70
     1
102
RTVSPropertyOp11
 70
     1
102
RTVSPropertyOp12
 70
     1
102
RTVSPropertyOp13
 70
     1
102
RTVSPropertyOp14
 70
     1
102
RTVSPropertyOp15
 70
     1
102
RTVSPropertyOp16
 70
     1
102
RTVSPropertyOp17
 70
     1
102
RTVSPropertyOp18
 70
     1
102
RTVSPropertyOp19
 70
     1
102
RTVSPropertyOp20
 70
     1
102
RTVSPropertyOp21
 70
     1
102
RTVSPropertyOp22
 70
     1
102
RTVSPropertyOp23
 70
     1
102
RTVSPropertyOp24
 70
     1
102
RTVSPropertyOp25
 70
     1
102
RTVSPropertyOp26
 70
     1
102
RTVSPropertyOp27
 70
     1
102
RTVSPropertyOp28
 70
     1
102
RTVSPropertyOp29
 70
     1
102
RTVSPropertyOp30
 70
     1
102
RTVSPropertyOp31
 70
     1
102
RTVSPropertyOp32
 70
     1
  0
XRECORD
  5
41F
102
{ACAD_REACTORS
330
41E
102
}
330
41E
100
AcDbXrecord
280
     1
102
RTVSPropertyOp0
 70
     1
102
RTVSPropertyOp1
 70
     1
102
RTVSPropertyOp2
 70
     1
102
RTVSPropertyOp3
 70
     1
102
RTVSPropertyOp4
 70
     1
102
RTVSPropertyOp5
 70
     1
102
RTVSPropertyOp6
 70
     1
102
RTVSPropertyOp7
 70
     1
102
RTVSPropertyOp8
 70
     1
102
RTVSPropertyOp9
 70
     1
102
RTVSPropertyOp10
 70
     1
102
RTVSPropertyOp11
 70
     1
102
RTVSPropertyOp12
 70
     1
102
RTVSPropertyOp13
 70
     1
102
RTVSPropertyOp14
 70
     1
102
RTVSPropertyOp15
 70
     1
102
RTVSPropertyOp16
 70
     1
102
RTVSPropertyOp17
 70
     1
102
RTVSPropertyOp18
 70
     1
102
RTVSPropertyOp19
 70
     1
102
RTVSPropertyOp20
 70
     1
102
RTVSPropertyOp21
 70
     1
102
RTVSPropertyOp22
 70
     1
102
RTVSPropertyOp23
 70
     1
102
RTVSPropertyOp24
 70
     1
102
RTVSPropertyOp25
 70
     1
102
RTVSPropertyOp26
 70
     1
102
RTVSPropertyOp27
 70
     1
102
RTVSPropertyOp28
 70
     1
102
RTVSPropertyOp29
 70
     1
102
RTVSPropertyOp30
 70
     1
102
RTVSPropertyOp31
 70
     1
102
RTVSPropertyOp32
 70
     1
  0
XRECORD
  5
427
102
{ACAD_REACTORS
330
426
102
}
330
426
100
AcDbXrecord
280
     1
102
RTVSPropertyOp0
 70
     1
102
RTVSPropertyOp1
 70
     1
102
RTVSPropertyOp2
 70
     1
102
RTVSPropertyOp3
 70
     1
102
RTVSPropertyOp4
 70
     1
102
RTVSPropertyOp5
 70
     1
102
RTVSPropertyOp6
 70
     1
102
RTVSPropertyOp7
 70
     1
102
RTVSPropertyOp8
 70
     1
102
RTVSPropertyOp9
 70
     1
102
RTVSPropertyOp10
 70
     1
102
RTVSPropertyOp11
 70
     1
102
RTVSPropertyOp12
 70
     1
102
RTVSPropertyOp13
 70
     1
102
RTVSPropertyOp14
 70
     1
102
RTVSPropertyOp15
 70
     1
102
RTVSPropertyOp16
 70
     1
102
RTVSPropertyOp17
 70
     1
102
RTVSPropertyOp18
 70
     1
102
RTVSPropertyOp19
 70
     1
102
RTVSPropertyOp20
 70
     1
102
RTVSPropertyOp21
 70
     1
102
RTVSPropertyOp22
 70
     1
102
RTVSPropertyOp23
 70
     1
102
RTVSPropertyOp24
 70
     1
102
RTVSPropertyOp25
 70
     1
102
RTVSPropertyOp26
 70
     1
102
RTVSPropertyOp27
 70
     1
102
RTVSPropertyOp28
 70
     1
102
RTVSPropertyOp29
 70
     1
102
RTVSPropertyOp30
 70
     1
102
RTVSPropertyOp31
 70
     1
102
RTVSPropertyOp32
 70
     1
  0
XRECORD
  5
41B
102
{ACAD_REACTORS
330
41A
102
}
330
41A
100
AcDbXrecord
280
     1
102
RTVSPropertyOp0
 70
     1
102
RTVSPropertyOp1
 70
     1
102
RTVSPropertyOp2
 70
     1
102
RTVSPropertyOp3
 70
     1
102
RTVSPropertyOp4
 70
     1
102
RTVSPropertyOp5
 70
     1
102
RTVSPropertyOp6
 70
     1
102
RTVSPropertyOp7
 70
     1
102
RTVSPropertyOp8
 70
     1
102
RTVSPropertyOp9
 70
     1
102
RTVSPropertyOp10
 70
     1
102
RTVSPropertyOp11
 70
     1
102
RTVSPropertyOp12
 70
     1
102
RTVSPropertyOp13
 70
     1
102
RTVSPropertyOp14
 70
     1
102
RTVSPropertyOp15
 70
     1
102
RTVSPropertyOp16
 70
     1
102
RTVSPropertyOp17
 70
     1
102
RTVSPropertyOp18
 70
     1
102
RTVSPropertyOp19
 70
     1
102
RTVSPropertyOp20
 70
     1
102
RTVSPropertyOp21
 70
     1
102
RTVSPropertyOp22
 70
     1
102
RTVSPropertyOp23
 70
     1
102
RTVSPropertyOp24
 70
     1
102
RTVSPropertyOp25
 70
     1
102
RTVSPropertyOp26
 70
     1
102
RTVSPropertyOp27
 70
     1
102
RTVSPropertyOp28
 70
     1
102
RTVSPropertyOp29
 70
     1
102
RTVSPropertyOp30
 70
     1
102
RTVSPropertyOp31
 70
     1
102
RTVSPropertyOp32
 70
     1
  0
XRECORD
  5
41D
102
{ACAD_REACTORS
330
41C
102
}
330
41C
100
AcDbXrecord
280
     1
102
RTVSPropertyOp0
 70
     1
102
RTVSPropertyOp1
 70
     1
102
RTVSPropertyOp2
 70
     1
102
RTVSPropertyOp3
 70
     1
102
RTVSPropertyOp4
 70
     1
102
RTVSPropertyOp5
 70
     1
102
RTVSPropertyOp6
 70
     1
102
RTVSPropertyOp7
 70
     1
102
RTVSPropertyOp8
 70
     1
102
RTVSPropertyOp9
 70
     1
102
RTVSPropertyOp10
 70
     1
102
RTVSPropertyOp11
 70
     1
102
RTVSPropertyOp12
 70
     1
102
RTVSPropertyOp13
 70
     1
102
RTVSPropertyOp14
 70
     1
102
RTVSPropertyOp15
 70
     1
102
RTVSPropertyOp16
 70
     1
102
RTVSPropertyOp17
 70
     1
102
RTVSPropertyOp18
 70
     1
102
RTVSPropertyOp19
 70
     1
102
RTVSPropertyOp20
 70
     1
102
RTVSPropertyOp21
 70
     1
102
RTVSPropertyOp22
 70
     1
102
RTVSPropertyOp23
 70
     1
102
RTVSPropertyOp24
 70
     1
102
RTVSPropertyOp25
 70
     1
102
RTVSPropertyOp26
 70
     1
102
RTVSPropertyOp27
 70
     1
102
RTVSPropertyOp28
 70
     1
102
RTVSPropertyOp29
 70
     1
102
RTVSPropertyOp30
 70
     1
102
RTVSPropertyOp31
 70
     1
102
RTVSPropertyOp32
 70
     1
  0
XRECORD
  5
425
102
{ACAD_REACTORS
330
424
102
}
330
424
100
AcDbXrecord
280
     1
102
RTVSPropertyOp0
 70
     1
102
RTVSPropertyOp1
 70
     1
102
RTVSPropertyOp2
 70
     1
102
RTVSPropertyOp3
 70
     1
102
RTVSPropertyOp4
 70
     1
102
RTVSPropertyOp5
 70
     1
102
RTVSPropertyOp6
 70
     1
102
RTVSPropertyOp7
 70
     1
102
RTVSPropertyOp8
 70
     1
102
RTVSPropertyOp9
 70
     1
102
RTVSPropertyOp10
 70
     1
102
RTVSPropertyOp11
 70
     1
102
RTVSPropertyOp12
 70
     1
102
RTVSPropertyOp13
 70
     1
102
RTVSPropertyOp14
 70
     1
102
RTVSPropertyOp15
 70
     1
102
RTVSPropertyOp16
 70
     1
102
RTVSPropertyOp17
 70
     1
102
RTVSPropertyOp18
 70
     1
102
RTVSPropertyOp19
 70
     1
102
RTVSPropertyOp20
 70
     1
102
RTVSPropertyOp21
 70
     1
102
RTVSPropertyOp22
 70
     1
102
RTVSPropertyOp23
 70
     1
102
RTVSPropertyOp24
 70
     1
102
RTVSPropertyOp25
 70
     1
102
RTVSPropertyOp26
 70
     1
102
RTVSPropertyOp27
 70
     1
102
RTVSPropertyOp28
 70
     1
102
RTVSPropertyOp29
 70
     1
102
RTVSPropertyOp30
 70
     1
102
RTVSPropertyOp31
 70
     1
102
RTVSPropertyOp32
 70
     1
  0
XRECORD
  5
409
102
{ACAD_REACTORS
330
408
102
}
330
408
100
AcDbXrecord
280
     1
102
RTVSPropertyOp0
 70
     1
102
RTVSPropertyOp1
 70
     1
102
RTVSPropertyOp2
 70
     1
102
RTVSPropertyOp3
 70
     1
102
RTVSPropertyOp4
 70
     1
102
RTVSPropertyOp5
 70
     1
102
RTVSPropertyOp6
 70
     1
102
RTVSPropertyOp7
 70
     1
102
RTVSPropertyOp8
 70
     1
102
RTVSPropertyOp9
 70
     1
102
RTVSPropertyOp10
 70
     1
102
RTVSPropertyOp11
 70
     1
102
RTVSPropertyOp12
 70
     1
102
RTVSPropertyOp13
 70
     1
102
RTVSPropertyOp14
 70
     1
102
RTVSPropertyOp15
 70
     1
102
RTVSPropertyOp16
 70
     1
102
RTVSPropertyOp17
 70
     1
102
RTVSPropertyOp18
 70
     1
102
RTVSPropertyOp19
 70
     1
102
RTVSPropertyOp20
 70
     1
102
RTVSPropertyOp21
 70
     1
102
RTVSPropertyOp22
 70
     1
102
RTVSPropertyOp23
 70
     1
102
RTVSPropertyOp24
 70
     1
102
RTVSPropertyOp25
 70
     1
102
RTVSPropertyOp26
 70
     1
102
RTVSPropertyOp27
 70
     1
102
RTVSPropertyOp28
 70
     1
102
RTVSPropertyOp29
 70
     1
102
RTVSPropertyOp30
 70
     1
102
RTVSPropertyOp31
 70
     1
102
RTVSPropertyOp32
 70
     1
  0
XRECORD
  5
40B
102
{ACAD_REACTORS
330
40A
102
}
330
40A
100
AcDbXrecord
280
     1
102
RTVSPropertyOp0
 70
     1
102
RTVSPropertyOp1
 70
     1
102
RTVSPropertyOp2
 70
     1
102
RTVSPropertyOp3
 70
     1
102
RTVSPropertyOp4
 70
     1
102
RTVSPropertyOp5
 70
     1
102
RTVSPropertyOp6
 70
     1
102
RTVSPropertyOp7
 70
     1
102
RTVSPropertyOp8
 70
     1
102
RTVSPropertyOp9
 70
     1
102
RTVSPropertyOp10
 70
     1
102
RTVSPropertyOp11
 70
     1
102
RTVSPropertyOp12
 70
     1
102
RTVSPropertyOp13
 70
     1
102
RTVSPropertyOp14
 70
     1
102
RTVSPropertyOp15
 70
     1
102
RTVSPropertyOp16
 70
     1
102
RTVSPropertyOp17
 70
     1
102
RTVSPropertyOp18
 70
     1
102
RTVSPropertyOp19
 70
     1
102
RTVSPropertyOp20
 70
     1
102
RTVSPropertyOp21
 70
     1
102
RTVSPropertyOp22
 70
     1
102
RTVSPropertyOp23
 70
     1
102
RTVSPropertyOp24
 70
     1
102
RTVSPropertyOp25
 70
     1
102
RTVSPropertyOp26
 70
     1
102
RTVSPropertyOp27
 70
     1
102
RTVSPropertyOp28
 70
     1
102
RTVSPropertyOp29
 70
     1
102
RTVSPropertyOp30
 70
     1
102
RTVSPropertyOp31
 70
     1
102
RTVSPropertyOp32
 70
     1
  0
XRECORD
  5
40D
102
{ACAD_REACTORS
330
40C
102
}
330
40C
100
AcDbXrecord
280
     1
102
RTVSPropertyOp0
 70
     1
102
RTVSPropertyOp1
 70
     1
102
RTVSPropertyOp2
 70
     1
102
RTVSPropertyOp3
 70
     1
102
RTVSPropertyOp4
 70
     1
102
RTVSPropertyOp5
 70
     1
102
RTVSPropertyOp6
 70
     1
102
RTVSPropertyOp7
 70
     1
102
RTVSPropertyOp8
 70
     1
102
RTVSPropertyOp9
 70
     1
102
RTVSPropertyOp10
 70
     1
102
RTVSPropertyOp11
 70
     1
102
RTVSPropertyOp12
 70
     1
102
RTVSPropertyOp13
 70
     1
102
RTVSPropertyOp14
 70
     1
102
RTVSPropertyOp15
 70
     1
102
RTVSPropertyOp16
 70
     1
102
RTVSPropertyOp17
 70
     1
102
RTVSPropertyOp18
 70
     1
102
RTVSPropertyOp19
 70
     1
102
RTVSPropertyOp20
 70
     1
102
RTVSPropertyOp21
 70
     1
102
RTVSPropertyOp22
 70
     1
102
RTVSPropertyOp23
 70
     1
102
RTVSPropertyOp24
 70
     1
102
RTVSPropertyOp25
 70
     1
102
RTVSPropertyOp26
 70
     1
102
RTVSPropertyOp27
 70
     1
102
RTVSPropertyOp28
 70
     1
102
RTVSPropertyOp29
 70
     1
102
RTVSPropertyOp30
 70
     1
102
RTVSPropertyOp31
 70
     1
102
RTVSPropertyOp32
 70
     1
  0
XRECORD
  5
40F
102
{ACAD_REACTORS
330
40E
102
}
330
40E
100
AcDbXrecord
280
     1
102
RTVSPropertyOp0
 70
     1
102
RTVSPropertyOp1
 70
     1
102
RTVSPropertyOp2
 70
     1
102
RTVSPropertyOp3
 70
     1
102
RTVSPropertyOp4
 70
     1
102
RTVSPropertyOp5
 70
     1
102
RTVSPropertyOp6
 70
     1
102
RTVSPropertyOp7
 70
     1
102
RTVSPropertyOp8
 70
     1
102
RTVSPropertyOp9
 70
     1
102
RTVSPropertyOp10
 70
     1
102
RTVSPropertyOp11
 70
     1
102
RTVSPropertyOp12
 70
     1
102
RTVSPropertyOp13
 70
     1
102
RTVSPropertyOp14
 70
     1
102
RTVSPropertyOp15
 70
     1
102
RTVSPropertyOp16
 70
     1
102
RTVSPropertyOp17
 70
     1
102
RTVSPropertyOp18
 70
     1
102
RTVSPropertyOp19
 70
     1
102
RTVSPropertyOp20
 70
     1
102
RTVSPropertyOp21
 70
     1
102
RTVSPropertyOp22
 70
     1
102
RTVSPropertyOp23
 70
     1
102
RTVSPropertyOp24
 70
     1
102
RTVSPropertyOp25
 70
     1
102
RTVSPropertyOp26
 70
     1
102
RTVSPropertyOp27
 70
     1
102
RTVSPropertyOp28
 70
     1
102
RTVSPropertyOp29
 70
     1
102
RTVSPropertyOp30
 70
     1
102
RTVSPropertyOp31
 70
     1
102
RTVSPropertyOp32
 70
     1
  0
XRECORD
  5
423
102
{ACAD_REACTORS
330
422
102
}
330
422
100
AcDbXrecord
280
     1
102
RTVSPropertyOp0
 70
     1
102
RTVSPropertyOp1
 70
     1
102
RTVSPropertyOp2
 70
     1
102
RTVSPropertyOp3
 70
     1
102
RTVSPropertyOp4
 70
     1
102
RTVSPropertyOp5
 70
     1
102
RTVSPropertyOp6
 70
     1
102
RTVSPropertyOp7
 70
     1
102
RTVSPropertyOp8
 70
     1
102
RTVSPropertyOp9
 70
     1
102
RTVSPropertyOp10
 70
     1
102
RTVSPropertyOp11
 70
     1
102
RTVSPropertyOp12
 70
     1
102
RTVSPropertyOp13
 70
     1
102
RTVSPropertyOp14
 70
     1
102
RTVSPropertyOp15
 70
     1
102
RTVSPropertyOp16
 70
     1
102
RTVSPropertyOp17
 70
     1
102
RTVSPropertyOp18
 70
     1
102
RTVSPropertyOp19
 70
     1
102
RTVSPropertyOp20
 70
     1
102
RTVSPropertyOp21
 70
     1
102
RTVSPropertyOp22
 70
     1
102
RTVSPropertyOp23
 70
     1
102
RTVSPropertyOp24
 70
     1
102
RTVSPropertyOp25
 70
     1
102
RTVSPropertyOp26
 70
     1
102
RTVSPropertyOp27
 70
     1
102
RTVSPropertyOp28
 70
     1
102
RTVSPropertyOp29
 70
     1
102
RTVSPropertyOp30
 70
     1
102
RTVSPropertyOp31
 70
     1
102
RTVSPropertyOp32
 70
     1
  0
XRECORD
  5
419
102
{ACAD_REACTORS
330
418
102
}
330
418
100
AcDbXrecord
280
     1
102
RTVSPropertyOp0
 70
     1
102
RTVSPropertyOp1
 70
     1
102
RTVSPropertyOp2
 70
     1
102
RTVSPropertyOp3
 70
     1
102
RTVSPropertyOp4
 70
     1
102
RTVSPropertyOp5
 70
     1
102
RTVSPropertyOp6
 70
     1
102
RTVSPropertyOp7
 70
     1
102
RTVSPropertyOp8
 70
     1
102
RTVSPropertyOp9
 70
     1
102
RTVSPropertyOp10
 70
     1
102
RTVSPropertyOp11
 70
     1
102
RTVSPropertyOp12
 70
     1
102
RTVSPropertyOp13
 70
     1
102
RTVSPropertyOp14
 70
     1
102
RTVSPropertyOp15
 70
     1
102
RTVSPropertyOp16
 70
     1
102
RTVSPropertyOp17
 70
     1
102
RTVSPropertyOp18
 70
     1
102
RTVSPropertyOp19
 70
     1
102
RTVSPropertyOp20
 70
     1
102
RTVSPropertyOp21
 70
     1
102
RTVSPropertyOp22
 70
     1
102
RTVSPropertyOp23
 70
     1
102
RTVSPropertyOp24
 70
     1
102
RTVSPropertyOp25
 70
     1
102
RTVSPropertyOp26
 70
     1
102
RTVSPropertyOp27
 70
     1
102
RTVSPropertyOp28
 70
     1
102
RTVSPropertyOp29
 70
     1
102
RTVSPropertyOp30
 70
     1
102
RTVSPropertyOp31
 70
     1
102
RTVSPropertyOp32
 70
     1
  0
XRECORD
  5
421
102
{ACAD_REACTORS
330
420
102
}
330
420
100
AcDbXrecord
280
     1
102
RTVSPropertyOp0
 70
     1
102
RTVSPropertyOp1
 70
     1
102
RTVSPropertyOp2
 70
     1
102
RTVSPropertyOp3
 70
     1
102
RTVSPropertyOp4
 70
     1
102
RTVSPropertyOp5
 70
     1
102
RTVSPropertyOp6
 70
     1
102
RTVSPropertyOp7
 70
     1
102
RTVSPropertyOp8
 70
     1
102
RTVSPropertyOp9
 70
     1
102
RTVSPropertyOp10
 70
     1
102
RTVSPropertyOp11
 70
     1
102
RTVSPropertyOp12
 70
     1
102
RTVSPropertyOp13
 70
     1
102
RTVSPropertyOp14
 70
     1
102
RTVSPropertyOp15
 70
     1
102
RTVSPropertyOp16
 70
     1
102
RTVSPropertyOp17
 70
     1
102
RTVSPropertyOp18
 70
     1
102
RTVSPropertyOp19
 70
     1
102
RTVSPropertyOp20
 70
     1
102
RTVSPropertyOp21
 70
     1
102
RTVSPropertyOp22
 70
     1
102
RTVSPropertyOp23
 70
     1
102
RTVSPropertyOp24
 70
     1
102
RTVSPropertyOp25
 70
     1
102
RTVSPropertyOp26
 70
     1
102
RTVSPropertyOp27
 70
     1
102
RTVSPropertyOp28
 70
     1
102
RTVSPropertyOp29
 70
     1
102
RTVSPropertyOp30
 70
     1
102
RTVSPropertyOp31
 70
     1
102
RTVSPropertyOp32
 70
     1
  0
ENDSEC
  0
EOF
